<svg width="61" height="61" viewBox="0 0 61 61" fill="none" xmlns="http://www.w3.org/2000/svg">
<g clip-path="url(#clip0_727_884)">
<path fill-rule="evenodd" clip-rule="evenodd" d="M52 61C56.9706 61 61 56.9706 61 52C61 47.0294 56.9706 43 52 43C47.0294 43 43 47.0294 43 52C43 56.9706 47.0294 61 52 61ZM57.8225 50.4488L57.8225 50.4488C58.417 49.8543 58.417 48.8904 57.8225 48.2959C57.228 47.7014 56.2641 47.7014 55.6697 48.2959L55.6651 48.3005L50.2877 53.6779L47.5965 50.9868L47.5625 51.0208C46.9788 50.6761 46.2143 50.7545 45.7128 51.2561C45.2113 51.7576 45.1329 52.522 45.4776 53.1058L45.4437 53.1396L45.7009 53.3968L45.7128 53.4089L45.7249 53.4208L49.1992 56.8952L49.2112 56.9072C49.8056 57.5017 50.7695 57.5017 51.364 56.9072L51.364 56.9073L57.8225 50.4488L57.8225 50.4488Z" fill="#17A008"/>
</g>
<defs>
<clipPath id="clip0_727_884">
<rect width="61" height="61" fill="white"/>
</clipPath>
</defs>
</svg>
