<svg width="51" height="51" viewBox="0 0 51 51" fill="none" xmlns="http://www.w3.org/2000/svg">
<g clip-path="url(#clip0_727_884)">
<path fill-rule="evenodd" clip-rule="evenodd" d="M42 51C46.9706 51 51 46.9706 51 42C51 37.0294 46.9706 33 42 33C37.0294 33 33 37.0294 33 42C33 46.9706 37.0294 51 42 51ZM48.1861 40.7276L48.1861 40.7276C48.7806 40.1331 48.7806 39.1693 48.1861 38.5748C47.5916 37.9803 46.6278 37.9803 46.0333 38.5748L46.0287 38.5793L40.6513 43.9568L37.9601 41.2657L37.9262 41.2997C37.3424 40.9549 36.578 41.0334 36.0764 41.5349C35.5749 42.0364 35.4965 42.8009 35.8412 43.3846L35.8073 43.4185L36.0645 43.6757L36.0764 43.6877L36.0885 43.6997L39.5628 47.174L39.5748 47.1861C40.1693 47.7806 41.1331 47.7806 41.7276 47.1861L41.7276 47.1861L48.1861 40.7276L48.1861 40.7276Z" fill="#17A008"/>
</g>
<defs>
<clipPath id="clip0_727_884">
<rect width="51" height="51" fill="white"/>
</clipPath>
</defs>
</svg>
