<svg width="18" height="18" viewBox="0 0 18 18" fill="none" xmlns="http://www.w3.org/2000/svg">
<path fill-rule="evenodd" clip-rule="evenodd" d="M9 18C13.9706 18 18 13.9707 18 9C18 4.0293 13.9706 0 9 0C4.02942 0 0 4.0293 0 9C0 13.9707 4.02942 18 9 18ZM8.7276 14.186L15.1861 7.72754C15.7806 7.1333 15.7806 6.16943 15.1861 5.57471C14.5916 4.98047 13.6277 4.98047 13.0333 5.57471L13.0287 5.5791L7.65131 10.957L4.96014 8.26562L4.92615 8.2998C4.34241 7.95508 3.57794 8.0332 3.07642 8.53467C2.57489 9.03662 2.49646 9.80078 2.84119 10.3848L2.80731 10.4185L3.06451 10.6758L3.07642 10.6875L3.0885 10.6997L6.56287 14.1738L6.57477 14.186C7.16925 14.7808 8.13312 14.7808 8.7276 14.186Z" fill="#17A008"/>
</svg>
