<svg width="49" height="49" viewBox="0 0 49 49" fill="none" xmlns="http://www.w3.org/2000/svg">
<circle cx="24.5" cy="24.5" r="24.5" fill="#2875BE"/>
<path d="M23.2106 18.769V19.7573C23.2106 20.9318 23.0638 21.9845 22.7701 22.9155C22.4765 23.8465 22.054 24.6379 21.5026 25.2896C20.9511 25.9412 20.2887 26.439 19.5153 26.7827C18.749 27.1265 17.8896 27.2983 16.9371 27.2983C16.0133 27.2983 15.1647 27.1265 14.3912 26.7827C13.625 26.439 12.9589 25.9412 12.3932 25.2896C11.8346 24.6379 11.4013 23.8465 11.0934 22.9155C10.7854 21.9845 10.6315 20.9318 10.6315 19.7573V18.769C10.6315 17.5946 10.7819 16.5454 11.0826 15.6216C11.3906 14.6906 11.8238 13.8993 12.3824 13.2476C12.941 12.5887 13.6035 12.0874 14.3697 11.7437C15.1432 11.3999 15.9918 11.228 16.9156 11.228C17.8681 11.228 18.7275 11.3999 19.4938 11.7437C20.2672 12.0874 20.9296 12.5887 21.4811 13.2476C22.0397 13.8993 22.4658 14.6906 22.7594 15.6216C23.0602 16.5454 23.2106 17.5946 23.2106 18.769ZM21.1588 19.7573V18.7476C21.1588 17.8166 21.0621 16.993 20.8688 16.2769C20.6826 15.5607 20.4069 14.9591 20.0416 14.4722C19.6764 13.9852 19.2288 13.6164 18.6988 13.3657C18.1761 13.1151 17.5817 12.9897 16.9156 12.9897C16.2711 12.9897 15.6875 13.1151 15.1647 13.3657C14.649 13.6164 14.205 13.9852 13.8326 14.4722C13.4674 14.9591 13.1845 15.5607 12.984 16.2769C12.7835 16.993 12.6832 17.8166 12.6832 18.7476V19.7573C12.6832 20.6955 12.7835 21.5262 12.984 22.2495C13.1845 22.9657 13.471 23.5708 13.8434 24.0649C14.2229 24.5519 14.6705 24.9207 15.1862 25.1714C15.7089 25.422 16.2926 25.5474 16.9371 25.5474C17.6103 25.5474 18.2083 25.422 18.7311 25.1714C19.2539 24.9207 19.6943 24.5519 20.0524 24.0649C20.4176 23.5708 20.6933 22.9657 20.8795 22.2495C21.0657 21.5262 21.1588 20.6955 21.1588 19.7573ZM27.0094 11.4429L29.9528 16.8999L32.8962 11.4429H36.5807L32.0368 19.1987L36.6989 27.0835H32.9821L29.9528 21.519L26.9235 27.0835H23.1852L27.8581 19.1987L23.3034 11.4429H27.0094Z" fill="white"/>
<ellipse cx="24.5" cy="35" rx="14.5" ry="4" fill="white"/>
</svg>
