<svg width="122" height="93" viewBox="0 0 122 93" fill="none" xmlns="http://www.w3.org/2000/svg">
<g filter="url(#filter0_d_902_935)">
<g filter="url(#filter1_i_902_935)">
<g filter="url(#filter2_f_902_935)">
<g filter="url(#filter3_i_902_935)">
<circle cx="60.2818" cy="42.5996" r="41.5996" fill="#F40A19"/>
</g>
<g filter="url(#filter4_f_902_935)">
<path d="M82.3051 56.4664C77.411 36.6373 41.5212 37.1457 36.6271 56.4631" stroke="black" stroke-width="3"/>
</g>
</g>
<g filter="url(#filter5_f_902_935)">
<path fill-rule="evenodd" clip-rule="evenodd" d="M33.8126 40.4188C34.2613 41.1152 35.2672 41.4829 36.0593 41.2401L54.356 35.6321L55.1555 35.6321C55.9839 35.6321 56.6555 34.9606 56.6555 34.1321C56.6555 33.6536 56.4314 33.2274 56.0824 32.9527C56.0038 32.6021 55.7313 32.3068 55.2976 32.1643L36.7906 26.086C36.0036 25.8275 34.9839 26.1706 34.5132 26.8522C34.0424 27.5339 34.2988 28.2961 35.0859 28.5546L47.5009 32.6321L34.5 32.6321C33.6716 32.6321 33 33.3037 33 34.1321C33 34.9605 33.6716 35.6321 34.5 35.6321L44.5036 35.6321L34.4341 38.7184C33.6421 38.9612 33.3638 39.7225 33.8126 40.4188Z" fill="black"/>
<path d="M36.0593 41.2401L36.0666 41.264L36.0666 41.264L36.0593 41.2401ZM33.8126 40.4188L33.8336 40.4053L33.8336 40.4053L33.8126 40.4188ZM54.356 35.6321L54.3484 35.6071L54.356 35.6071L54.356 35.6321ZM55.1555 35.6321L55.1555 35.6571L55.1555 35.6321ZM56.0824 32.9527L56.0669 32.9724L56.06 32.9669L56.058 32.9582L56.0824 32.9527ZM55.2976 32.1643L55.3054 32.1406L55.3054 32.1406L55.2976 32.1643ZM36.7906 26.086L36.7984 26.0623L36.7984 26.0623L36.7906 26.086ZM34.5132 26.8522L34.5337 26.8665L34.5337 26.8665L34.5132 26.8522ZM35.0859 28.5546L35.0937 28.5308L35.0937 28.5308L35.0859 28.5546ZM47.5009 32.6321L47.5087 32.6084L47.5009 32.6571L47.5009 32.6321ZM34.5 35.6321L34.5 35.6071L34.5 35.6321ZM44.5036 35.6321L44.5036 35.6071L44.5109 35.656L44.5036 35.6321ZM34.4341 38.7184L34.4268 38.6945L34.4268 38.6945L34.4341 38.7184ZM36.0666 41.264C35.6645 41.3873 35.2094 41.3553 34.7986 41.2051C34.3878 41.055 34.0194 40.7859 33.7916 40.4324L33.8336 40.4053C34.0545 40.7482 34.4134 41.0111 34.8158 41.1582C35.2181 41.3052 35.662 41.3357 36.052 41.2162L36.0666 41.264ZM54.3634 35.656L36.0666 41.264L36.052 41.2162L54.3487 35.6082L54.3634 35.656ZM55.1555 35.6571L54.356 35.6571L54.356 35.6071L55.1555 35.6071L55.1555 35.6571ZM56.6805 34.1321C56.6805 34.9744 55.9977 35.6571 55.1555 35.6571L55.1555 35.6071C55.9701 35.6071 56.6305 34.9467 56.6305 34.1321L56.6805 34.1321ZM56.0979 32.9331C56.4526 33.2122 56.6805 33.6456 56.6805 34.1321L56.6305 34.1321C56.6305 33.6616 56.4102 33.2425 56.0669 32.9724L56.0979 32.9331ZM56.058 32.9582C55.9817 32.6175 55.7165 32.3282 55.2898 32.1881L55.3054 32.1406C55.7461 32.2853 56.026 32.5868 56.1068 32.9472L56.058 32.9582ZM55.2898 32.1881L36.7828 26.1098L36.7984 26.0623L55.3054 32.1406L55.2898 32.1881ZM36.7828 26.1098C36.3953 25.9825 35.9492 26.003 35.5413 26.1403C35.1333 26.2775 34.7655 26.5308 34.5337 26.8665L34.4926 26.838C34.7315 26.492 35.109 26.2329 35.5253 26.0929C35.9417 25.9528 36.3989 25.9311 36.7984 26.0623L36.7828 26.1098ZM34.5337 26.8665C34.3021 27.2018 34.2508 27.5547 34.3515 27.8541C34.4523 28.1536 34.7065 28.4036 35.0937 28.5308L35.0781 28.5783C34.6783 28.447 34.4107 28.1867 34.3042 27.8701C34.1976 27.5534 34.2534 27.1843 34.4926 26.838L34.5337 26.8665ZM35.0937 28.5308L47.5087 32.6084L47.4931 32.6559L35.0781 28.5783L35.0937 28.5308ZM34.5 32.6071L47.5009 32.6071L47.5009 32.6571L34.5 32.6571L34.5 32.6071ZM32.975 34.1321C32.975 33.2899 33.6578 32.6071 34.5 32.6071L34.5 32.6571C33.6854 32.6571 33.025 33.3175 33.025 34.1321L32.975 34.1321ZM34.5 35.6571C33.6578 35.6571 32.975 34.9744 32.975 34.1321L33.025 34.1321C33.025 34.9467 33.6854 35.6071 34.5 35.6071L34.5 35.6571ZM44.5036 35.6571L34.5 35.6571L34.5 35.6071L44.5036 35.6071L44.5036 35.6571ZM34.4268 38.6945L44.4963 35.6082L44.5109 35.656L34.4415 38.7423L34.4268 38.6945ZM33.7916 40.4324C33.5636 40.0786 33.519 39.7061 33.6346 39.39C33.7501 39.0739 34.0244 38.8179 34.4268 38.6945L34.4415 38.7423C34.0518 38.8618 33.7909 39.1078 33.6815 39.4071C33.5721 39.7065 33.6128 40.0627 33.8336 40.4053L33.7916 40.4324Z" fill="black"/>
</g>
<g filter="url(#filter6_f_902_935)">
<path fill-rule="evenodd" clip-rule="evenodd" d="M84.9267 40.6679C84.4703 41.3593 83.4605 41.716 82.6711 41.4646L64.4366 35.6576L63.6372 35.6489C62.8088 35.6398 62.1446 34.961 62.1536 34.1326C62.1588 33.6541 62.3876 33.2303 62.7395 32.9595C62.8219 32.6098 63.0977 32.3174 63.5329 32.1797L82.105 26.3034C82.8948 26.0535 83.9107 26.4077 84.374 27.0944C84.8373 27.7812 84.5726 28.5405 83.7827 28.7904L71.324 32.7324L84.3241 32.8741C85.1525 32.8832 85.8167 33.562 85.8077 34.3904C85.7987 35.2188 85.1198 35.883 84.2915 35.8739L74.2885 35.7649L84.3237 38.9608C85.113 39.2122 85.383 39.9765 84.9267 40.6679Z" fill="black"/>
<path d="M82.6711 41.4646L82.6636 41.4884L82.6636 41.4884L82.6711 41.4646ZM84.9267 40.6679L84.9058 40.6541L84.9058 40.6541L84.9267 40.6679ZM64.4366 35.6576L64.4445 35.6327L64.4369 35.6326L64.4366 35.6576ZM62.7395 32.9595L62.7548 32.9793L62.7618 32.9739L62.7639 32.9652L62.7395 32.9595ZM63.5329 32.1797L63.5254 32.1559L63.5254 32.1559L63.5329 32.1797ZM82.105 26.3034L82.0974 26.2796L82.0974 26.2796L82.105 26.3034ZM84.374 27.0944L84.3532 27.1084L84.3532 27.1084L84.374 27.0944ZM83.7827 28.7904L83.7752 28.7666L83.7752 28.7666L83.7827 28.7904ZM71.324 32.7324L71.3164 32.7086L71.3237 32.7574L71.324 32.7324ZM84.2915 35.8739L84.2912 35.8989L84.2915 35.8739ZM74.2885 35.7649L74.2887 35.7399L74.2809 35.7888L74.2885 35.7649ZM84.3237 38.9608L84.3313 38.937L84.3313 38.937L84.3237 38.9608ZM82.6636 41.4884C83.0643 41.6161 83.5197 41.589 83.9321 41.4434C84.3445 41.2977 84.7159 41.0326 84.9475 40.6816L84.9058 40.6541C84.6811 40.9945 84.3194 41.2535 83.9155 41.3962C83.5115 41.5389 83.0674 41.5646 82.6787 41.4408L82.6636 41.4884ZM64.429 35.6814L82.6636 41.4884L82.6787 41.4408L64.4442 35.6337L64.429 35.6814ZM63.6369 35.6739L64.4363 35.6826L64.4369 35.6326L63.6375 35.6239L63.6369 35.6739ZM62.1286 34.1323C62.1194 34.9745 62.7947 35.6647 63.6369 35.6739L63.6375 35.6239C62.8229 35.615 62.1697 34.9474 62.1786 34.1329L62.1286 34.1323ZM62.7243 32.9397C62.3665 33.215 62.1339 33.6458 62.1286 34.1323L62.1786 34.1329C62.1837 33.6623 62.4086 33.2457 62.7548 32.9793L62.7243 32.9397ZM62.7639 32.9652C62.8439 32.6254 63.1123 32.339 63.5404 32.2036L63.5254 32.1559C63.0831 32.2958 62.7999 32.5942 62.7152 32.9538L62.7639 32.9652ZM63.5404 32.2036L82.1125 26.3273L82.0974 26.2796L63.5254 32.1559L63.5404 32.2036ZM82.1125 26.3273C82.5014 26.2042 82.9473 26.2296 83.3537 26.3713C83.7601 26.513 84.1251 26.7703 84.3532 27.1084L84.3947 27.0805C84.1595 26.7319 83.7849 26.4687 83.3702 26.3241C82.9554 26.1795 82.4984 26.1528 82.0974 26.2796L82.1125 26.3273ZM84.3532 27.1084C84.5812 27.4463 84.6287 27.7997 84.5247 28.098C84.4207 28.3964 84.1638 28.6437 83.7752 28.7666L83.7903 28.8143C84.1915 28.6873 84.4619 28.43 84.5719 28.1145C84.6819 27.799 84.6301 27.4293 84.3947 27.0805L84.3532 27.1084ZM83.7752 28.7666L71.3164 32.7086L71.3315 32.7563L83.7903 28.8143L83.7752 28.7666ZM84.3244 32.8491L71.3242 32.7075L71.3237 32.7574L84.3239 32.8991L84.3244 32.8491ZM85.8327 34.3907C85.8419 33.5485 85.1666 32.8583 84.3244 32.8491L84.3239 32.8991C85.1384 32.908 85.7916 33.5755 85.7827 34.3901L85.8327 34.3907ZM84.2912 35.8989C85.1334 35.9081 85.8235 35.2328 85.8327 34.3907L85.7827 34.3901C85.7738 35.2047 85.1063 35.8578 84.2917 35.8489L84.2912 35.8989ZM74.2882 35.7899L84.2912 35.8989L84.2917 35.8489L74.2887 35.7399L74.2882 35.7899ZM84.3313 38.937L74.2961 35.7411L74.2809 35.7888L84.3161 38.9846L84.3313 38.937ZM84.9475 40.6816C85.1794 40.3304 85.228 39.9583 85.1159 39.641C85.0038 39.3237 84.7323 39.0647 84.3313 38.937L84.3161 38.9846C84.7044 39.1083 84.9626 39.3571 85.0687 39.6576C85.1749 39.9582 85.1303 40.314 84.9058 40.6541L84.9475 40.6816Z" fill="black"/>
</g>
<g filter="url(#filter7_d_902_935)">
<path d="M116.682 43.7606C116.682 54.1218 111.582 62.5212 105.291 62.5212C98.9995 62.5212 103.664 54.1218 103.664 43.7606C103.664 33.3994 98.9995 25 105.291 25C111.582 25 116.682 33.3994 116.682 43.7606Z" fill="#F40A19"/>
</g>
<g filter="url(#filter8_d_902_935)">
<path d="M4.00005 44.2308C4.00005 54.592 9.10017 62.9914 15.3915 62.9914C21.6828 62.9914 17.0188 54.592 17.0188 44.2308C17.0188 33.8696 21.6828 25.4702 15.3915 25.4702C9.10017 25.4702 4.00005 33.8696 4.00005 44.2308Z" fill="#F40A19"/>
</g>
</g>
</g>
<defs>
<filter id="filter0_d_902_935" x="3" y="1" width="118.682" height="91.1992" filterUnits="userSpaceOnUse" color-interpolation-filters="sRGB">
<feFlood flood-opacity="0" result="BackgroundImageFix"/>
<feColorMatrix in="SourceAlpha" type="matrix" values="0 0 0 0 0 0 0 0 0 0 0 0 0 0 0 0 0 0 127 0" result="hardAlpha"/>
<feOffset dx="2" dy="5"/>
<feGaussianBlur stdDeviation="1.5"/>
<feComposite in2="hardAlpha" operator="out"/>
<feColorMatrix type="matrix" values="0 0 0 0 0 0 0 0 0 0 0 0 0 0 0 0 0 0 0.33 0"/>
<feBlend mode="normal" in2="BackgroundImageFix" result="effect1_dropShadow_902_935"/>
<feBlend mode="normal" in="SourceGraphic" in2="effect1_dropShadow_902_935" result="shape"/>
</filter>
<filter id="filter1_i_902_935" x="3" y="-1" width="113.682" height="85.1992" filterUnits="userSpaceOnUse" color-interpolation-filters="sRGB">
<feFlood flood-opacity="0" result="BackgroundImageFix"/>
<feBlend mode="normal" in="SourceGraphic" in2="BackgroundImageFix" result="shape"/>
<feColorMatrix in="SourceAlpha" type="matrix" values="0 0 0 0 0 0 0 0 0 0 0 0 0 0 0 0 0 0 127 0" result="hardAlpha"/>
<feOffset dx="-1" dy="-4"/>
<feGaussianBlur stdDeviation="1"/>
<feComposite in2="hardAlpha" operator="arithmetic" k2="-1" k3="1"/>
<feColorMatrix type="matrix" values="0 0 0 0 0 0 0 0 0 0 0 0 0 0 0 0 0 0 0.1 0"/>
<feBlend mode="normal" in2="shape" result="effect1_innerShadow_902_935"/>
</filter>
<filter id="filter2_f_902_935" x="18.4823" y="0.8" width="83.5991" height="83.5992" filterUnits="userSpaceOnUse" color-interpolation-filters="sRGB">
<feFlood flood-opacity="0" result="BackgroundImageFix"/>
<feBlend mode="normal" in="SourceGraphic" in2="BackgroundImageFix" result="shape"/>
<feGaussianBlur stdDeviation="0.1" result="effect1_foregroundBlur_902_935"/>
</filter>
<filter id="filter3_i_902_935" x="18.6823" y="1" width="83.1991" height="83.1992" filterUnits="userSpaceOnUse" color-interpolation-filters="sRGB">
<feFlood flood-opacity="0" result="BackgroundImageFix"/>
<feBlend mode="normal" in="SourceGraphic" in2="BackgroundImageFix" result="shape"/>
<feColorMatrix in="SourceAlpha" type="matrix" values="0 0 0 0 0 0 0 0 0 0 0 0 0 0 0 0 0 0 127 0" result="hardAlpha"/>
<feMorphology radius="4" operator="dilate" in="SourceAlpha" result="effect1_innerShadow_902_935"/>
<feOffset dx="-5" dy="-4"/>
<feGaussianBlur stdDeviation="2"/>
<feComposite in2="hardAlpha" operator="arithmetic" k2="-1" k3="1"/>
<feColorMatrix type="matrix" values="0 0 0 0 0 0 0 0 0 0 0 0 0 0 0 0 0 0 0.3 0"/>
<feBlend mode="normal" in2="shape" result="effect1_innerShadow_902_935"/>
</filter>
<filter id="filter4_f_902_935" x="34.673" y="39.7842" width="49.5884" height="17.5474" filterUnits="userSpaceOnUse" color-interpolation-filters="sRGB">
<feFlood flood-opacity="0" result="BackgroundImageFix"/>
<feBlend mode="normal" in="SourceGraphic" in2="BackgroundImageFix" result="shape"/>
<feGaussianBlur stdDeviation="0.25" result="effect1_foregroundBlur_902_935"/>
</filter>
<filter id="filter5_f_902_935" x="32.475" y="25.4751" width="24.7056" height="16.3647" filterUnits="userSpaceOnUse" color-interpolation-filters="sRGB">
<feFlood flood-opacity="0" result="BackgroundImageFix"/>
<feBlend mode="normal" in="SourceGraphic" in2="BackgroundImageFix" result="shape"/>
<feGaussianBlur stdDeviation="0.25" result="effect1_foregroundBlur_902_935"/>
</filter>
<filter id="filter6_f_902_935" x="61.6285" y="25.6982" width="24.7042" height="16.3721" filterUnits="userSpaceOnUse" color-interpolation-filters="sRGB">
<feFlood flood-opacity="0" result="BackgroundImageFix"/>
<feBlend mode="normal" in="SourceGraphic" in2="BackgroundImageFix" result="shape"/>
<feGaussianBlur stdDeviation="0.25" result="effect1_foregroundBlur_902_935"/>
</filter>
<filter id="filter7_d_902_935" x="98" y="25" width="22.6823" height="45.521" filterUnits="userSpaceOnUse" color-interpolation-filters="sRGB">
<feFlood flood-opacity="0" result="BackgroundImageFix"/>
<feColorMatrix in="SourceAlpha" type="matrix" values="0 0 0 0 0 0 0 0 0 0 0 0 0 0 0 0 0 0 127 0" result="hardAlpha"/>
<feOffset dy="4"/>
<feGaussianBlur stdDeviation="2"/>
<feComposite in2="hardAlpha" operator="out"/>
<feColorMatrix type="matrix" values="0 0 0 0 0 0 0 0 0 0 0 0 0 0 0 0 0 0 0.25 0"/>
<feBlend mode="normal" in2="BackgroundImageFix" result="effect1_dropShadow_902_935"/>
<feBlend mode="normal" in="SourceGraphic" in2="effect1_dropShadow_902_935" result="shape"/>
</filter>
<filter id="filter8_d_902_935" x="0" y="25.4702" width="22.6823" height="45.521" filterUnits="userSpaceOnUse" color-interpolation-filters="sRGB">
<feFlood flood-opacity="0" result="BackgroundImageFix"/>
<feColorMatrix in="SourceAlpha" type="matrix" values="0 0 0 0 0 0 0 0 0 0 0 0 0 0 0 0 0 0 127 0" result="hardAlpha"/>
<feOffset dy="4"/>
<feGaussianBlur stdDeviation="2"/>
<feComposite in2="hardAlpha" operator="out"/>
<feColorMatrix type="matrix" values="0 0 0 0 0 0 0 0 0 0 0 0 0 0 0 0 0 0 0.25 0"/>
<feBlend mode="normal" in2="BackgroundImageFix" result="effect1_dropShadow_902_935"/>
<feBlend mode="normal" in="SourceGraphic" in2="effect1_dropShadow_902_935" result="shape"/>
</filter>
</defs>
</svg>
