<svg width="51" height="58" viewBox="0 0 51 58" fill="none" xmlns="http://www.w3.org/2000/svg">
<circle cx="25.5" cy="27.5" r="25.5" fill="#F40A19"/>
<circle cx="33.5" cy="20.5" r="4.5" fill="black"/>
<circle cx="16.5" cy="20.5" r="4.5" fill="black"/>
<path d="M39 36C36 23.845 14 24.1567 11 35.998" stroke="black" stroke-width="3"/>
<line x1="28.205" y1="18.728" x2="36.205" y2="13.728" stroke="black" stroke-width="3"/>
<line y1="-1.5" x2="9.43398" y2="-1.5" transform="matrix(-0.847998 -0.529999 -0.529999 0.847998 21 20)" stroke="black" stroke-width="3"/>
<path fill-rule="evenodd" clip-rule="evenodd" d="M49.9425 24.4277C49.9425 31.0475 47.3093 37.0524 43.0331 41.4518L44.3806 42.7994L44.4059 42.7741C45.1869 41.9931 46.4533 41.9931 47.2343 42.7741L49.4438 44.9837C50.2249 45.7647 50.2249 47.031 49.4438 47.8121L49.4186 47.8373L49.4189 47.8376L40.7824 56.4741L40.7821 56.4738L40.7569 56.499C39.9759 57.28 38.7096 57.28 37.9285 56.499L35.719 54.2895C34.9379 53.5084 34.9379 52.2421 35.719 51.461L35.7441 51.4359L35.0972 50.7889C32.4773 52.7627 29.1439 53.9445 25.5148 53.9445C21.8858 53.9445 18.5525 52.7628 15.9326 50.7891L15.2855 51.4362L15.3106 51.4613C16.0917 52.2424 16.0917 53.5087 15.3106 54.2898L13.1011 56.4993C12.3201 57.2803 11.0537 57.2803 10.2727 56.4993L1.58579 47.8124C0.804738 47.0313 0.804738 45.765 1.58579 44.984L3.79532 42.7744C4.57636 41.9934 5.8427 41.9934 6.62374 42.7744L6.64903 42.7997L7.99666 41.4521C3.72038 37.0526 1.08707 31.0477 1.08707 24.4277C1.08707 10.9367 12.0237 0 25.5148 0C39.0058 0 49.9425 10.9367 49.9425 24.4277ZM40.1978 26.5809C43.5278 24.3902 44.0417 19.2919 41.3456 15.1933C38.6495 11.0948 33.7642 9.5481 30.4342 11.7387C27.1041 13.9293 26.5902 19.0277 29.2863 23.1262C31.9825 27.2248 36.8677 28.7715 40.1978 26.5809ZM21.3602 22.7688C18.9073 27.0174 14.1205 28.8459 10.6685 26.8529C7.21653 24.8599 6.40664 19.8001 8.85956 15.5515C11.3125 11.3029 16.0993 9.47443 19.5513 11.4674C23.0033 13.4604 23.8132 18.5202 21.3602 22.7688ZM25.6172 49.8732C31.8005 49.8732 36.8132 44.8606 36.8132 38.6772C36.8132 32.4938 31.8005 27.4812 25.6172 27.4812C19.4338 27.4812 14.4211 32.4938 14.4211 38.6772C14.4211 44.8606 19.4338 49.8732 25.6172 49.8732ZM25.6173 49.0122C31.325 49.0122 35.9521 44.3852 35.9521 38.6774C35.9521 32.9697 31.325 28.3426 25.6173 28.3426C19.9095 28.3426 15.2825 32.9697 15.2825 38.6774C15.2825 44.3852 19.9095 49.0122 25.6173 49.0122ZM25.6173 45.9122C26.7589 45.9122 27.6843 44.9867 27.6843 43.8452C27.6843 42.7036 26.7589 41.7782 25.6173 41.7782C24.4758 41.7782 23.5504 42.7036 23.5504 43.8452C23.5504 44.9867 24.4758 45.9122 25.6173 45.9122ZM27.6843 33.5104C27.6843 34.652 26.7589 35.5774 25.6173 35.5774C24.4758 35.5774 23.5504 34.652 23.5504 33.5104C23.5504 32.3689 24.4758 31.4435 25.6173 31.4435C26.7589 31.4435 27.6843 32.3689 27.6843 33.5104ZM18.383 38.6776C18.383 39.8191 19.3084 40.7445 20.4499 40.7445C21.5915 40.7445 22.5169 39.8191 22.5169 38.6776C22.5169 37.536 21.5915 36.6106 20.4499 36.6106C19.3084 36.6106 18.383 37.536 18.383 38.6776ZM30.7847 40.7445C29.6431 40.7445 28.7177 39.8191 28.7177 38.6776C28.7177 37.536 29.6431 36.6106 30.7847 36.6106C31.9262 36.6106 32.8516 37.536 32.8516 38.6776C32.8516 39.8191 31.9262 40.7445 30.7847 40.7445Z" fill="black"/>
</svg>
