<svg width="51" height="59" viewBox="0 0 51 59" fill="none" xmlns="http://www.w3.org/2000/svg">
<circle cx="25.5" cy="25.5" r="25.5" fill="#F40A19"/>
<ellipse cx="19.6329" cy="20.4225" rx="2.25664" ry="4.62611" fill="black"/>
<ellipse cx="31.1414" cy="20.4225" rx="2.25664" ry="4.62611" fill="black"/>
<path fill-rule="evenodd" clip-rule="evenodd" d="M49.9273 25.4277C49.9273 32.0475 47.2941 38.0524 43.018 42.4518L44.3655 43.7994L44.3907 43.7741C45.1718 42.9931 46.4381 42.9931 47.2192 43.7741L49.4287 45.9837C50.2097 46.7647 50.2097 48.031 49.4287 48.8121L49.4035 48.8373L49.4037 48.8376L40.7672 57.4741L40.767 57.4738L40.7418 57.499C39.9607 58.28 38.6944 58.28 37.9134 57.499L35.7038 55.2895C34.9228 54.5084 34.9228 53.2421 35.7038 52.461L35.729 52.4359L35.082 51.7889C32.4621 53.7627 29.1288 54.9445 25.4996 54.9445C21.8706 54.9445 18.5374 53.7628 15.9175 51.7891L15.2704 52.4362L15.2955 52.4613C16.0766 53.2424 16.0766 54.5087 15.2955 55.2898L13.086 57.4993C12.3049 58.2803 11.0386 58.2803 10.2576 57.4993L1.57065 48.8124C0.789601 48.0313 0.789601 46.765 1.57065 45.984L3.78018 43.7744C4.56123 42.9934 5.82756 42.9934 6.60861 43.7744L6.63389 43.7997L7.98153 42.4521C3.70525 38.0526 1.07193 32.0477 1.07193 25.4277C1.07193 11.9367 12.0086 1 25.4996 1C38.9907 1 49.9273 11.9367 49.9273 25.4277ZM40.1826 27.5809C43.5127 25.3902 44.0266 20.2919 41.3305 16.1933C38.6343 12.0948 33.7491 10.5481 30.419 12.7387C27.089 14.9293 26.5751 20.0277 29.2712 24.1262C31.9673 28.2248 36.8525 29.7715 40.1826 27.5809ZM21.3451 23.7688C18.8922 28.0174 14.1053 29.8459 10.6534 27.8529C7.2014 25.8599 6.39151 20.8001 8.84442 16.5515C11.2973 12.3029 16.0842 10.4744 19.5362 12.4674C22.9881 14.4604 23.798 19.5202 21.3451 23.7688ZM25.602 50.8732C31.7854 50.8732 36.798 45.8606 36.798 39.6772C36.798 33.4938 31.7854 28.4812 25.602 28.4812C19.4186 28.4812 14.406 33.4938 14.406 39.6772C14.406 45.8606 19.4186 50.8732 25.602 50.8732ZM25.6022 50.0122C31.3099 50.0122 35.937 45.3852 35.937 39.6774C35.937 33.9697 31.3099 29.3426 25.6022 29.3426C19.8944 29.3426 15.2674 33.9697 15.2674 39.6774C15.2674 45.3852 19.8944 50.0122 25.6022 50.0122ZM25.6022 46.9122C26.7437 46.9122 27.6691 45.9867 27.6691 44.8452C27.6691 43.7036 26.7437 42.7782 25.6022 42.7782C24.4606 42.7782 23.5352 43.7036 23.5352 44.8452C23.5352 45.9867 24.4606 46.9122 25.6022 46.9122ZM27.6691 34.5104C27.6691 35.652 26.7437 36.5774 25.6022 36.5774C24.4606 36.5774 23.5352 35.652 23.5352 34.5104C23.5352 33.3689 24.4606 32.4435 25.6022 32.4435C26.7437 32.4435 27.6691 33.3689 27.6691 34.5104ZM18.3678 39.6776C18.3678 40.8191 19.2932 41.7445 20.4348 41.7445C21.5763 41.7445 22.5017 40.8191 22.5017 39.6776C22.5017 38.536 21.5763 37.6106 20.4348 37.6106C19.2932 37.6106 18.3678 38.536 18.3678 39.6776ZM30.7695 41.7445C29.628 41.7445 28.7026 40.8191 28.7026 39.6776C28.7026 38.536 29.628 37.6106 30.7695 37.6106C31.9111 37.6106 32.8365 38.536 32.8365 39.6776C32.8365 40.8191 31.9111 41.7445 30.7695 41.7445Z" fill="black"/>
</svg>
