<svg width="51" height="51" viewBox="0 0 51 51" fill="none" xmlns="http://www.w3.org/2000/svg">
<g filter="url(#filter0_i_801_935)">
<circle cx="25.5" cy="25.5" r="25.5" fill="#00B332"/>
<circle cx="33.5" cy="18.5" r="4.5" fill="black"/>
<circle cx="16.5" cy="18.5" r="4.5" fill="black"/>
<path d="M41 27C41 35.5604 34.0604 42.5 25.5 42.5C16.9396 42.5 10 35.5604 10 27C10 27 16.9396 27 25.5 27C34.0604 27 41 27 41 27Z" fill="#3F2F10"/>
<path d="M19 41C19 37.6863 21.9101 36 25.5 36C29.0899 36 32 37.6863 32 41C32 41 29.0899 42.5 25.5 42.5C21.9101 42.5 19 41 19 41Z" fill="#FB8079"/>
<path d="M41 27C41 28.7614 34.0604 32 25.5 32C16.9396 32 10 28.7614 10 27C10 27 16.9396 27 25.5 27C34.0604 27 41 27 41 27Z" fill="white"/>
</g>
<defs>
<filter id="filter0_i_801_935" x="-1" y="-2" width="52" height="53" filterUnits="userSpaceOnUse" color-interpolation-filters="sRGB">
<feFlood flood-opacity="0" result="BackgroundImageFix"/>
<feBlend mode="normal" in="SourceGraphic" in2="BackgroundImageFix" result="shape"/>
<feColorMatrix in="SourceAlpha" type="matrix" values="0 0 0 0 0 0 0 0 0 0 0 0 0 0 0 0 0 0 127 0" result="hardAlpha"/>
<feOffset dx="-1" dy="-4"/>
<feGaussianBlur stdDeviation="1"/>
<feComposite in2="hardAlpha" operator="arithmetic" k2="-1" k3="1"/>
<feColorMatrix type="matrix" values="0 0 0 0 0 0 0 0 0 0 0 0 0 0 0 0 0 0 0.1 0"/>
<feBlend mode="normal" in2="shape" result="effect1_innerShadow_801_935"/>
</filter>
</defs>
</svg>
