<svg width="51" height="51" viewBox="0 0 51 51" fill="none" xmlns="http://www.w3.org/2000/svg">
<g filter="url(#filter0_i_802_1109)">
<circle cx="25.5" cy="25.5" r="25.5" fill="#4C90FA"/>
<circle cx="33.5" cy="18.5" r="4.5" fill="black"/>
<circle cx="16.5" cy="18.5" r="4.5" fill="black"/>
</g>
<path fill-rule="evenodd" clip-rule="evenodd" d="M13.1431 34.9544C12.933 34.9845 12.7183 35 12.5 35C10.0147 35 8 32.9853 8 30.5C8 28.0147 10.0147 26 12.5 26C12.7183 26 12.933 26.0155 13.1431 26.0456V26H39.5H40.1431V26.0456C42.3237 26.3576 44 28.2331 44 30.5C44 32.7669 42.3237 34.6424 40.1431 34.9544V35H39.5H13.1431V34.9544Z" fill="white"/>
<line x1="8" y1="30.5" x2="44" y2="30.5" stroke="#8C8C8E" stroke-opacity="0.24"/>
<line x1="13.5" y1="26" x2="13.5" y2="35" stroke="#8C8C8E" stroke-opacity="0.24"/>
<line x1="37.5" y1="26" x2="37.5" y2="35" stroke="#8C8C8E" stroke-opacity="0.24"/>
<line x1="17.5" y1="26" x2="17.5" y2="35" stroke="#8C8C8E" stroke-opacity="0.24"/>
<line x1="33.5" y1="26" x2="33.5" y2="35" stroke="#8C8C8E" stroke-opacity="0.24"/>
<line x1="21.5" y1="26" x2="21.5" y2="35" stroke="#8C8C8E" stroke-opacity="0.24"/>
<line x1="29.5" y1="26" x2="29.5" y2="35" stroke="#8C8C8E" stroke-opacity="0.24"/>
<line x1="25.5" y1="26" x2="25.5" y2="35" stroke="#8C8C8E" stroke-opacity="0.24"/>
<path d="M36.0001 46L33.5 35L38.5981 35L36.0001 46Z" fill="#99FFE7" fill-opacity="0.76"/>
<path d="M31.9616 44L30 35L34 35L31.9616 44Z" fill="#99FFE7" fill-opacity="0.76"/>
<path d="M36.4712 42L35 35L38 35L36.4712 42Z" fill="white"/>
<path d="M32.4712 40L31 35L33.5 35L32.4712 40Z" fill="white"/>
<defs>
<filter id="filter0_i_802_1109" x="-1" y="-2" width="52" height="53" filterUnits="userSpaceOnUse" color-interpolation-filters="sRGB">
<feFlood flood-opacity="0" result="BackgroundImageFix"/>
<feBlend mode="normal" in="SourceGraphic" in2="BackgroundImageFix" result="shape"/>
<feColorMatrix in="SourceAlpha" type="matrix" values="0 0 0 0 0 0 0 0 0 0 0 0 0 0 0 0 0 0 127 0" result="hardAlpha"/>
<feOffset dx="-1" dy="-4"/>
<feGaussianBlur stdDeviation="1"/>
<feComposite in2="hardAlpha" operator="arithmetic" k2="-1" k3="1"/>
<feColorMatrix type="matrix" values="0 0 0 0 0 0 0 0 0 0 0 0 0 0 0 0 0 0 0.1 0"/>
<feBlend mode="normal" in2="shape" result="effect1_innerShadow_802_1109"/>
</filter>
</defs>
</svg>
