<svg width="386" height="618" viewBox="0 0 386 618" fill="none" xmlns="http://www.w3.org/2000/svg">
<g clip-path="url(#clip0_716_842)">
<rect width="386" height="618" fill="white"/>
<rect y="618" width="618" height="386" transform="rotate(-90 0 618)" fill="white"/>
<path d="M179 549C164 548.833 129.1 548.6 109.5 549L106.5 454L106.5 295.5L104 260.5L97 94L100.5 94L238 278L290.5 238.5L323 272L345.5 256L359.5 274L316.5 305.5L276.5 340.5L254 362C249.167 370.167 237.2 389.2 228 400C216.5 413.5 198.5 463.5 189.5 490.5C182.3 512.1 179.5 538.5 179 549Z" fill="#DBDAEF" fill-opacity="0.5"/>
<path d="M183.5 470L155.5 471.5L152 389L118 389L115.5 307.5L148.5 303L152 389L226 385C219.833 394.833 206.2 416.7 201 425.5C195.8 434.3 187.167 458.833 183.5 470Z" fill="#D3D2B7"/>
<path d="M75 299L76 355L107 355L106 297L75 299Z" fill="#D3D2B7"/>
<path d="M143 173.5L111 173.5L111 139.5L124.5 139.5L143 165L143 173.5Z" fill="#D3D2B7"/>
<path d="M110 140.5L110 173L142 174.5L142 165.5L122 140.5L110 140.5Z" fill="#D3D2B7"/>
<path d="M108 552C109 565 110.5 591.4 110.5 595C124.167 594.5 153.6 592.9 156 592.5C159 592 156 555.5 156 551C156 547.404 123.743 550.493 108.055 551.995L108 552Z" fill="#B6BBC5"/>
<path d="M92 499.5L92 521.5L109 523.5L108 498.5L92 499.5Z" fill="#B6BBC5"/>
<path d="M107 452.5L90 453.5L90 432L107 432L107 452.5Z" fill="#B6BBC5"/>
<path d="M87 364.5L87 387.5L105.5 387.5C105.667 380.333 105.9 365.7 105.5 364.5C105.1 363.3 93 364 87 364.5Z" fill="#B6BBC5"/>
<path d="M87 259L87 279.5L104.5 280L104 258L87 259Z" fill="#B6BBC5"/>
<path d="M83.5 200L84.5 223L102 221.5L102 200L83.5 200Z" fill="#B6BBC5"/>
<path d="M141 148.5L154 165.5L180 147.5L167.5 130L141 148.5Z" fill="#B6BBC5"/>
<path d="M197 224L210 243.5L237.5 223L225 205L197 224Z" fill="#B6BBC5"/>
<path d="M319 306L343 335L364.5 320.5L384 306L360.5 275.5L339.5 291L319 306Z" fill="#B6BBC5"/>
<path d="M276 342L256.5 362.5C266 371 285.2 388.1 286 388.5C286.8 388.9 298 374.333 303.5 367L276 342Z" fill="#B6BBC5"/>
<path d="M200 463L211 437C222 442.333 244.2 453 245 453C245.8 453 238.667 469.667 235 478L228.5 502L223 530.5L220 555.5L179.5 552L184 523L191 493.5L200 463Z" fill="#B6BBC5"/>
<path d="M108 552C109 565 110.5 591.4 110.5 595C124.167 594.5 153.6 592.9 156 592.5C159 592 156 555.5 156 551C156 547.404 123.743 550.493 108.055 551.995L108 552Z" stroke="black"/>
<path d="M92 499.5L92 521.5L109 523.5L108 498.5L92 499.5Z" stroke="black"/>
<path d="M107 452.5L90 453.5L90 432L107 432L107 452.5Z" stroke="black"/>
<path d="M87 364.5L87 387.5L105.5 387.5C105.667 380.333 105.9 365.7 105.5 364.5C105.1 363.3 93 364 87 364.5Z" stroke="black"/>
<path d="M87 259L87 279.5L104.5 280L104 258L87 259Z" stroke="black"/>
<path d="M83.5 200L84.5 223L102 221.5L102 200L83.5 200Z" stroke="black"/>
<path d="M141 148.5L154 165.5L180 147.5L167.5 130L141 148.5Z" stroke="black"/>
<path d="M197 224L210 243.5L237.5 223L225 205L197 224Z" stroke="black"/>
<path d="M319 306L343 335L364.5 320.5L384 306L360.5 275.5L339.5 291L319 306Z" stroke="black"/>
<path d="M276 342L256.5 362.5C266 371 285.2 388.1 286 388.5C286.8 388.9 298 374.333 303.5 367L276 342Z" stroke="black"/>
<path d="M200 463L211 437C222 442.333 244.2 453 245 453C245.8 453 238.667 469.667 235 478L228.5 502L223 530.5L220 555.5L179.5 552L184 523L191 493.5L200 463Z" stroke="black"/>
<path d="M153.5 170C160.833 179.333 177.9 200.6 193.5 223L223 205L181 149L153.5 170Z" fill="#C4A8A1"/>
<path d="M138 148C136 144 113.833 110.5 101.5 94.5L103.5 198L83.5 200L84.236 223L104.5 223L105.5 255.5L86 259L86 281.5L106.5 281.5L106 297L75 299L76 355L86 357L107 357.5L107 388.5L109 430L88.5 432L90.5 454L109 455.5L110 496.5L90.5 499L90 522.5L111 524L110 594.5L29 598L29 94.5L101.5 94.5L125 75.5L166 129L138 148Z" fill="#C4A8A1"/>
<path d="M241 294L209 246L237 224L246 234L298.5 198.5L345.5 257L315 280.5L292.5 253.5L241 294Z" fill="#C4A8A1"/>
<path d="M210 435L245 453C249.333 445 258.9 427.3 262.5 420.5C266.1 413.7 279.333 396.667 285.5 389L253.5 362.5C246 370.5 232.9 391.2 228.5 398C220.5 410.364 214.833 424.5 210 435Z" fill="#C4A8A1"/>
<path d="M343.5 336.5L304 367C294.833 359.167 274.735 340 276 340C276 340 301.333 316.667 315.5 305.5L343.5 336.5Z" fill="#00CC5E" fill-opacity="0.6"/>
<path d="M120.5 528.5L116.5 390.5L152.228 388.533L147.5 266.5L193 263.5L223.5 302L239.5 291L241.5 293.5L291.5 254.5L314.5 279.5L258.5 318.5L269 333.5L225.5 384.5L152.228 388.533L155.5 473L167.5 473L154 527L120.5 528.5Z" fill="#A8A8A8"/>
<path d="M27.5 11.5C25.1 11.5 26.8333 30.5 28 40L81.5 40.5L113.5 84L124.5 75.5L73 7.5C58.8333 8.83333 29.9 11.5 27.5 11.5Z" fill="#A8A8A8"/>
<path d="M110.5 174L113 241L143 241.5L143 174L110.5 174Z" fill="#A8A8A8"/>
<path d="M156 552L156.5 593L219 590L221 556.5L179.5 552L156 552Z" fill="#A8A8A8"/>
<path d="M110.5 174L113 241L143 241.5L143 174L110.5 174Z" stroke="black"/>
<path d="M156 552L156.5 593L219 590L221 556.5L179.5 552L156 552Z" stroke="black"/>
<path d="M29 40.5C27 50 28.4 78 28 96C50.5 96 97.3 93.5 100.5 93.5C103.7 93.5 110.5 86.5 113.5 83L83 40.5L29 40.5Z" fill="#B97575"/>
<path d="M87.0171 280.786L105 280L104.001 257.129L86.0177 257.915L87.0171 280.786Z" stroke="#7A7A7A" stroke-width="3"/>
<path d="M84.4743 222.374L102.958 221.607L102.026 199.126L83.5416 199.893L84.4743 222.374Z" stroke="#7A7A7A" stroke-width="3"/>
<path d="M87 387L105.5 387L105.5 364.5L87 364.5L87 387Z" fill="#B6BBC5" stroke="#7A7A7A" stroke-width="3"/>
<path d="M89 454L107.5 454L107.5 431.5L89 431.5L89 454Z" stroke="#7A7A7A" stroke-width="3"/>
<path d="M91 522L109.5 523L108.5 498L91 499.5L91 522Z" stroke="#7A7A7A" stroke-width="3"/>
<path d="M179 551L155.5 551M179 551L219.577 556M179 551C179.58 546.069 181.035 536.088 183.405 523.5M190 493C187.313 503.916 185.12 514.391 183.405 523.5M190 493L227.353 502.5M190 493C192.62 482.354 195.833 472.352 199 463.712M244 453.519C248.22 443.964 252.299 436.103 255.5 430.5C261.143 420.624 271.226 404.857 284.792 388.5M244 453.519L210.5 437C208.039 441.626 203.568 451.251 199 463.712M244 453.519C240.732 460.918 237.379 469.333 234.283 478.5M284.792 388.5L255.5 362.5L276 342L303.5 368.125M284.792 388.5C290.446 381.683 296.705 374.763 303.5 368.125M303.5 368.125C309.292 362.466 315.473 357.012 322 352C330.074 345.8 336.652 340.764 342.5 336.329M342.5 336.329L317.5 306L338.5 290.793M342.5 336.329C350.179 330.506 356.6 325.718 363.5 320.69M359.5 275.586L297 198L244 233L236.812 223.5M359.5 275.586L384 306C376.008 311.661 369.569 316.268 363.5 320.69M359.5 275.586L338.5 290.793M338.5 290.793L363.5 320.69M236.812 223.5L209.5 244L195.5 223.5L222.814 205M236.812 223.5L222.814 205M222.814 205L180 148.415M180 148.415L154 168L140 148.415L165.31 129M180 148.415L165.31 129M165.31 129L125 75.7252M27.5 95.5L27.5 599L109.995 595.309M27.5 95.5L100.5 93.5L114 83.7057M27.5 95.5L27.5 40.5M125 75.7252L73 7L27.5 11.5L27.5 40.5M125 75.7252L114 83.7057M109.995 174L109 140.5L122 140.5L143 165.5L143 174M109.995 174L112 241.5L143 241.5L143 174M109.995 174L143 174M147.5 303.5L114 306.5L116.265 390.5M147.5 303.5L146 265L194 262L222.814 301.5L238.5 291.5L240.247 294M147.5 303.5L151.5 388.5M151.5 388.5L224 385C226.667 381.167 234.4 370.7 244 359.5C253.6 348.3 263.667 337.167 267.5 333L257.367 318.5M151.5 388.5L153.5 472L167 472L153.5 527.5L120 529L116.265 390.5M151.5 388.5L116.265 390.5M109.995 595.309L109.5 551.5L155.5 551M109.995 595.309L155.5 593.274M155.5 593.274L217.5 590.5C217.678 583.039 218.363 570.117 219.577 556M155.5 593.274L155.5 551M219.577 556C220.297 547.624 221.203 538.827 222.3 530.5M183.405 523.5L222.3 530.5M222.3 530.5C222.823 526.527 223.39 522.662 224 519C224.937 513.378 226.071 507.865 227.353 502.5M227.353 502.5C229.363 494.088 231.736 486.039 234.283 478.5M199 463.712L234.283 478.5M27.5 40.5L82 40.5L114 83.7057M240.247 294L291.5 253.5L313 280.5L257.367 318.5M240.247 294L257.367 318.5" stroke="#7A7A7A" stroke-width="3"/>
<line x1="76" y1="356.5" x2="107" y2="356.5" stroke="#7A7A7A" stroke-width="3"/>
<line x1="75" y1="297.5" x2="106" y2="297.5" stroke="#7A7A7A" stroke-width="3"/>
</g>
<defs>
<clipPath id="clip0_716_842">
<rect width="386" height="618" fill="white"/>
</clipPath>
</defs>
</svg>
