<svg width="451" height="634" viewBox="0 0 451 634" fill="none" xmlns="http://www.w3.org/2000/svg">
<g clip-path="url(#clip0_904_830)">
<path d="M239 565C224 564.833 189.1 564.6 169.5 565L166.5 470L166.5 311.5L164 276.5L157 110L160.5 110L298 294L350.5 254.5L383 288L405.5 272L419.5 290L376.5 321.5L336.5 356.5L314 378C309.167 386.167 297.2 405.2 288 416C276.5 429.5 258.5 479.5 249.5 506.5C242.3 528.1 239.5 554.5 239 565Z" fill="#CCCCCC"/>
<path d="M243.5 486L215.5 487.5L212 405L178 405L175.5 323.5L208.5 319L212 405L286 401C279.833 410.833 266.2 432.7 261 441.5C255.8 450.3 247.167 474.833 243.5 486Z" fill="#D3D2B7"/>
<path d="M135 315L136 371L167 371L166 313L135 315Z" fill="#D3D2B7"/>
<path d="M203 189.5L171 189.5L171 155.5L184.5 155.5L203 181L203 189.5Z" fill="#D3D2B7"/>
<path d="M170 156.5L170 189L202 190.5L202 181.5L182 156.5L170 156.5Z" fill="#D3D2B7"/>
<path d="M168 568C169 581 170.5 607.4 170.5 611C184.167 610.5 213.6 608.9 216 608.5C219 608 216 571.5 216 567C216 563.404 183.743 566.493 168.055 567.995L168 568Z" fill="#B6BBC5"/>
<path d="M152 515.5L152 537.5L169 539.5L168 514.5L152 515.5Z" fill="#B6BBC5"/>
<path d="M167 468.5L150 469.5L150 448L167 448L167 468.5Z" fill="#B6BBC5"/>
<path d="M147 380.5L147 403.5L165.5 403.5C165.667 396.333 165.9 381.7 165.5 380.5C165.1 379.3 153 380 147 380.5Z" fill="#B6BBC5"/>
<path d="M147 275L147 295.5L164.5 296L164 274L147 275Z" fill="#B6BBC5"/>
<path d="M143.5 216L144.5 239L162 237.5L162 216L143.5 216Z" fill="#B6BBC5"/>
<path d="M201 164.5L214 181.5L240 163.5L227.5 146L201 164.5Z" fill="#B6BBC5"/>
<path d="M257 240L270 259.5L297.5 239L285 221L257 240Z" fill="#B6BBC5"/>
<path d="M379 322L403 351L424.5 336.5L444 322L420.5 291.5L399.5 307L379 322Z" fill="#B6BBC5"/>
<path d="M336 358L316.5 378.5C326 387 345.2 404.1 346 404.5C346.8 404.9 358 390.333 363.5 383L336 358Z" fill="#B6BBC5"/>
<path d="M260 479L271 453C282 458.333 304.2 469 305 469C305.8 469 298.667 485.667 295 494L288.5 518L283 546.5L280 571.5L239.5 568L244 539L251 509.5L260 479Z" fill="#B6BBC5"/>
<path d="M168 568C169 581 170.5 607.4 170.5 611C184.167 610.5 213.6 608.9 216 608.5C219 608 216 571.5 216 567C216 563.404 183.743 566.493 168.055 567.995L168 568Z" stroke="black"/>
<path d="M152 515.5L152 537.5L169 539.5L168 514.5L152 515.5Z" stroke="black"/>
<path d="M167 468.5L150 469.5L150 448L167 448L167 468.5Z" stroke="black"/>
<path d="M147 380.5L147 403.5L165.5 403.5C165.667 396.333 165.9 381.7 165.5 380.5C165.1 379.3 153 380 147 380.5Z" stroke="black"/>
<path d="M147 275L147 295.5L164.5 296L164 274L147 275Z" stroke="black"/>
<path d="M143.5 216L144.5 239L162 237.5L162 216L143.5 216Z" stroke="black"/>
<path d="M201 164.5L214 181.5L240 163.5L227.5 146L201 164.5Z" stroke="black"/>
<path d="M257 240L270 259.5L297.5 239L285 221L257 240Z" stroke="black"/>
<path d="M379 322L403 351L424.5 336.5L444 322L420.5 291.5L399.5 307L379 322Z" stroke="black"/>
<path d="M336 358L316.5 378.5C326 387 345.2 404.1 346 404.5C346.8 404.9 358 390.333 363.5 383L336 358Z" stroke="black"/>
<path d="M260 479L271 453C282 458.333 304.2 469 305 469C305.8 469 298.667 485.667 295 494L288.5 518L283 546.5L280 571.5L239.5 568L244 539L251 509.5L260 479Z" stroke="black"/>
<path d="M213.5 186C220.833 195.333 237.9 216.6 253.5 239L283 221L241 165L213.5 186Z" fill="#C4A8A1"/>
<path d="M198 164C196 160 173.833 126.5 161.5 110.5L163.5 214L143.5 216L144.236 239L164.5 239L165.5 271.5L146 275L146 297.5L166.5 297.5L166 313L135 315L136 371L146 373L167 373.5L167 404.5L169 446L148.5 448L150.5 470L169 471.5L170 512.5L150.5 515L150 538.5L171 540L170 610.5L89 614L89 110.5L161.5 110.5L185 91.5L226 145L198 164Z" fill="#C4A8A1"/>
<path d="M301 310L269 262L297 240L306 250L358.5 214.5L405.5 273L375 296.5L352.5 269.5L301 310Z" fill="#C4A8A1"/>
<path d="M270 451L305 469C309.333 461 318.9 443.3 322.5 436.5C326.1 429.7 339.333 412.667 345.5 405L313.5 378.5C306 386.5 292.9 407.2 288.5 414C280.5 426.364 274.833 440.5 270 451Z" fill="#C4A8A1"/>
<path d="M403.5 352.5L364 383C354.833 375.167 334.735 356 336 356C336 356 361.333 332.667 375.5 321.5L403.5 352.5Z" fill="#00CC5E" fill-opacity="0.6"/>
<path d="M180.5 544.5L176.5 406.5L212.228 404.533L207.5 282.5L253 279.5L283.5 318L299.5 307L301.5 309.5L351.5 270.5L374.5 295.5L318.5 334.5L329 349.5L285.5 400.5L212.228 404.533L215.5 489L227.5 489L214 543L180.5 544.5Z" fill="#A8A8A8"/>
<path d="M87.5 27.5C85.1 27.5 86.8333 46.5 88 56L141.5 56.5L173.5 100L184.5 91.5L133 23.5C118.833 24.8333 89.9 27.5 87.5 27.5Z" fill="#A8A8A8"/>
<path d="M170.5 190L173 257L203 257.5L203 190L170.5 190Z" fill="#A8A8A8"/>
<path d="M216 568L216.5 609L279 606L281 572.5L239.5 568L216 568Z" fill="#A8A8A8"/>
<path d="M170.5 190L173 257L203 257.5L203 190L170.5 190Z" stroke="black"/>
<path d="M216 568L216.5 609L279 606L281 572.5L239.5 568L216 568Z" stroke="black"/>
<path d="M88.1078 27C86.122 41.7207 88.5051 84.1081 88.108 112C110.448 112 156.915 108.126 160.093 108.126C163.27 108.126 181.021 96.9234 184 91.5L132 23.5L88.1078 27Z" fill="#B97575"/>
<path d="M147.017 296.786L165 296L164 273.129L146.018 273.915L147.017 296.786Z" stroke="#7A7A7A" stroke-width="3"/>
<path d="M144.474 238.374L162.958 237.607L162.026 215.126L143.541 215.893L144.474 238.374Z" stroke="#7A7A7A" stroke-width="3"/>
<path d="M147 403L165.5 403L165.5 380.5L147 380.5L147 403Z" fill="#B6BBC5" stroke="#7A7A7A" stroke-width="3"/>
<path d="M149 470L167.5 470L167.5 447.5L149 447.5L149 470Z" stroke="#7A7A7A" stroke-width="3"/>
<path d="M151 538L169.5 539L168.5 514L151 515.5L151 538Z" stroke="#7A7A7A" stroke-width="3"/>
<path d="M239 567L215.5 567M239 567L279.577 572M239 567C239.58 562.069 241.035 552.088 243.405 539.5M250 509C247.313 519.916 245.12 530.391 243.405 539.5M250 509L287.353 518.5M250 509C252.62 498.354 255.833 488.352 259 479.712M304 469.519C308.22 459.964 312.299 452.103 315.5 446.5C321.143 436.624 331.226 420.857 344.792 404.5M304 469.519L270.5 453C268.039 457.626 263.568 467.251 259 479.712M304 469.519C300.732 476.918 297.379 485.333 294.283 494.5M344.792 404.5L315.5 378.5L336 358L363.5 384.125M344.792 404.5C350.446 397.683 356.705 390.763 363.5 384.125M363.5 384.125C369.292 378.466 375.473 373.012 382 368C390.074 361.8 396.652 356.764 402.5 352.329M402.5 352.329L377.5 322L398.5 306.793M402.5 352.329C410.179 346.506 416.6 341.718 423.5 336.69M419.5 291.586L357 214L304 249L296.812 239.5M419.5 291.586L444 322C436.008 327.661 429.569 332.268 423.5 336.69M419.5 291.586L398.5 306.793M398.5 306.793L423.5 336.69M296.812 239.5L269.5 260L255.5 239.5L282.814 221M296.812 239.5L282.814 221M282.814 221L240 164.415M240 164.415L214 184L200 164.415L225.31 145M240 164.415L225.31 145M225.31 145L185 91.7252M87.5 111.5L87.5 615L169.995 611.309M87.5 111.5L160.5 109.5L174 99.7057L185 91.7252M87.5 111.5L87.5 56.5L87.5 27.5L133 23L185 91.7252M169.995 190L169 156.5L182 156.5L203 181.5L203 190M169.995 190L172 257.5L203 257.5L203 190M169.995 190L203 190M207.5 319.5L174 322.5L176.265 406.5M207.5 319.5L206 281L254 278L282.814 317.5L298.5 307.5L300.247 310M207.5 319.5L211.5 404.5M211.5 404.5L284 401C286.667 397.167 294.4 386.7 304 375.5C313.6 364.3 323.667 353.167 327.5 349L317.367 334.5M211.5 404.5L213.5 488L227 488L213.5 543.5L180 545L176.265 406.5M211.5 404.5L176.265 406.5M169.995 611.309L169.5 567.5L215.5 567M169.995 611.309L215.5 609.274M215.5 609.274L277.5 606.5C277.678 599.039 278.363 586.117 279.577 572M215.5 609.274L215.5 567M279.577 572C280.297 563.624 281.203 554.827 282.3 546.5M243.405 539.5L282.3 546.5M282.3 546.5C282.823 542.527 283.39 538.662 284 535C284.937 529.378 286.071 523.865 287.353 518.5M287.353 518.5C289.363 510.088 291.736 502.039 294.283 494.5M259 479.712L294.283 494.5M300.247 310L351.5 269.5L373 296.5L317.367 334.5M300.247 310L317.367 334.5" stroke="#7A7A7A" stroke-width="3"/>
<line x1="136" y1="372.5" x2="167" y2="372.5" stroke="#7A7A7A" stroke-width="3"/>
<line x1="135" y1="313.5" x2="166" y2="313.5" stroke="#7A7A7A" stroke-width="3"/>
<path opacity="0.7" d="M174.064 48.791V49.2627C174.064 50.0192 173.962 50.6982 173.757 51.2998C173.552 51.9014 173.262 52.4141 172.889 52.8379C172.515 53.2572 172.068 53.5785 171.549 53.8018C171.034 54.0251 170.462 54.1367 169.833 54.1367C169.209 54.1367 168.637 54.0251 168.117 53.8018C167.602 53.5785 167.156 53.2572 166.777 52.8379C166.399 52.4141 166.105 51.9014 165.896 51.2998C165.69 50.6982 165.588 50.0192 165.588 49.2627V48.791C165.588 48.0299 165.69 47.3509 165.896 46.7539C166.101 46.1523 166.39 45.6396 166.764 45.2158C167.142 44.792 167.589 44.4684 168.104 44.2451C168.623 44.0218 169.195 43.9102 169.819 43.9102C170.448 43.9102 171.02 44.0218 171.535 44.2451C172.055 44.4684 172.501 44.792 172.875 45.2158C173.253 45.6396 173.545 46.1523 173.75 46.7539C173.96 47.3509 174.064 48.0299 174.064 48.791ZM171.993 49.2627V48.7773C171.993 48.2487 171.945 47.7839 171.85 47.3828C171.754 46.9818 171.613 46.6445 171.426 46.3711C171.239 46.0977 171.011 45.8926 170.742 45.7559C170.473 45.6146 170.166 45.5439 169.819 45.5439C169.473 45.5439 169.165 45.6146 168.896 45.7559C168.632 45.8926 168.407 46.0977 168.22 46.3711C168.037 46.6445 167.898 46.9818 167.803 47.3828C167.707 47.7839 167.659 48.2487 167.659 48.7773V49.2627C167.659 49.7868 167.707 50.2516 167.803 50.6572C167.898 51.0583 168.04 51.3978 168.227 51.6758C168.413 51.9492 168.641 52.1566 168.91 52.2979C169.179 52.4391 169.487 52.5098 169.833 52.5098C170.179 52.5098 170.487 52.4391 170.756 52.2979C171.025 52.1566 171.25 51.9492 171.433 51.6758C171.615 51.3978 171.754 51.0583 171.85 50.6572C171.945 50.2516 171.993 49.7868 171.993 49.2627ZM179.417 50.4521H176.881V48.8525H179.417C179.809 48.8525 180.128 48.7887 180.374 48.6611C180.62 48.529 180.8 48.3467 180.914 48.1143C181.028 47.8818 181.085 47.6198 181.085 47.3281C181.085 47.0319 181.028 46.7562 180.914 46.501C180.8 46.2458 180.62 46.0407 180.374 45.8857C180.128 45.7308 179.809 45.6533 179.417 45.6533H177.592V54H175.541V44.0469H179.417C180.196 44.0469 180.864 44.1882 181.42 44.4707C181.98 44.7487 182.409 45.1338 182.705 45.626C183.001 46.1182 183.149 46.681 183.149 47.3145C183.149 47.957 183.001 48.513 182.705 48.9824C182.409 49.4518 181.98 49.8141 181.42 50.0693C180.864 50.3245 180.196 50.4521 179.417 50.4521ZM188.44 50.4521H185.904V48.8525H188.44C188.832 48.8525 189.151 48.7887 189.397 48.6611C189.644 48.529 189.824 48.3467 189.938 48.1143C190.051 47.8818 190.108 47.6198 190.108 47.3281C190.108 47.0319 190.051 46.7562 189.938 46.501C189.824 46.2458 189.644 46.0407 189.397 45.8857C189.151 45.7308 188.832 45.6533 188.44 45.6533H186.615V54H184.564V44.0469H188.44C189.22 44.0469 189.887 44.1882 190.443 44.4707C191.004 44.7487 191.432 45.1338 191.729 45.626C192.025 46.1182 192.173 46.681 192.173 47.3145C192.173 47.957 192.025 48.513 191.729 48.9824C191.432 49.4518 191.004 49.8141 190.443 50.0693C189.887 50.3245 189.22 50.4521 188.44 50.4521Z" fill="black"/>
<path opacity="0.7" d="M225.064 117.791V118.263C225.064 119.019 224.962 119.698 224.757 120.3C224.552 120.901 224.262 121.414 223.889 121.838C223.515 122.257 223.068 122.578 222.549 122.802C222.034 123.025 221.462 123.137 220.833 123.137C220.209 123.137 219.637 123.025 219.117 122.802C218.602 122.578 218.156 122.257 217.777 121.838C217.399 121.414 217.105 120.901 216.896 120.3C216.69 119.698 216.588 119.019 216.588 118.263V117.791C216.588 117.03 216.69 116.351 216.896 115.754C217.101 115.152 217.39 114.64 217.764 114.216C218.142 113.792 218.589 113.468 219.104 113.245C219.623 113.022 220.195 112.91 220.819 112.91C221.448 112.91 222.02 113.022 222.535 113.245C223.055 113.468 223.501 113.792 223.875 114.216C224.253 114.64 224.545 115.152 224.75 115.754C224.96 116.351 225.064 117.03 225.064 117.791ZM222.993 118.263V117.777C222.993 117.249 222.945 116.784 222.85 116.383C222.754 115.982 222.613 115.645 222.426 115.371C222.239 115.098 222.011 114.893 221.742 114.756C221.473 114.615 221.166 114.544 220.819 114.544C220.473 114.544 220.165 114.615 219.896 114.756C219.632 114.893 219.407 115.098 219.22 115.371C219.037 115.645 218.898 115.982 218.803 116.383C218.707 116.784 218.659 117.249 218.659 117.777V118.263C218.659 118.787 218.707 119.252 218.803 119.657C218.898 120.058 219.04 120.398 219.227 120.676C219.413 120.949 219.641 121.157 219.91 121.298C220.179 121.439 220.487 121.51 220.833 121.51C221.179 121.51 221.487 121.439 221.756 121.298C222.025 121.157 222.25 120.949 222.433 120.676C222.615 120.398 222.754 120.058 222.85 119.657C222.945 119.252 222.993 118.787 222.993 118.263ZM230.417 119.452H227.881V117.853H230.417C230.809 117.853 231.128 117.789 231.374 117.661C231.62 117.529 231.8 117.347 231.914 117.114C232.028 116.882 232.085 116.62 232.085 116.328C232.085 116.032 232.028 115.756 231.914 115.501C231.8 115.246 231.62 115.041 231.374 114.886C231.128 114.731 230.809 114.653 230.417 114.653H228.592V123H226.541V113.047H230.417C231.196 113.047 231.864 113.188 232.42 113.471C232.98 113.749 233.409 114.134 233.705 114.626C234.001 115.118 234.149 115.681 234.149 116.314C234.149 116.957 234.001 117.513 233.705 117.982C233.409 118.452 232.98 118.814 232.42 119.069C231.864 119.325 231.196 119.452 230.417 119.452ZM239.44 119.452H236.904V117.853H239.44C239.832 117.853 240.151 117.789 240.397 117.661C240.644 117.529 240.824 117.347 240.938 117.114C241.051 116.882 241.108 116.62 241.108 116.328C241.108 116.032 241.051 115.756 240.938 115.501C240.824 115.246 240.644 115.041 240.397 114.886C240.151 114.731 239.832 114.653 239.44 114.653H237.615V123H235.564V113.047H239.44C240.22 113.047 240.887 113.188 241.443 113.471C242.004 113.749 242.432 114.134 242.729 114.626C243.025 115.118 243.173 115.681 243.173 116.314C243.173 116.957 243.025 117.513 242.729 117.982C242.432 118.452 242.004 118.814 241.443 119.069C240.887 119.325 240.22 119.452 239.44 119.452Z" fill="black"/>
<path opacity="0.7" d="M276.069 181.047V191H274.025V181.047H276.069ZM283.76 187.698H285.804C285.763 188.368 285.578 188.963 285.25 189.482C284.926 190.002 284.473 190.408 283.89 190.699C283.311 190.991 282.614 191.137 281.798 191.137C281.16 191.137 280.588 191.027 280.082 190.809C279.576 190.585 279.143 190.266 278.783 189.852C278.428 189.437 278.157 188.936 277.97 188.348C277.783 187.76 277.689 187.101 277.689 186.372V185.682C277.689 184.952 277.785 184.294 277.977 183.706C278.173 183.114 278.451 182.61 278.811 182.195C279.175 181.781 279.61 181.462 280.116 181.238C280.622 181.015 281.187 180.903 281.812 180.903C282.641 180.903 283.34 181.054 283.91 181.354C284.484 181.655 284.929 182.07 285.243 182.599C285.562 183.127 285.754 183.729 285.817 184.403H283.767C283.744 184.002 283.664 183.663 283.527 183.385C283.391 183.102 283.183 182.89 282.905 182.749C282.632 182.603 282.267 182.53 281.812 182.53C281.47 182.53 281.171 182.594 280.916 182.722C280.661 182.849 280.447 183.043 280.273 183.303C280.1 183.562 279.97 183.891 279.884 184.287C279.802 184.679 279.761 185.139 279.761 185.668V186.372C279.761 186.887 279.799 187.34 279.877 187.732C279.954 188.12 280.073 188.448 280.232 188.717C280.396 188.981 280.606 189.182 280.861 189.318C281.121 189.451 281.433 189.517 281.798 189.517C282.226 189.517 282.579 189.448 282.857 189.312C283.135 189.175 283.347 188.972 283.493 188.703C283.644 188.434 283.732 188.099 283.76 187.698ZM291.396 181.047V191H289.352V181.047H291.396ZM294.458 181.047V182.653H286.337V181.047H294.458Z" fill="black"/>
</g>
<path opacity="0.7" d="M389.069 228.047V238H387.025V228.047H389.069ZM396.76 234.698H398.804C398.763 235.368 398.578 235.963 398.25 236.482C397.926 237.002 397.473 237.408 396.89 237.699C396.311 237.991 395.614 238.137 394.798 238.137C394.16 238.137 393.588 238.027 393.082 237.809C392.576 237.585 392.143 237.266 391.783 236.852C391.428 236.437 391.157 235.936 390.97 235.348C390.783 234.76 390.689 234.101 390.689 233.372V232.682C390.689 231.952 390.785 231.294 390.977 230.706C391.173 230.114 391.451 229.61 391.811 229.195C392.175 228.781 392.61 228.462 393.116 228.238C393.622 228.015 394.187 227.903 394.812 227.903C395.641 227.903 396.34 228.054 396.91 228.354C397.484 228.655 397.929 229.07 398.243 229.599C398.562 230.127 398.754 230.729 398.817 231.403H396.767C396.744 231.002 396.664 230.663 396.527 230.385C396.391 230.102 396.183 229.89 395.905 229.749C395.632 229.603 395.267 229.53 394.812 229.53C394.47 229.53 394.171 229.594 393.916 229.722C393.661 229.849 393.447 230.043 393.273 230.303C393.1 230.562 392.97 230.891 392.884 231.287C392.802 231.679 392.761 232.139 392.761 232.668V233.372C392.761 233.887 392.799 234.34 392.877 234.732C392.954 235.12 393.073 235.448 393.232 235.717C393.396 235.981 393.606 236.182 393.861 236.318C394.121 236.451 394.433 236.517 394.798 236.517C395.226 236.517 395.579 236.448 395.857 236.312C396.135 236.175 396.347 235.972 396.493 235.703C396.644 235.434 396.732 235.099 396.76 234.698ZM404.396 228.047V238H402.352V228.047H404.396ZM407.458 228.047V229.653H399.337V228.047H407.458Z" fill="black"/>
<path opacity="0.7" d="M55.0645 155.791V156.263C55.0645 157.019 54.9619 157.698 54.7568 158.3C54.5518 158.901 54.2624 159.414 53.8887 159.838C53.515 160.257 53.0684 160.578 52.5488 160.802C52.0339 161.025 51.4619 161.137 50.833 161.137C50.2087 161.137 49.6367 161.025 49.1172 160.802C48.6022 160.578 48.1556 160.257 47.7773 159.838C47.3991 159.414 47.1051 158.901 46.8955 158.3C46.6904 157.698 46.5879 157.019 46.5879 156.263V155.791C46.5879 155.03 46.6904 154.351 46.8955 153.754C47.1006 153.152 47.39 152.64 47.7637 152.216C48.1419 151.792 48.5885 151.468 49.1035 151.245C49.623 151.022 50.195 150.91 50.8193 150.91C51.4482 150.91 52.0202 151.022 52.5352 151.245C53.0547 151.468 53.5013 151.792 53.875 152.216C54.2533 152.64 54.5449 153.152 54.75 153.754C54.9596 154.351 55.0645 155.03 55.0645 155.791ZM52.9932 156.263V155.777C52.9932 155.249 52.9453 154.784 52.8496 154.383C52.7539 153.982 52.6126 153.645 52.4258 153.371C52.2389 153.098 52.0111 152.893 51.7422 152.756C51.4733 152.615 51.1657 152.544 50.8193 152.544C50.473 152.544 50.1654 152.615 49.8965 152.756C49.6322 152.893 49.4066 153.098 49.2197 153.371C49.0374 153.645 48.8984 153.982 48.8027 154.383C48.707 154.784 48.6592 155.249 48.6592 155.777V156.263C48.6592 156.787 48.707 157.252 48.8027 157.657C48.8984 158.058 49.0397 158.398 49.2266 158.676C49.4134 158.949 49.6413 159.157 49.9102 159.298C50.179 159.439 50.4867 159.51 50.833 159.51C51.1794 159.51 51.487 159.439 51.7559 159.298C52.0247 159.157 52.2503 158.949 52.4326 158.676C52.6149 158.398 52.7539 158.058 52.8496 157.657C52.9453 157.252 52.9932 156.787 52.9932 156.263ZM58.5918 151.047V161H56.541V151.047H58.5918ZM62.5566 155.299V156.898H58.0312V155.299H62.5566ZM63.0352 151.047V152.653H58.0312V151.047H63.0352ZM66.2754 151.047V161H64.2246V151.047H66.2754ZM70.2402 155.299V156.898H65.7148V155.299H70.2402ZM70.7188 151.047V152.653H65.7148V151.047H70.7188Z" fill="black"/>
<path opacity="0.7" d="M393.567 381.4V383H388.27V381.4H393.567ZM388.939 373.047V383H386.889V373.047H388.939ZM392.877 377.101V378.659H388.27V377.101H392.877ZM393.561 373.047V374.653H388.27V373.047H393.561ZM395.7 373.047H397.437L399.993 380.354L402.55 373.047H404.286L400.69 383H399.296L395.7 373.047ZM394.764 373.047H396.493L396.808 380.17V383H394.764V373.047ZM403.493 373.047H405.229V383H403.179V380.17L403.493 373.047ZM410.903 379.452H408.367V377.853H410.903C411.295 377.853 411.614 377.789 411.86 377.661C412.106 377.529 412.286 377.347 412.4 377.114C412.514 376.882 412.571 376.62 412.571 376.328C412.571 376.032 412.514 375.756 412.4 375.501C412.286 375.246 412.106 375.041 411.86 374.886C411.614 374.731 411.295 374.653 410.903 374.653H409.078V383H407.027V373.047H410.903C411.683 373.047 412.35 373.188 412.906 373.471C413.467 373.749 413.895 374.134 414.191 374.626C414.488 375.118 414.636 375.681 414.636 376.314C414.636 376.957 414.488 377.513 414.191 377.982C413.895 378.452 413.467 378.814 412.906 379.069C412.35 379.325 411.683 379.452 410.903 379.452Z" fill="black"/>
<path opacity="0.7" d="M329.915 455.944V449.047H331.959V455.944C331.959 456.61 331.813 457.182 331.521 457.66C331.23 458.134 330.831 458.499 330.325 458.754C329.824 459.009 329.259 459.137 328.63 459.137C327.978 459.137 327.402 459.027 326.9 458.809C326.399 458.59 326.005 458.255 325.718 457.804C325.431 457.348 325.287 456.771 325.287 456.074H327.345C327.345 456.439 327.395 456.728 327.495 456.942C327.6 457.157 327.748 457.309 327.939 457.4C328.131 457.492 328.361 457.537 328.63 457.537C328.89 457.537 329.115 457.476 329.307 457.353C329.498 457.229 329.646 457.049 329.751 456.812C329.86 456.576 329.915 456.286 329.915 455.944ZM337.469 453.955V455.5H333.606V453.955H337.469ZM345.002 455.698H347.046C347.005 456.368 346.82 456.963 346.492 457.482C346.169 458.002 345.715 458.408 345.132 458.699C344.553 458.991 343.856 459.137 343.04 459.137C342.402 459.137 341.83 459.027 341.324 458.809C340.818 458.585 340.385 458.266 340.025 457.852C339.67 457.437 339.399 456.936 339.212 456.348C339.025 455.76 338.932 455.101 338.932 454.372V453.682C338.932 452.952 339.027 452.294 339.219 451.706C339.415 451.114 339.693 450.61 340.053 450.195C340.417 449.781 340.853 449.462 341.358 449.238C341.864 449.015 342.429 448.903 343.054 448.903C343.883 448.903 344.583 449.054 345.152 449.354C345.727 449.655 346.171 450.07 346.485 450.599C346.804 451.127 346.996 451.729 347.06 452.403H345.009C344.986 452.002 344.906 451.663 344.77 451.385C344.633 451.102 344.425 450.89 344.147 450.749C343.874 450.603 343.509 450.53 343.054 450.53C342.712 450.53 342.413 450.594 342.158 450.722C341.903 450.849 341.689 451.043 341.516 451.303C341.342 451.562 341.213 451.891 341.126 452.287C341.044 452.679 341.003 453.139 341.003 453.668V454.372C341.003 454.887 341.042 455.34 341.119 455.732C341.197 456.12 341.315 456.448 341.475 456.717C341.639 456.981 341.848 457.182 342.104 457.318C342.363 457.451 342.675 457.517 343.04 457.517C343.468 457.517 343.822 457.448 344.1 457.312C344.378 457.175 344.59 456.972 344.735 456.703C344.886 456.434 344.975 456.099 345.002 455.698Z" fill="black"/>
<path opacity="0.7" d="M54.5479 508.944V502.047H56.5918V508.944C56.5918 509.61 56.446 510.182 56.1543 510.66C55.8626 511.134 55.4639 511.499 54.958 511.754C54.4567 512.009 53.8916 512.137 53.2627 512.137C52.611 512.137 52.0345 512.027 51.5332 511.809C51.0319 511.59 50.6377 511.255 50.3506 510.804C50.0635 510.348 49.9199 509.771 49.9199 509.074H51.9775C51.9775 509.439 52.0277 509.728 52.1279 509.942C52.2327 510.157 52.3809 510.309 52.5723 510.4C52.7637 510.492 52.9938 510.537 53.2627 510.537C53.5225 510.537 53.748 510.476 53.9395 510.353C54.1309 510.229 54.279 510.049 54.3838 509.812C54.4932 509.576 54.5479 509.286 54.5479 508.944ZM62.1016 506.955V508.5H58.2393V506.955H62.1016ZM67.7412 508.452H65.2051V506.853H67.7412C68.1331 506.853 68.4521 506.789 68.6982 506.661C68.9443 506.529 69.1243 506.347 69.2383 506.114C69.3522 505.882 69.4092 505.62 69.4092 505.328C69.4092 505.032 69.3522 504.756 69.2383 504.501C69.1243 504.246 68.9443 504.041 68.6982 503.886C68.4521 503.731 68.1331 503.653 67.7412 503.653H65.916V512H63.8652V502.047H67.7412C68.5205 502.047 69.1882 502.188 69.7441 502.471C70.3047 502.749 70.7331 503.134 71.0293 503.626C71.3255 504.118 71.4736 504.681 71.4736 505.314C71.4736 505.957 71.3255 506.513 71.0293 506.982C70.7331 507.452 70.3047 507.814 69.7441 508.069C69.1882 508.325 68.5205 508.452 67.7412 508.452Z" fill="black"/>
<path opacity="0.7" d="M58.2939 299.4V301H52.9961V299.4H58.2939ZM53.666 291.047V301H51.6152V291.047H53.666ZM57.6035 295.101V296.659H52.9961V295.101H57.6035ZM58.2871 291.047V292.653H52.9961V291.047H58.2871ZM63.25 295.955V297.5H59.3877V295.955H63.25ZM71.6924 299.4V301H66.3945V299.4H71.6924ZM67.0645 291.047V301H65.0137V291.047H67.0645ZM71.002 295.101V296.659H66.3945V295.101H71.002ZM71.6855 291.047V292.653H66.3945V291.047H71.6855Z" fill="black"/>
<defs>
<clipPath id="clip0_904_830">
<rect width="386" height="618" fill="white" transform="translate(60 16)"/>
</clipPath>
</defs>
</svg>
