<svg width="451" height="634" viewBox="0 0 451 634" fill="none" xmlns="http://www.w3.org/2000/svg">
<g clip-path="url(#clip0_812_876)">
<path d="M239 565C224 564.833 189.1 564.6 169.5 565L166.5 470L166.5 311.5L164 276.5L157 110L160.5 110L298 294L350.5 254.5L383 288L405.5 272L419.5 290L376.5 321.5L336.5 356.5L314 378C309.167 386.167 297.2 405.2 288 416C276.5 429.5 258.5 479.5 249.5 506.5C242.3 528.1 239.5 554.5 239 565Z" fill="#CCCCCC"/>
<path d="M243.5 486L215.5 487.5L212 405L178 405L175.5 323.5L208.5 319L212 405L286 401C279.833 410.833 266.2 432.7 261 441.5C255.8 450.3 247.167 474.833 243.5 486Z" fill="#D3D2B7"/>
<path d="M135 315L136 371L167 371L166 313L135 315Z" fill="#D3D2B7"/>
<path d="M203 189.5L171 189.5L171 155.5L184.5 155.5L203 181L203 189.5Z" fill="#D3D2B7"/>
<path d="M170 156.5L170 189L202 190.5L202 181.5L182 156.5L170 156.5Z" fill="#D3D2B7"/>
<path d="M168 568C169 581 170.5 607.4 170.5 611C184.167 610.5 213.6 608.9 216 608.5C219 608 216 571.5 216 567C216 563.404 183.743 566.493 168.055 567.995L168 568Z" fill="#B6BBC5"/>
<path d="M152 515.5L152 537.5L169 539.5L168 514.5L152 515.5Z" fill="#B6BBC5"/>
<path d="M167 468.5L150 469.5L150 448L167 448L167 468.5Z" fill="#B6BBC5"/>
<path d="M147 380.5L147 403.5L165.5 403.5C165.667 396.333 165.9 381.7 165.5 380.5C165.1 379.3 153 380 147 380.5Z" fill="#B6BBC5"/>
<path d="M147 275L147 295.5L164.5 296L164 274L147 275Z" fill="#B6BBC5"/>
<path d="M143.5 216L144.5 239L162 237.5L162 216L143.5 216Z" fill="#B6BBC5"/>
<path d="M201 164.5L214 181.5L240 163.5L227.5 146L201 164.5Z" fill="#B6BBC5"/>
<path d="M257 240L270 259.5L297.5 239L285 221L257 240Z" fill="#B6BBC5"/>
<path d="M379 322L403 351L424.5 336.5L444 322L420.5 291.5L399.5 307L379 322Z" fill="#B6BBC5"/>
<path d="M336 358L316.5 378.5C326 387 345.2 404.1 346 404.5C346.8 404.9 358 390.333 363.5 383L336 358Z" fill="#B6BBC5"/>
<path d="M260 479L271 453C282 458.333 304.2 469 305 469C305.8 469 298.667 485.667 295 494L288.5 518L283 546.5L280 571.5L239.5 568L244 539L251 509.5L260 479Z" fill="#B6BBC5"/>
<path d="M168 568C169 581 170.5 607.4 170.5 611C184.167 610.5 213.6 608.9 216 608.5C219 608 216 571.5 216 567C216 563.404 183.743 566.493 168.055 567.995L168 568Z" stroke="black"/>
<path d="M152 515.5L152 537.5L169 539.5L168 514.5L152 515.5Z" stroke="black"/>
<path d="M167 468.5L150 469.5L150 448L167 448L167 468.5Z" stroke="black"/>
<path d="M147 380.5L147 403.5L165.5 403.5C165.667 396.333 165.9 381.7 165.5 380.5C165.1 379.3 153 380 147 380.5Z" stroke="black"/>
<path d="M147 275L147 295.5L164.5 296L164 274L147 275Z" stroke="black"/>
<path d="M143.5 216L144.5 239L162 237.5L162 216L143.5 216Z" stroke="black"/>
<path d="M201 164.5L214 181.5L240 163.5L227.5 146L201 164.5Z" stroke="black"/>
<path d="M257 240L270 259.5L297.5 239L285 221L257 240Z" stroke="black"/>
<path d="M379 322L403 351L424.5 336.5L444 322L420.5 291.5L399.5 307L379 322Z" stroke="black"/>
<path d="M336 358L316.5 378.5C326 387 345.2 404.1 346 404.5C346.8 404.9 358 390.333 363.5 383L336 358Z" stroke="black"/>
<path d="M260 479L271 453C282 458.333 304.2 469 305 469C305.8 469 298.667 485.667 295 494L288.5 518L283 546.5L280 571.5L239.5 568L244 539L251 509.5L260 479Z" stroke="black"/>
<path d="M213.5 186C220.833 195.333 237.9 216.6 253.5 239L283 221L241 165L213.5 186Z" fill="#C4A8A1"/>
<path d="M198 164C196 160 173.833 126.5 161.5 110.5L163.5 214L143.5 216L144.236 239L164.5 239L165.5 271.5L146 275L146 297.5L166.5 297.5L166 313L135 315L136 371L146 373L167 373.5L167 404.5L169 446L148.5 448L150.5 470L169 471.5L170 512.5L150.5 515L150 538.5L171 540L170 610.5L89 614L89 110.5L161.5 110.5L185 91.5L226 145L198 164Z" fill="#C4A8A1"/>
<path d="M301 310L269 262L297 240L306 250L358.5 214.5L405.5 273L375 296.5L352.5 269.5L301 310Z" fill="#C4A8A1"/>
<path d="M270 451L305 469C309.333 461 318.9 443.3 322.5 436.5C326.1 429.7 339.333 412.667 345.5 405L313.5 378.5C306 386.5 292.9 407.2 288.5 414C280.5 426.364 274.833 440.5 270 451Z" fill="#C4A8A1"/>
<path d="M403.5 352.5L364 383C354.833 375.167 334.735 356 336 356C336 356 361.333 332.667 375.5 321.5L403.5 352.5Z" fill="#00CC5E" fill-opacity="0.6"/>
<path d="M180.5 544.5L176.5 406.5L212.228 404.533L207.5 282.5L253 279.5L283.5 318L299.5 307L301.5 309.5L351.5 270.5L374.5 295.5L318.5 334.5L329 349.5L285.5 400.5L212.228 404.533L215.5 489L227.5 489L214 543L180.5 544.5Z" fill="#A8A8A8"/>
<path d="M87.5 27.5C85.1 27.5 86.8333 46.5 88 56L141.5 56.5L173.5 100L184.5 91.5L133 23.5C118.833 24.8333 89.9 27.5 87.5 27.5Z" fill="#A8A8A8"/>
<path d="M170.5 190L173 257L203 257.5L203 190L170.5 190Z" fill="#A8A8A8"/>
<path d="M216 568L216.5 609L279 606L281 572.5L239.5 568L216 568Z" fill="#A8A8A8"/>
<path d="M170.5 190L173 257L203 257.5L203 190L170.5 190Z" stroke="black"/>
<path d="M216 568L216.5 609L279 606L281 572.5L239.5 568L216 568Z" stroke="black"/>
<path d="M88.1078 27C86.122 41.7207 88.5051 84.1081 88.108 112C110.448 112 156.915 108.126 160.093 108.126C163.27 108.126 181.021 96.9234 184 91.5L132 23.5L88.1078 27Z" fill="#B97575"/>
<path d="M147.017 296.786L165 296L164 273.129L146.018 273.915L147.017 296.786Z" stroke="#7A7A7A" stroke-width="3"/>
<path d="M144.474 238.374L162.958 237.607L162.026 215.126L143.541 215.893L144.474 238.374Z" stroke="#7A7A7A" stroke-width="3"/>
<path d="M147 403L165.5 403L165.5 380.5L147 380.5L147 403Z" fill="#B6BBC5" stroke="#7A7A7A" stroke-width="3"/>
<path d="M149 470L167.5 470L167.5 447.5L149 447.5L149 470Z" stroke="#7A7A7A" stroke-width="3"/>
<path d="M151 538L169.5 539L168.5 514L151 515.5L151 538Z" stroke="#7A7A7A" stroke-width="3"/>
<path d="M239 567L215.5 567M239 567L279.577 572M239 567C239.58 562.069 241.035 552.088 243.405 539.5M250 509C247.313 519.916 245.12 530.391 243.405 539.5M250 509L287.353 518.5M250 509C252.62 498.354 255.833 488.352 259 479.712M304 469.519C308.22 459.964 312.299 452.103 315.5 446.5C321.143 436.624 331.226 420.857 344.792 404.5M304 469.519L270.5 453C268.039 457.626 263.568 467.251 259 479.712M304 469.519C300.732 476.918 297.379 485.333 294.283 494.5M344.792 404.5L315.5 378.5L336 358L363.5 384.125M344.792 404.5C350.446 397.683 356.705 390.763 363.5 384.125M363.5 384.125C369.292 378.466 375.473 373.012 382 368C390.074 361.8 396.652 356.764 402.5 352.329M402.5 352.329L377.5 322L398.5 306.793M402.5 352.329C410.179 346.506 416.6 341.718 423.5 336.69M419.5 291.586L357 214L304 249L296.812 239.5M419.5 291.586L444 322C436.008 327.661 429.569 332.268 423.5 336.69M419.5 291.586L398.5 306.793M398.5 306.793L423.5 336.69M296.812 239.5L269.5 260L255.5 239.5L282.814 221M296.812 239.5L282.814 221M282.814 221L240 164.415M240 164.415L214 184L200 164.415L225.31 145M240 164.415L225.31 145M225.31 145L185 91.7252M87.5 111.5L87.5 615L169.995 611.309M87.5 111.5L160.5 109.5L174 99.7057L185 91.7252M87.5 111.5L87.5 56.5L87.5 27.5L133 23L185 91.7252M169.995 190L169 156.5L182 156.5L203 181.5L203 190M169.995 190L172 257.5L203 257.5L203 190M169.995 190L203 190M207.5 319.5L174 322.5L176.265 406.5M207.5 319.5L206 281L254 278L282.814 317.5L298.5 307.5L300.247 310M207.5 319.5L211.5 404.5M211.5 404.5L284 401C286.667 397.167 294.4 386.7 304 375.5C313.6 364.3 323.667 353.167 327.5 349L317.367 334.5M211.5 404.5L213.5 488L227 488L213.5 543.5L180 545L176.265 406.5M211.5 404.5L176.265 406.5M169.995 611.309L169.5 567.5L215.5 567M169.995 611.309L215.5 609.274M215.5 609.274L277.5 606.5C277.678 599.039 278.363 586.117 279.577 572M215.5 609.274L215.5 567M279.577 572C280.297 563.624 281.203 554.827 282.3 546.5M243.405 539.5L282.3 546.5M282.3 546.5C282.823 542.527 283.39 538.662 284 535C284.937 529.378 286.071 523.865 287.353 518.5M287.353 518.5C289.363 510.088 291.736 502.039 294.283 494.5M259 479.712L294.283 494.5M300.247 310L351.5 269.5L373 296.5L317.367 334.5M300.247 310L317.367 334.5" stroke="#7A7A7A" stroke-width="3"/>
<line x1="136" y1="372.5" x2="167" y2="372.5" stroke="#7A7A7A" stroke-width="3"/>
<line x1="135" y1="313.5" x2="166" y2="313.5" stroke="#7A7A7A" stroke-width="3"/>
<path opacity="0.7" d="M174.064 48.791V49.2627C174.064 50.0192 173.962 50.6982 173.757 51.2998C173.552 51.9014 173.262 52.4141 172.889 52.8379C172.515 53.2572 172.068 53.5785 171.549 53.8018C171.034 54.0251 170.462 54.1367 169.833 54.1367C169.209 54.1367 168.637 54.0251 168.117 53.8018C167.602 53.5785 167.156 53.2572 166.777 52.8379C166.399 52.4141 166.105 51.9014 165.896 51.2998C165.69 50.6982 165.588 50.0192 165.588 49.2627V48.791C165.588 48.0299 165.69 47.3509 165.896 46.7539C166.101 46.1523 166.39 45.6396 166.764 45.2158C167.142 44.792 167.589 44.4684 168.104 44.2451C168.623 44.0218 169.195 43.9102 169.819 43.9102C170.448 43.9102 171.02 44.0218 171.535 44.2451C172.055 44.4684 172.501 44.792 172.875 45.2158C173.253 45.6396 173.545 46.1523 173.75 46.7539C173.96 47.3509 174.064 48.0299 174.064 48.791ZM171.993 49.2627V48.7773C171.993 48.2487 171.945 47.7839 171.85 47.3828C171.754 46.9818 171.613 46.6445 171.426 46.3711C171.239 46.0977 171.011 45.8926 170.742 45.7559C170.473 45.6146 170.166 45.5439 169.819 45.5439C169.473 45.5439 169.165 45.6146 168.896 45.7559C168.632 45.8926 168.407 46.0977 168.22 46.3711C168.037 46.6445 167.898 46.9818 167.803 47.3828C167.707 47.7839 167.659 48.2487 167.659 48.7773V49.2627C167.659 49.7868 167.707 50.2516 167.803 50.6572C167.898 51.0583 168.04 51.3978 168.227 51.6758C168.413 51.9492 168.641 52.1566 168.91 52.2979C169.179 52.4391 169.487 52.5098 169.833 52.5098C170.179 52.5098 170.487 52.4391 170.756 52.2979C171.025 52.1566 171.25 51.9492 171.433 51.6758C171.615 51.3978 171.754 51.0583 171.85 50.6572C171.945 50.2516 171.993 49.7868 171.993 49.2627ZM177.387 48.0254V56.8438H175.418V46.6035H177.243L177.387 48.0254ZM182.069 50.2197V50.3633C182.069 50.901 182.006 51.4001 181.878 51.8604C181.755 52.3206 181.573 52.7217 181.331 53.0635C181.09 53.4007 180.789 53.665 180.429 53.8564C180.073 54.0433 179.663 54.1367 179.198 54.1367C178.747 54.1367 178.355 54.0456 178.022 53.8633C177.69 53.681 177.41 53.4258 177.182 53.0977C176.958 52.765 176.778 52.3799 176.642 51.9424C176.505 51.5049 176.4 51.0355 176.327 50.5342V50.1582C176.4 49.6204 176.505 49.1283 176.642 48.6816C176.778 48.2305 176.958 47.8408 177.182 47.5127C177.41 47.18 177.688 46.9225 178.016 46.7402C178.348 46.5579 178.738 46.4668 179.185 46.4668C179.654 46.4668 180.066 46.5557 180.422 46.7334C180.782 46.9111 181.083 47.1663 181.324 47.499C181.57 47.8317 181.755 48.2282 181.878 48.6885C182.006 49.1488 182.069 49.6592 182.069 50.2197ZM180.094 50.3633V50.2197C180.094 49.9053 180.066 49.6159 180.012 49.3516C179.962 49.0827 179.88 48.848 179.766 48.6475C179.656 48.4469 179.51 48.292 179.328 48.1826C179.15 48.0687 178.934 48.0117 178.679 48.0117C178.41 48.0117 178.18 48.055 177.988 48.1416C177.801 48.2282 177.649 48.3535 177.53 48.5176C177.412 48.6816 177.323 48.8776 177.264 49.1055C177.204 49.3333 177.168 49.5908 177.154 49.8779V50.8281C177.177 51.1654 177.241 51.4684 177.346 51.7373C177.451 52.0016 177.612 52.2113 177.831 52.3662C178.05 52.5212 178.337 52.5986 178.692 52.5986C178.952 52.5986 179.171 52.5417 179.349 52.4277C179.526 52.3092 179.67 52.1475 179.779 51.9424C179.893 51.7373 179.973 51.5003 180.019 51.2314C180.069 50.9626 180.094 50.6732 180.094 50.3633ZM185.262 48.0254V56.8438H183.293V46.6035H185.118L185.262 48.0254ZM189.944 50.2197V50.3633C189.944 50.901 189.881 51.4001 189.753 51.8604C189.63 52.3206 189.448 52.7217 189.206 53.0635C188.965 53.4007 188.664 53.665 188.304 53.8564C187.948 54.0433 187.538 54.1367 187.073 54.1367C186.622 54.1367 186.23 54.0456 185.897 53.8633C185.565 53.681 185.285 53.4258 185.057 53.0977C184.833 52.765 184.653 52.3799 184.517 51.9424C184.38 51.5049 184.275 51.0355 184.202 50.5342V50.1582C184.275 49.6204 184.38 49.1283 184.517 48.6816C184.653 48.2305 184.833 47.8408 185.057 47.5127C185.285 47.18 185.562 46.9225 185.891 46.7402C186.223 46.5579 186.613 46.4668 187.06 46.4668C187.529 46.4668 187.941 46.5557 188.297 46.7334C188.657 46.9111 188.958 47.1663 189.199 47.499C189.445 47.8317 189.63 48.2282 189.753 48.6885C189.881 49.1488 189.944 49.6592 189.944 50.2197ZM187.969 50.3633V50.2197C187.969 49.9053 187.941 49.6159 187.887 49.3516C187.837 49.0827 187.755 48.848 187.641 48.6475C187.531 48.4469 187.385 48.292 187.203 48.1826C187.025 48.0687 186.809 48.0117 186.554 48.0117C186.285 48.0117 186.055 48.055 185.863 48.1416C185.676 48.2282 185.524 48.3535 185.405 48.5176C185.287 48.6816 185.198 48.8776 185.139 49.1055C185.079 49.3333 185.043 49.5908 185.029 49.8779V50.8281C185.052 51.1654 185.116 51.4684 185.221 51.7373C185.326 52.0016 185.487 52.2113 185.706 52.3662C185.925 52.5212 186.212 52.5986 186.567 52.5986C186.827 52.5986 187.046 52.5417 187.224 52.4277C187.401 52.3092 187.545 52.1475 187.654 51.9424C187.768 51.7373 187.848 51.5003 187.894 51.2314C187.944 50.9626 187.969 50.6732 187.969 50.3633ZM190.854 50.377V50.2334C190.854 49.6911 190.931 49.1921 191.086 48.7363C191.241 48.276 191.466 47.8773 191.763 47.54C192.059 47.2028 192.424 46.9408 192.856 46.7539C193.289 46.5625 193.786 46.4668 194.347 46.4668C194.907 46.4668 195.406 46.5625 195.844 46.7539C196.281 46.9408 196.648 47.2028 196.944 47.54C197.245 47.8773 197.473 48.276 197.628 48.7363C197.783 49.1921 197.86 49.6911 197.86 50.2334V50.377C197.86 50.9147 197.783 51.4137 197.628 51.874C197.473 52.3298 197.245 52.7285 196.944 53.0703C196.648 53.4076 196.284 53.6696 195.851 53.8564C195.418 54.0433 194.921 54.1367 194.36 54.1367C193.8 54.1367 193.301 54.0433 192.863 53.8564C192.43 53.6696 192.063 53.4076 191.763 53.0703C191.466 52.7285 191.241 52.3298 191.086 51.874C190.931 51.4137 190.854 50.9147 190.854 50.377ZM192.822 50.2334V50.377C192.822 50.6868 192.85 50.9762 192.904 51.2451C192.959 51.514 193.046 51.751 193.164 51.9561C193.287 52.1566 193.447 52.3138 193.643 52.4277C193.839 52.5417 194.078 52.5986 194.36 52.5986C194.634 52.5986 194.868 52.5417 195.064 52.4277C195.26 52.3138 195.418 52.1566 195.536 51.9561C195.655 51.751 195.741 51.514 195.796 51.2451C195.855 50.9762 195.885 50.6868 195.885 50.377V50.2334C195.885 49.9326 195.855 49.6501 195.796 49.3857C195.741 49.1169 195.652 48.8799 195.529 48.6748C195.411 48.4652 195.254 48.3011 195.058 48.1826C194.862 48.0641 194.625 48.0049 194.347 48.0049C194.069 48.0049 193.832 48.0641 193.636 48.1826C193.444 48.3011 193.287 48.4652 193.164 48.6748C193.046 48.8799 192.959 49.1169 192.904 49.3857C192.85 49.6501 192.822 49.9326 192.822 50.2334ZM201.039 48.2168V54H199.07V46.6035H200.923L201.039 48.2168ZM203.268 46.5557L203.233 48.3809C203.138 48.3672 203.021 48.3558 202.885 48.3467C202.753 48.333 202.632 48.3262 202.522 48.3262C202.244 48.3262 202.003 48.3626 201.798 48.4355C201.597 48.5039 201.429 48.6064 201.292 48.7432C201.16 48.8799 201.06 49.0462 200.991 49.2422C200.927 49.4382 200.891 49.6615 200.882 49.9121L200.485 49.7891C200.485 49.3105 200.533 48.8708 200.629 48.4697C200.725 48.0641 200.864 47.7109 201.046 47.4102C201.233 47.1094 201.461 46.877 201.729 46.7129C201.998 46.5488 202.306 46.4668 202.652 46.4668C202.762 46.4668 202.873 46.4759 202.987 46.4941C203.101 46.5078 203.195 46.5283 203.268 46.5557ZM208.162 46.6035V47.998H203.855V46.6035H208.162ZM204.922 44.7783H206.891V51.7715C206.891 51.9857 206.918 52.1497 206.973 52.2637C207.032 52.3776 207.118 52.4574 207.232 52.5029C207.346 52.5439 207.49 52.5645 207.663 52.5645C207.786 52.5645 207.896 52.5599 207.991 52.5508C208.091 52.5371 208.176 52.5234 208.244 52.5098L208.251 53.959C208.082 54.0137 207.9 54.057 207.704 54.0889C207.508 54.1208 207.292 54.1367 207.055 54.1367C206.622 54.1367 206.243 54.0661 205.92 53.9248C205.601 53.779 205.355 53.5465 205.182 53.2275C205.008 52.9085 204.922 52.4893 204.922 51.9697V44.7783ZM213.658 52.2295V46.6035H215.627V54H213.774L213.658 52.2295ZM213.877 50.7119L214.458 50.6982C214.458 51.1904 214.401 51.6484 214.287 52.0723C214.173 52.4915 214.002 52.8561 213.774 53.166C213.547 53.4714 213.259 53.7106 212.913 53.8838C212.567 54.0524 212.159 54.1367 211.689 54.1367C211.329 54.1367 210.997 54.0866 210.691 53.9863C210.391 53.8815 210.131 53.7197 209.912 53.501C209.698 53.2777 209.529 52.9928 209.406 52.6465C209.288 52.2956 209.229 51.874 209.229 51.3818V46.6035H211.197V51.3955C211.197 51.6143 211.222 51.7988 211.272 51.9492C211.327 52.0996 211.402 52.2227 211.498 52.3184C211.594 52.4141 211.705 52.4824 211.833 52.5234C211.965 52.5645 212.111 52.585 212.271 52.585C212.676 52.585 212.995 52.5029 213.228 52.3389C213.465 52.1748 213.631 51.9515 213.727 51.6689C213.827 51.3818 213.877 51.0628 213.877 50.7119ZM219.059 48.1826V54H217.09V46.6035H218.936L219.059 48.1826ZM218.771 50.042H218.238C218.238 49.4951 218.309 49.0029 218.45 48.5654C218.591 48.1234 218.79 47.7474 219.045 47.4375C219.3 47.123 219.603 46.8838 219.954 46.7197C220.31 46.5511 220.706 46.4668 221.144 46.4668C221.49 46.4668 221.807 46.5169 222.094 46.6172C222.381 46.7174 222.627 46.877 222.832 47.0957C223.042 47.3145 223.201 47.6038 223.311 47.9639C223.424 48.3239 223.481 48.7637 223.481 49.2832V54H221.499V49.2764C221.499 48.9482 221.453 48.693 221.362 48.5107C221.271 48.3285 221.137 48.2008 220.959 48.1279C220.786 48.0505 220.572 48.0117 220.316 48.0117C220.052 48.0117 219.822 48.0641 219.626 48.1689C219.435 48.2738 219.275 48.4196 219.147 48.6064C219.024 48.7887 218.931 49.0029 218.867 49.249C218.803 49.4951 218.771 49.7594 218.771 50.042ZM227.057 46.6035V54H225.081V46.6035H227.057ZM224.958 44.6758C224.958 44.3887 225.058 44.1517 225.259 43.9648C225.459 43.778 225.728 43.6846 226.065 43.6846C226.398 43.6846 226.665 43.778 226.865 43.9648C227.07 44.1517 227.173 44.3887 227.173 44.6758C227.173 44.9629 227.07 45.1999 226.865 45.3867C226.665 45.5736 226.398 45.667 226.065 45.667C225.728 45.667 225.459 45.5736 225.259 45.3867C225.058 45.1999 224.958 44.9629 224.958 44.6758ZM232.307 46.6035V47.998H228V46.6035H232.307ZM229.066 44.7783H231.035V51.7715C231.035 51.9857 231.062 52.1497 231.117 52.2637C231.176 52.3776 231.263 52.4574 231.377 52.5029C231.491 52.5439 231.634 52.5645 231.808 52.5645C231.931 52.5645 232.04 52.5599 232.136 52.5508C232.236 52.5371 232.32 52.5234 232.389 52.5098L232.396 53.959C232.227 54.0137 232.045 54.057 231.849 54.0889C231.653 54.1208 231.436 54.1367 231.199 54.1367C230.766 54.1367 230.388 54.0661 230.064 53.9248C229.745 53.779 229.499 53.5465 229.326 53.2275C229.153 52.9085 229.066 52.4893 229.066 51.9697V44.7783ZM235.622 53.166L237.584 46.6035H239.696L236.723 55.1143C236.659 55.3011 236.572 55.5016 236.463 55.7158C236.358 55.93 236.215 56.1328 236.032 56.3242C235.854 56.5202 235.629 56.6797 235.355 56.8027C235.087 56.9258 234.756 56.9873 234.364 56.9873C234.177 56.9873 234.025 56.9759 233.906 56.9531C233.788 56.9303 233.646 56.8984 233.482 56.8574V55.415C233.533 55.415 233.585 55.415 233.64 55.415C233.694 55.4196 233.747 55.4219 233.797 55.4219C234.057 55.4219 234.269 55.3923 234.433 55.333C234.597 55.2738 234.729 55.1826 234.829 55.0596C234.929 54.9411 235.009 54.7861 235.068 54.5947L235.622 53.166ZM234.802 46.6035L236.408 51.9629L236.688 54.0479L235.349 54.1914L232.689 46.6035H234.802Z" fill="black"/>
<path opacity="0.7" d="M225.064 117.791V118.263C225.064 119.019 224.962 119.698 224.757 120.3C224.552 120.901 224.262 121.414 223.889 121.838C223.515 122.257 223.068 122.578 222.549 122.802C222.034 123.025 221.462 123.137 220.833 123.137C220.209 123.137 219.637 123.025 219.117 122.802C218.602 122.578 218.156 122.257 217.777 121.838C217.399 121.414 217.105 120.901 216.896 120.3C216.69 119.698 216.588 119.019 216.588 118.263V117.791C216.588 117.03 216.69 116.351 216.896 115.754C217.101 115.152 217.39 114.64 217.764 114.216C218.142 113.792 218.589 113.468 219.104 113.245C219.623 113.022 220.195 112.91 220.819 112.91C221.448 112.91 222.02 113.022 222.535 113.245C223.055 113.468 223.501 113.792 223.875 114.216C224.253 114.64 224.545 115.152 224.75 115.754C224.96 116.351 225.064 117.03 225.064 117.791ZM222.993 118.263V117.777C222.993 117.249 222.945 116.784 222.85 116.383C222.754 115.982 222.613 115.645 222.426 115.371C222.239 115.098 222.011 114.893 221.742 114.756C221.473 114.615 221.166 114.544 220.819 114.544C220.473 114.544 220.165 114.615 219.896 114.756C219.632 114.893 219.407 115.098 219.22 115.371C219.037 115.645 218.898 115.982 218.803 116.383C218.707 116.784 218.659 117.249 218.659 117.777V118.263C218.659 118.787 218.707 119.252 218.803 119.657C218.898 120.058 219.04 120.398 219.227 120.676C219.413 120.949 219.641 121.157 219.91 121.298C220.179 121.439 220.487 121.51 220.833 121.51C221.179 121.51 221.487 121.439 221.756 121.298C222.025 121.157 222.25 120.949 222.433 120.676C222.615 120.398 222.754 120.058 222.85 119.657C222.945 119.252 222.993 118.787 222.993 118.263ZM228.387 117.025V125.844H226.418V115.604H228.243L228.387 117.025ZM233.069 119.22V119.363C233.069 119.901 233.006 120.4 232.878 120.86C232.755 121.321 232.573 121.722 232.331 122.063C232.09 122.401 231.789 122.665 231.429 122.856C231.073 123.043 230.663 123.137 230.198 123.137C229.747 123.137 229.355 123.046 229.022 122.863C228.69 122.681 228.41 122.426 228.182 122.098C227.958 121.765 227.778 121.38 227.642 120.942C227.505 120.505 227.4 120.035 227.327 119.534V119.158C227.4 118.62 227.505 118.128 227.642 117.682C227.778 117.23 227.958 116.841 228.182 116.513C228.41 116.18 228.688 115.923 229.016 115.74C229.348 115.558 229.738 115.467 230.185 115.467C230.654 115.467 231.066 115.556 231.422 115.733C231.782 115.911 232.083 116.166 232.324 116.499C232.57 116.832 232.755 117.228 232.878 117.688C233.006 118.149 233.069 118.659 233.069 119.22ZM231.094 119.363V119.22C231.094 118.905 231.066 118.616 231.012 118.352C230.962 118.083 230.88 117.848 230.766 117.647C230.656 117.447 230.51 117.292 230.328 117.183C230.15 117.069 229.934 117.012 229.679 117.012C229.41 117.012 229.18 117.055 228.988 117.142C228.801 117.228 228.649 117.354 228.53 117.518C228.412 117.682 228.323 117.878 228.264 118.105C228.204 118.333 228.168 118.591 228.154 118.878V119.828C228.177 120.165 228.241 120.468 228.346 120.737C228.451 121.002 228.612 121.211 228.831 121.366C229.05 121.521 229.337 121.599 229.692 121.599C229.952 121.599 230.171 121.542 230.349 121.428C230.526 121.309 230.67 121.147 230.779 120.942C230.893 120.737 230.973 120.5 231.019 120.231C231.069 119.963 231.094 119.673 231.094 119.363ZM236.262 117.025V125.844H234.293V115.604H236.118L236.262 117.025ZM240.944 119.22V119.363C240.944 119.901 240.881 120.4 240.753 120.86C240.63 121.321 240.448 121.722 240.206 122.063C239.965 122.401 239.664 122.665 239.304 122.856C238.948 123.043 238.538 123.137 238.073 123.137C237.622 123.137 237.23 123.046 236.897 122.863C236.565 122.681 236.285 122.426 236.057 122.098C235.833 121.765 235.653 121.38 235.517 120.942C235.38 120.505 235.275 120.035 235.202 119.534V119.158C235.275 118.62 235.38 118.128 235.517 117.682C235.653 117.23 235.833 116.841 236.057 116.513C236.285 116.18 236.562 115.923 236.891 115.74C237.223 115.558 237.613 115.467 238.06 115.467C238.529 115.467 238.941 115.556 239.297 115.733C239.657 115.911 239.958 116.166 240.199 116.499C240.445 116.832 240.63 117.228 240.753 117.688C240.881 118.149 240.944 118.659 240.944 119.22ZM238.969 119.363V119.22C238.969 118.905 238.941 118.616 238.887 118.352C238.837 118.083 238.755 117.848 238.641 117.647C238.531 117.447 238.385 117.292 238.203 117.183C238.025 117.069 237.809 117.012 237.554 117.012C237.285 117.012 237.055 117.055 236.863 117.142C236.676 117.228 236.524 117.354 236.405 117.518C236.287 117.682 236.198 117.878 236.139 118.105C236.079 118.333 236.043 118.591 236.029 118.878V119.828C236.052 120.165 236.116 120.468 236.221 120.737C236.326 121.002 236.487 121.211 236.706 121.366C236.925 121.521 237.212 121.599 237.567 121.599C237.827 121.599 238.046 121.542 238.224 121.428C238.401 121.309 238.545 121.147 238.654 120.942C238.768 120.737 238.848 120.5 238.894 120.231C238.944 119.963 238.969 119.673 238.969 119.363ZM241.854 119.377V119.233C241.854 118.691 241.931 118.192 242.086 117.736C242.241 117.276 242.466 116.877 242.763 116.54C243.059 116.203 243.424 115.941 243.856 115.754C244.289 115.562 244.786 115.467 245.347 115.467C245.907 115.467 246.406 115.562 246.844 115.754C247.281 115.941 247.648 116.203 247.944 116.54C248.245 116.877 248.473 117.276 248.628 117.736C248.783 118.192 248.86 118.691 248.86 119.233V119.377C248.86 119.915 248.783 120.414 248.628 120.874C248.473 121.33 248.245 121.729 247.944 122.07C247.648 122.408 247.284 122.67 246.851 122.856C246.418 123.043 245.921 123.137 245.36 123.137C244.8 123.137 244.301 123.043 243.863 122.856C243.43 122.67 243.063 122.408 242.763 122.07C242.466 121.729 242.241 121.33 242.086 120.874C241.931 120.414 241.854 119.915 241.854 119.377ZM243.822 119.233V119.377C243.822 119.687 243.85 119.976 243.904 120.245C243.959 120.514 244.046 120.751 244.164 120.956C244.287 121.157 244.447 121.314 244.643 121.428C244.839 121.542 245.078 121.599 245.36 121.599C245.634 121.599 245.868 121.542 246.064 121.428C246.26 121.314 246.418 121.157 246.536 120.956C246.655 120.751 246.741 120.514 246.796 120.245C246.855 119.976 246.885 119.687 246.885 119.377V119.233C246.885 118.933 246.855 118.65 246.796 118.386C246.741 118.117 246.652 117.88 246.529 117.675C246.411 117.465 246.254 117.301 246.058 117.183C245.862 117.064 245.625 117.005 245.347 117.005C245.069 117.005 244.832 117.064 244.636 117.183C244.444 117.301 244.287 117.465 244.164 117.675C244.046 117.88 243.959 118.117 243.904 118.386C243.85 118.65 243.822 118.933 243.822 119.233ZM252.039 117.217V123H250.07V115.604H251.923L252.039 117.217ZM254.268 115.556L254.233 117.381C254.138 117.367 254.021 117.356 253.885 117.347C253.753 117.333 253.632 117.326 253.522 117.326C253.244 117.326 253.003 117.363 252.798 117.436C252.597 117.504 252.429 117.606 252.292 117.743C252.16 117.88 252.06 118.046 251.991 118.242C251.927 118.438 251.891 118.661 251.882 118.912L251.485 118.789C251.485 118.311 251.533 117.871 251.629 117.47C251.725 117.064 251.864 116.711 252.046 116.41C252.233 116.109 252.461 115.877 252.729 115.713C252.998 115.549 253.306 115.467 253.652 115.467C253.762 115.467 253.873 115.476 253.987 115.494C254.101 115.508 254.195 115.528 254.268 115.556ZM259.162 115.604V116.998H254.855V115.604H259.162ZM255.922 113.778H257.891V120.771C257.891 120.986 257.918 121.15 257.973 121.264C258.032 121.378 258.118 121.457 258.232 121.503C258.346 121.544 258.49 121.564 258.663 121.564C258.786 121.564 258.896 121.56 258.991 121.551C259.091 121.537 259.176 121.523 259.244 121.51L259.251 122.959C259.082 123.014 258.9 123.057 258.704 123.089C258.508 123.121 258.292 123.137 258.055 123.137C257.622 123.137 257.243 123.066 256.92 122.925C256.601 122.779 256.355 122.547 256.182 122.228C256.008 121.909 255.922 121.489 255.922 120.97V113.778ZM264.658 121.229V115.604H266.627V123H264.774L264.658 121.229ZM264.877 119.712L265.458 119.698C265.458 120.19 265.401 120.648 265.287 121.072C265.173 121.492 265.002 121.856 264.774 122.166C264.547 122.471 264.259 122.711 263.913 122.884C263.567 123.052 263.159 123.137 262.689 123.137C262.329 123.137 261.997 123.087 261.691 122.986C261.391 122.882 261.131 122.72 260.912 122.501C260.698 122.278 260.529 121.993 260.406 121.646C260.288 121.296 260.229 120.874 260.229 120.382V115.604H262.197V120.396C262.197 120.614 262.222 120.799 262.272 120.949C262.327 121.1 262.402 121.223 262.498 121.318C262.594 121.414 262.705 121.482 262.833 121.523C262.965 121.564 263.111 121.585 263.271 121.585C263.676 121.585 263.995 121.503 264.228 121.339C264.465 121.175 264.631 120.951 264.727 120.669C264.827 120.382 264.877 120.063 264.877 119.712ZM270.059 117.183V123H268.09V115.604H269.936L270.059 117.183ZM269.771 119.042H269.238C269.238 118.495 269.309 118.003 269.45 117.565C269.591 117.123 269.79 116.747 270.045 116.438C270.3 116.123 270.603 115.884 270.954 115.72C271.31 115.551 271.706 115.467 272.144 115.467C272.49 115.467 272.807 115.517 273.094 115.617C273.381 115.717 273.627 115.877 273.832 116.096C274.042 116.314 274.201 116.604 274.311 116.964C274.424 117.324 274.481 117.764 274.481 118.283V123H272.499V118.276C272.499 117.948 272.453 117.693 272.362 117.511C272.271 117.328 272.137 117.201 271.959 117.128C271.786 117.05 271.572 117.012 271.316 117.012C271.052 117.012 270.822 117.064 270.626 117.169C270.435 117.274 270.275 117.42 270.147 117.606C270.024 117.789 269.931 118.003 269.867 118.249C269.803 118.495 269.771 118.759 269.771 119.042ZM278.057 115.604V123H276.081V115.604H278.057ZM275.958 113.676C275.958 113.389 276.058 113.152 276.259 112.965C276.459 112.778 276.728 112.685 277.065 112.685C277.398 112.685 277.665 112.778 277.865 112.965C278.07 113.152 278.173 113.389 278.173 113.676C278.173 113.963 278.07 114.2 277.865 114.387C277.665 114.574 277.398 114.667 277.065 114.667C276.728 114.667 276.459 114.574 276.259 114.387C276.058 114.2 275.958 113.963 275.958 113.676ZM283.307 115.604V116.998H279V115.604H283.307ZM280.066 113.778H282.035V120.771C282.035 120.986 282.062 121.15 282.117 121.264C282.176 121.378 282.263 121.457 282.377 121.503C282.491 121.544 282.634 121.564 282.808 121.564C282.931 121.564 283.04 121.56 283.136 121.551C283.236 121.537 283.32 121.523 283.389 121.51L283.396 122.959C283.227 123.014 283.045 123.057 282.849 123.089C282.653 123.121 282.436 123.137 282.199 123.137C281.766 123.137 281.388 123.066 281.064 122.925C280.745 122.779 280.499 122.547 280.326 122.228C280.153 121.909 280.066 121.489 280.066 120.97V113.778ZM286.622 122.166L288.584 115.604H290.696L287.723 124.114C287.659 124.301 287.572 124.502 287.463 124.716C287.358 124.93 287.215 125.133 287.032 125.324C286.854 125.52 286.629 125.68 286.355 125.803C286.087 125.926 285.756 125.987 285.364 125.987C285.177 125.987 285.025 125.976 284.906 125.953C284.788 125.93 284.646 125.898 284.482 125.857V124.415C284.533 124.415 284.585 124.415 284.64 124.415C284.694 124.42 284.747 124.422 284.797 124.422C285.057 124.422 285.269 124.392 285.433 124.333C285.597 124.274 285.729 124.183 285.829 124.06C285.929 123.941 286.009 123.786 286.068 123.595L286.622 122.166ZM285.802 115.604L287.408 120.963L287.688 123.048L286.349 123.191L283.689 115.604H285.802Z" fill="black"/>
<path opacity="0.7" d="M282.064 185.791V186.263C282.064 187.019 281.962 187.698 281.757 188.3C281.552 188.901 281.262 189.414 280.889 189.838C280.515 190.257 280.068 190.578 279.549 190.802C279.034 191.025 278.462 191.137 277.833 191.137C277.209 191.137 276.637 191.025 276.117 190.802C275.602 190.578 275.156 190.257 274.777 189.838C274.399 189.414 274.105 188.901 273.896 188.3C273.69 187.698 273.588 187.019 273.588 186.263V185.791C273.588 185.03 273.69 184.351 273.896 183.754C274.101 183.152 274.39 182.64 274.764 182.216C275.142 181.792 275.589 181.468 276.104 181.245C276.623 181.022 277.195 180.91 277.819 180.91C278.448 180.91 279.02 181.022 279.535 181.245C280.055 181.468 280.501 181.792 280.875 182.216C281.253 182.64 281.545 183.152 281.75 183.754C281.96 184.351 282.064 185.03 282.064 185.791ZM279.993 186.263V185.777C279.993 185.249 279.945 184.784 279.85 184.383C279.754 183.982 279.613 183.645 279.426 183.371C279.239 183.098 279.011 182.893 278.742 182.756C278.473 182.615 278.166 182.544 277.819 182.544C277.473 182.544 277.165 182.615 276.896 182.756C276.632 182.893 276.407 183.098 276.22 183.371C276.037 183.645 275.898 183.982 275.803 184.383C275.707 184.784 275.659 185.249 275.659 185.777V186.263C275.659 186.787 275.707 187.252 275.803 187.657C275.898 188.058 276.04 188.398 276.227 188.676C276.413 188.949 276.641 189.157 276.91 189.298C277.179 189.439 277.487 189.51 277.833 189.51C278.179 189.51 278.487 189.439 278.756 189.298C279.025 189.157 279.25 188.949 279.433 188.676C279.615 188.398 279.754 188.058 279.85 187.657C279.945 187.252 279.993 186.787 279.993 186.263ZM285.927 191H283.944V182.947C283.944 182.387 284.054 181.915 284.272 181.532C284.496 181.145 284.808 180.853 285.209 180.657C285.615 180.457 286.095 180.356 286.651 180.356C286.834 180.356 287.009 180.37 287.178 180.397C287.346 180.42 287.51 180.45 287.67 180.486L287.649 181.97C287.563 181.947 287.472 181.931 287.376 181.922C287.28 181.913 287.169 181.908 287.041 181.908C286.804 181.908 286.601 181.949 286.433 182.031C286.269 182.109 286.143 182.225 286.057 182.38C285.97 182.535 285.927 182.724 285.927 182.947V191ZM287.424 183.604V184.998H282.844V183.604H287.424ZM290.356 191H288.388V183.269C288.388 182.64 288.515 182.109 288.771 181.676C289.026 181.243 289.395 180.915 289.878 180.691C290.361 180.468 290.942 180.356 291.621 180.356C292.008 180.356 292.384 180.395 292.749 180.473C293.114 180.546 293.49 180.641 293.877 180.76L293.597 182.339C293.346 182.261 293.075 182.188 292.783 182.12C292.496 182.052 292.15 182.018 291.744 182.018C291.288 182.018 290.942 182.125 290.705 182.339C290.473 182.549 290.356 182.858 290.356 183.269V191ZM291.826 183.604V184.998H287.28V183.604H291.826ZM294.8 183.604V191H292.817V183.604H294.8ZM299.489 189.599C299.731 189.599 299.945 189.553 300.132 189.462C300.319 189.366 300.465 189.234 300.569 189.065C300.679 188.892 300.736 188.689 300.74 188.457H302.593C302.588 188.977 302.449 189.439 302.176 189.845C301.902 190.246 301.535 190.562 301.075 190.795C300.615 191.023 300.1 191.137 299.53 191.137C298.956 191.137 298.455 191.041 298.026 190.85C297.603 190.658 297.249 190.394 296.967 190.057C296.684 189.715 296.472 189.318 296.331 188.867C296.19 188.411 296.119 187.924 296.119 187.404V187.206C296.119 186.682 296.19 186.194 296.331 185.743C296.472 185.287 296.684 184.891 296.967 184.554C297.249 184.212 297.603 183.945 298.026 183.754C298.45 183.562 298.947 183.467 299.517 183.467C300.123 183.467 300.654 183.583 301.109 183.815C301.57 184.048 301.93 184.381 302.189 184.813C302.454 185.242 302.588 185.75 302.593 186.338H300.74C300.736 186.092 300.683 185.868 300.583 185.668C300.487 185.467 300.346 185.308 300.159 185.189C299.977 185.066 299.751 185.005 299.482 185.005C299.195 185.005 298.961 185.066 298.778 185.189C298.596 185.308 298.455 185.472 298.354 185.682C298.254 185.887 298.184 186.121 298.143 186.386C298.106 186.646 298.088 186.919 298.088 187.206V187.404C298.088 187.691 298.106 187.967 298.143 188.231C298.179 188.496 298.247 188.73 298.348 188.936C298.452 189.141 298.596 189.302 298.778 189.421C298.961 189.539 299.198 189.599 299.489 189.599ZM307.139 191.137C306.564 191.137 306.049 191.046 305.594 190.863C305.138 190.676 304.751 190.419 304.432 190.091C304.117 189.763 303.876 189.382 303.707 188.949C303.538 188.512 303.454 188.047 303.454 187.555V187.281C303.454 186.721 303.534 186.208 303.693 185.743C303.853 185.278 304.081 184.875 304.377 184.533C304.678 184.191 305.042 183.929 305.471 183.747C305.899 183.56 306.382 183.467 306.92 183.467C307.444 183.467 307.909 183.553 308.314 183.727C308.72 183.9 309.06 184.146 309.333 184.465C309.611 184.784 309.821 185.167 309.962 185.613C310.103 186.055 310.174 186.548 310.174 187.09V187.91H304.295V186.598H308.239V186.447C308.239 186.174 308.189 185.93 308.089 185.716C307.993 185.497 307.847 185.324 307.651 185.196C307.455 185.069 307.205 185.005 306.899 185.005C306.64 185.005 306.416 185.062 306.229 185.176C306.043 185.29 305.89 185.449 305.771 185.654C305.658 185.859 305.571 186.101 305.512 186.379C305.457 186.652 305.43 186.953 305.43 187.281V187.555C305.43 187.851 305.471 188.124 305.553 188.375C305.639 188.626 305.76 188.842 305.915 189.024C306.075 189.207 306.266 189.348 306.489 189.448C306.717 189.549 306.975 189.599 307.262 189.599C307.617 189.599 307.948 189.53 308.253 189.394C308.563 189.252 308.829 189.04 309.053 188.758L310.01 189.797C309.855 190.02 309.643 190.234 309.374 190.439C309.11 190.645 308.791 190.813 308.417 190.945C308.043 191.073 307.617 191.137 307.139 191.137ZM316.347 185.675L318.261 184.438C318.543 184.251 318.732 184.071 318.828 183.897C318.924 183.724 318.972 183.531 318.972 183.316C318.972 183.102 318.892 182.904 318.732 182.722C318.573 182.535 318.35 182.441 318.062 182.441C317.857 182.441 317.684 182.489 317.543 182.585C317.402 182.676 317.295 182.799 317.222 182.954C317.153 183.109 317.119 183.282 317.119 183.474C317.119 183.679 317.174 183.888 317.283 184.103C317.393 184.312 317.541 184.535 317.728 184.772C317.914 185.005 318.122 185.258 318.35 185.531L323.046 191H320.811L316.982 186.57C316.659 186.169 316.376 185.802 316.135 185.47C315.893 185.132 315.704 184.804 315.567 184.485C315.431 184.166 315.362 183.838 315.362 183.501C315.362 182.981 315.474 182.528 315.697 182.141C315.921 181.749 316.235 181.446 316.641 181.231C317.046 181.013 317.522 180.903 318.069 180.903C318.584 180.903 319.031 181.01 319.409 181.225C319.787 181.434 320.079 181.712 320.284 182.059C320.494 182.405 320.599 182.785 320.599 183.2C320.599 183.51 320.542 183.797 320.428 184.062C320.314 184.321 320.157 184.563 319.956 184.786C319.756 185.005 319.525 185.208 319.266 185.395L317.085 186.946C316.916 187.101 316.789 187.254 316.702 187.404C316.616 187.555 316.556 187.698 316.524 187.835C316.493 187.967 316.477 188.095 316.477 188.218C316.477 188.482 316.534 188.719 316.647 188.929C316.761 189.138 316.921 189.302 317.126 189.421C317.331 189.539 317.57 189.599 317.844 189.599C318.217 189.599 318.58 189.517 318.931 189.353C319.282 189.188 319.596 188.954 319.874 188.648C320.152 188.339 320.373 187.972 320.537 187.548C320.701 187.124 320.783 186.657 320.783 186.146H322.451C322.451 186.657 322.401 187.142 322.301 187.603C322.201 188.058 322.039 188.482 321.815 188.874C321.592 189.261 321.296 189.605 320.927 189.906C320.899 189.929 320.861 189.963 320.811 190.009C320.765 190.05 320.726 190.082 320.694 190.104C320.257 190.455 319.801 190.717 319.327 190.891C318.853 191.059 318.325 191.144 317.741 191.144C317.076 191.144 316.499 191.023 316.012 190.781C315.529 190.54 315.155 190.207 314.891 189.783C314.631 189.359 314.501 188.874 314.501 188.327C314.501 187.926 314.578 187.577 314.733 187.281C314.893 186.98 315.112 186.702 315.39 186.447C315.668 186.192 315.987 185.935 316.347 185.675ZM329.786 181.047V191H327.742V181.047H329.786ZM337.477 187.698H339.521C339.479 188.368 339.295 188.963 338.967 189.482C338.643 190.002 338.19 190.408 337.606 190.699C337.028 190.991 336.33 191.137 335.515 191.137C334.877 191.137 334.305 191.027 333.799 190.809C333.293 190.585 332.86 190.266 332.5 189.852C332.145 189.437 331.873 188.936 331.687 188.348C331.5 187.76 331.406 187.101 331.406 186.372V185.682C331.406 184.952 331.502 184.294 331.693 183.706C331.889 183.114 332.167 182.61 332.527 182.195C332.892 181.781 333.327 181.462 333.833 181.238C334.339 181.015 334.904 180.903 335.528 180.903C336.358 180.903 337.057 181.054 337.627 181.354C338.201 181.655 338.646 182.07 338.96 182.599C339.279 183.127 339.47 183.729 339.534 184.403H337.483C337.461 184.002 337.381 183.663 337.244 183.385C337.107 183.102 336.9 182.89 336.622 182.749C336.349 182.603 335.984 182.53 335.528 182.53C335.187 182.53 334.888 182.594 334.633 182.722C334.378 182.849 334.163 183.043 333.99 183.303C333.817 183.562 333.687 183.891 333.601 184.287C333.519 184.679 333.478 185.139 333.478 185.668V186.372C333.478 186.887 333.516 187.34 333.594 187.732C333.671 188.12 333.79 188.448 333.949 188.717C334.113 188.981 334.323 189.182 334.578 189.318C334.838 189.451 335.15 189.517 335.515 189.517C335.943 189.517 336.296 189.448 336.574 189.312C336.852 189.175 337.064 188.972 337.21 188.703C337.36 188.434 337.449 188.099 337.477 187.698ZM345.112 181.047V191H343.068V181.047H345.112ZM348.175 181.047V182.653H340.054V181.047H348.175Z" fill="black"/>
</g>
<path opacity="0.7" d="M395.064 232.791V233.263C395.064 234.019 394.962 234.698 394.757 235.3C394.552 235.901 394.262 236.414 393.889 236.838C393.515 237.257 393.068 237.578 392.549 237.802C392.034 238.025 391.462 238.137 390.833 238.137C390.209 238.137 389.637 238.025 389.117 237.802C388.602 237.578 388.156 237.257 387.777 236.838C387.399 236.414 387.105 235.901 386.896 235.3C386.69 234.698 386.588 234.019 386.588 233.263V232.791C386.588 232.03 386.69 231.351 386.896 230.754C387.101 230.152 387.39 229.64 387.764 229.216C388.142 228.792 388.589 228.468 389.104 228.245C389.623 228.022 390.195 227.91 390.819 227.91C391.448 227.91 392.02 228.022 392.535 228.245C393.055 228.468 393.501 228.792 393.875 229.216C394.253 229.64 394.545 230.152 394.75 230.754C394.96 231.351 395.064 232.03 395.064 232.791ZM392.993 233.263V232.777C392.993 232.249 392.945 231.784 392.85 231.383C392.754 230.982 392.613 230.645 392.426 230.371C392.239 230.098 392.011 229.893 391.742 229.756C391.473 229.615 391.166 229.544 390.819 229.544C390.473 229.544 390.165 229.615 389.896 229.756C389.632 229.893 389.407 230.098 389.22 230.371C389.037 230.645 388.898 230.982 388.803 231.383C388.707 231.784 388.659 232.249 388.659 232.777V233.263C388.659 233.787 388.707 234.252 388.803 234.657C388.898 235.058 389.04 235.398 389.227 235.676C389.413 235.949 389.641 236.157 389.91 236.298C390.179 236.439 390.487 236.51 390.833 236.51C391.179 236.51 391.487 236.439 391.756 236.298C392.025 236.157 392.25 235.949 392.433 235.676C392.615 235.398 392.754 235.058 392.85 234.657C392.945 234.252 392.993 233.787 392.993 233.263ZM398.927 238H396.944V229.947C396.944 229.387 397.054 228.915 397.272 228.532C397.496 228.145 397.808 227.853 398.209 227.657C398.615 227.457 399.095 227.356 399.651 227.356C399.834 227.356 400.009 227.37 400.178 227.397C400.346 227.42 400.51 227.45 400.67 227.486L400.649 228.97C400.563 228.947 400.472 228.931 400.376 228.922C400.28 228.913 400.169 228.908 400.041 228.908C399.804 228.908 399.601 228.949 399.433 229.031C399.269 229.109 399.143 229.225 399.057 229.38C398.97 229.535 398.927 229.724 398.927 229.947V238ZM400.424 230.604V231.998H395.844V230.604H400.424ZM403.356 238H401.388V230.269C401.388 229.64 401.515 229.109 401.771 228.676C402.026 228.243 402.395 227.915 402.878 227.691C403.361 227.468 403.942 227.356 404.621 227.356C405.008 227.356 405.384 227.395 405.749 227.473C406.114 227.546 406.49 227.641 406.877 227.76L406.597 229.339C406.346 229.261 406.075 229.188 405.783 229.12C405.496 229.052 405.15 229.018 404.744 229.018C404.288 229.018 403.942 229.125 403.705 229.339C403.473 229.549 403.356 229.858 403.356 230.269V238ZM404.826 230.604V231.998H400.28V230.604H404.826ZM407.8 230.604V238H405.817V230.604H407.8ZM412.489 236.599C412.731 236.599 412.945 236.553 413.132 236.462C413.319 236.366 413.465 236.234 413.569 236.065C413.679 235.892 413.736 235.689 413.74 235.457H415.593C415.588 235.977 415.449 236.439 415.176 236.845C414.902 237.246 414.535 237.562 414.075 237.795C413.615 238.023 413.1 238.137 412.53 238.137C411.956 238.137 411.455 238.041 411.026 237.85C410.603 237.658 410.249 237.394 409.967 237.057C409.684 236.715 409.472 236.318 409.331 235.867C409.19 235.411 409.119 234.924 409.119 234.404V234.206C409.119 233.682 409.19 233.194 409.331 232.743C409.472 232.287 409.684 231.891 409.967 231.554C410.249 231.212 410.603 230.945 411.026 230.754C411.45 230.562 411.947 230.467 412.517 230.467C413.123 230.467 413.654 230.583 414.109 230.815C414.57 231.048 414.93 231.381 415.189 231.813C415.454 232.242 415.588 232.75 415.593 233.338H413.74C413.736 233.092 413.683 232.868 413.583 232.668C413.487 232.467 413.346 232.308 413.159 232.189C412.977 232.066 412.751 232.005 412.482 232.005C412.195 232.005 411.961 232.066 411.778 232.189C411.596 232.308 411.455 232.472 411.354 232.682C411.254 232.887 411.184 233.121 411.143 233.386C411.106 233.646 411.088 233.919 411.088 234.206V234.404C411.088 234.691 411.106 234.967 411.143 235.231C411.179 235.496 411.247 235.73 411.348 235.936C411.452 236.141 411.596 236.302 411.778 236.421C411.961 236.539 412.198 236.599 412.489 236.599ZM420.139 238.137C419.564 238.137 419.049 238.046 418.594 237.863C418.138 237.676 417.751 237.419 417.432 237.091C417.117 236.763 416.876 236.382 416.707 235.949C416.538 235.512 416.454 235.047 416.454 234.555V234.281C416.454 233.721 416.534 233.208 416.693 232.743C416.853 232.278 417.081 231.875 417.377 231.533C417.678 231.191 418.042 230.929 418.471 230.747C418.899 230.56 419.382 230.467 419.92 230.467C420.444 230.467 420.909 230.553 421.314 230.727C421.72 230.9 422.06 231.146 422.333 231.465C422.611 231.784 422.821 232.167 422.962 232.613C423.103 233.055 423.174 233.548 423.174 234.09V234.91H417.295V233.598H421.239V233.447C421.239 233.174 421.189 232.93 421.089 232.716C420.993 232.497 420.847 232.324 420.651 232.196C420.455 232.069 420.205 232.005 419.899 232.005C419.64 232.005 419.416 232.062 419.229 232.176C419.043 232.29 418.89 232.449 418.771 232.654C418.658 232.859 418.571 233.101 418.512 233.379C418.457 233.652 418.43 233.953 418.43 234.281V234.555C418.43 234.851 418.471 235.124 418.553 235.375C418.639 235.626 418.76 235.842 418.915 236.024C419.075 236.207 419.266 236.348 419.489 236.448C419.717 236.549 419.975 236.599 420.262 236.599C420.617 236.599 420.948 236.53 421.253 236.394C421.563 236.252 421.829 236.04 422.053 235.758L423.01 236.797C422.855 237.02 422.643 237.234 422.374 237.439C422.11 237.645 421.791 237.813 421.417 237.945C421.043 238.073 420.617 238.137 420.139 238.137Z" fill="black"/>
<path opacity="0.7" d="M46.0645 155.791V156.263C46.0645 157.019 45.9619 157.698 45.7568 158.3C45.5518 158.901 45.2624 159.414 44.8887 159.838C44.515 160.257 44.0684 160.578 43.5488 160.802C43.0339 161.025 42.4619 161.137 41.833 161.137C41.2087 161.137 40.6367 161.025 40.1172 160.802C39.6022 160.578 39.1556 160.257 38.7773 159.838C38.3991 159.414 38.1051 158.901 37.8955 158.3C37.6904 157.698 37.5879 157.019 37.5879 156.263V155.791C37.5879 155.03 37.6904 154.351 37.8955 153.754C38.1006 153.152 38.39 152.64 38.7637 152.216C39.1419 151.792 39.5885 151.468 40.1035 151.245C40.623 151.022 41.195 150.91 41.8193 150.91C42.4482 150.91 43.0202 151.022 43.5352 151.245C44.0547 151.468 44.5013 151.792 44.875 152.216C45.2533 152.64 45.5449 153.152 45.75 153.754C45.9596 154.351 46.0645 155.03 46.0645 155.791ZM43.9932 156.263V155.777C43.9932 155.249 43.9453 154.784 43.8496 154.383C43.7539 153.982 43.6126 153.645 43.4258 153.371C43.2389 153.098 43.0111 152.893 42.7422 152.756C42.4733 152.615 42.1657 152.544 41.8193 152.544C41.473 152.544 41.1654 152.615 40.8965 152.756C40.6322 152.893 40.4066 153.098 40.2197 153.371C40.0374 153.645 39.8984 153.982 39.8027 154.383C39.707 154.784 39.6592 155.249 39.6592 155.777V156.263C39.6592 156.787 39.707 157.252 39.8027 157.657C39.8984 158.058 40.0397 158.398 40.2266 158.676C40.4134 158.949 40.6413 159.157 40.9102 159.298C41.179 159.439 41.4867 159.51 41.833 159.51C42.1794 159.51 42.487 159.439 42.7559 159.298C43.0247 159.157 43.2503 158.949 43.4326 158.676C43.6149 158.398 43.7539 158.058 43.8496 157.657C43.9453 157.252 43.9932 156.787 43.9932 156.263ZM49.9268 161H47.9443V152.947C47.9443 152.387 48.0537 151.915 48.2725 151.532C48.4958 151.145 48.8079 150.853 49.209 150.657C49.6146 150.457 50.0954 150.356 50.6514 150.356C50.8337 150.356 51.0091 150.37 51.1777 150.397C51.3464 150.42 51.5104 150.45 51.6699 150.486L51.6494 151.97C51.5628 151.947 51.4717 151.931 51.376 151.922C51.2803 151.913 51.1686 151.908 51.041 151.908C50.804 151.908 50.6012 151.949 50.4326 152.031C50.2686 152.109 50.1432 152.225 50.0566 152.38C49.9701 152.535 49.9268 152.724 49.9268 152.947V161ZM51.4238 153.604V154.998H46.8438V153.604H51.4238ZM54.3564 161H52.3877V153.269C52.3877 152.64 52.5153 152.109 52.7705 151.676C53.0257 151.243 53.3949 150.915 53.8779 150.691C54.361 150.468 54.9421 150.356 55.6211 150.356C56.0085 150.356 56.3844 150.395 56.749 150.473C57.1136 150.546 57.4896 150.641 57.877 150.76L57.5967 152.339C57.346 152.261 57.0749 152.188 56.7832 152.12C56.4961 152.052 56.1497 152.018 55.7441 152.018C55.2884 152.018 54.9421 152.125 54.7051 152.339C54.4727 152.549 54.3564 152.858 54.3564 153.269V161ZM55.8262 153.604V154.998H51.2803V153.604H55.8262ZM58.7998 153.604V161H56.8174V153.604H58.7998ZM63.4893 159.599C63.7308 159.599 63.945 159.553 64.1318 159.462C64.3187 159.366 64.4645 159.234 64.5693 159.065C64.6787 158.892 64.7357 158.689 64.7402 158.457H66.5928C66.5882 158.977 66.4492 159.439 66.1758 159.845C65.9023 160.246 65.5355 160.562 65.0752 160.795C64.6149 161.023 64.0999 161.137 63.5303 161.137C62.9561 161.137 62.4548 161.041 62.0264 160.85C61.6025 160.658 61.2493 160.394 60.9668 160.057C60.6842 159.715 60.4723 159.318 60.3311 158.867C60.1898 158.411 60.1191 157.924 60.1191 157.404V157.206C60.1191 156.682 60.1898 156.194 60.3311 155.743C60.4723 155.287 60.6842 154.891 60.9668 154.554C61.2493 154.212 61.6025 153.945 62.0264 153.754C62.4502 153.562 62.9469 153.467 63.5166 153.467C64.1227 153.467 64.6536 153.583 65.1094 153.815C65.5697 154.048 65.9297 154.381 66.1895 154.813C66.4538 155.242 66.5882 155.75 66.5928 156.338H64.7402C64.7357 156.092 64.6833 155.868 64.583 155.668C64.4873 155.467 64.346 155.308 64.1592 155.189C63.9769 155.066 63.7513 155.005 63.4824 155.005C63.1953 155.005 62.9606 155.066 62.7783 155.189C62.596 155.308 62.4548 155.472 62.3545 155.682C62.2542 155.887 62.1836 156.121 62.1426 156.386C62.1061 156.646 62.0879 156.919 62.0879 157.206V157.404C62.0879 157.691 62.1061 157.967 62.1426 158.231C62.179 158.496 62.2474 158.73 62.3477 158.936C62.4525 159.141 62.596 159.302 62.7783 159.421C62.9606 159.539 63.1976 159.599 63.4893 159.599ZM71.1387 161.137C70.5645 161.137 70.0495 161.046 69.5938 160.863C69.138 160.676 68.7507 160.419 68.4316 160.091C68.1172 159.763 67.8757 159.382 67.707 158.949C67.5384 158.512 67.4541 158.047 67.4541 157.555V157.281C67.4541 156.721 67.5339 156.208 67.6934 155.743C67.8529 155.278 68.0807 154.875 68.377 154.533C68.6777 154.191 69.0423 153.929 69.4707 153.747C69.8991 153.56 70.3822 153.467 70.9199 153.467C71.444 153.467 71.9089 153.553 72.3145 153.727C72.7201 153.9 73.0596 154.146 73.333 154.465C73.611 154.784 73.8206 155.167 73.9619 155.613C74.1032 156.055 74.1738 156.548 74.1738 157.09V157.91H68.2949V156.598H72.2393V156.447C72.2393 156.174 72.1891 155.93 72.0889 155.716C71.9932 155.497 71.8473 155.324 71.6514 155.196C71.4554 155.069 71.2048 155.005 70.8994 155.005C70.6396 155.005 70.4163 155.062 70.2295 155.176C70.0426 155.29 69.89 155.449 69.7715 155.654C69.6576 155.859 69.571 156.101 69.5117 156.379C69.457 156.652 69.4297 156.953 69.4297 157.281V157.555C69.4297 157.851 69.4707 158.124 69.5527 158.375C69.6393 158.626 69.7601 158.842 69.915 159.024C70.0745 159.207 70.266 159.348 70.4893 159.448C70.7171 159.549 70.9746 159.599 71.2617 159.599C71.6172 159.599 71.9476 159.53 72.2529 159.394C72.5628 159.252 72.8294 159.04 73.0527 158.758L74.0098 159.797C73.8548 160.02 73.6429 160.234 73.374 160.439C73.1097 160.645 72.7907 160.813 72.417 160.945C72.0433 161.073 71.6172 161.137 71.1387 161.137Z" fill="black"/>
<path opacity="0.7" d="M393.567 381.4V383H388.27V381.4H393.567ZM388.939 373.047V383H386.889V373.047H388.939ZM392.877 377.101V378.659H388.27V377.101H392.877ZM393.561 373.047V374.653H388.27V373.047H393.561ZM396.609 377.135V383H394.634V375.604H396.486L396.609 377.135ZM396.336 379.042H395.789C395.789 378.527 395.851 378.053 395.974 377.62C396.101 377.183 396.286 376.804 396.527 376.485C396.773 376.162 397.076 375.911 397.437 375.733C397.797 375.556 398.214 375.467 398.688 375.467C399.016 375.467 399.316 375.517 399.59 375.617C399.863 375.713 400.098 375.866 400.294 376.075C400.494 376.28 400.649 376.549 400.759 376.882C400.868 377.21 400.923 377.604 400.923 378.064V383H398.954V378.283C398.954 377.946 398.909 377.686 398.817 377.504C398.726 377.322 398.596 377.194 398.428 377.121C398.264 377.048 398.065 377.012 397.833 377.012C397.578 377.012 397.354 377.064 397.163 377.169C396.976 377.274 396.821 377.42 396.698 377.606C396.575 377.789 396.484 378.003 396.425 378.249C396.366 378.495 396.336 378.759 396.336 379.042ZM400.738 378.816L400.034 378.905C400.034 378.422 400.093 377.973 400.212 377.559C400.335 377.144 400.515 376.779 400.752 376.465C400.993 376.15 401.292 375.907 401.647 375.733C402.003 375.556 402.413 375.467 402.878 375.467C403.233 375.467 403.557 375.519 403.849 375.624C404.14 375.724 404.389 375.886 404.594 376.109C404.803 376.328 404.963 376.615 405.072 376.971C405.186 377.326 405.243 377.761 405.243 378.276V383H403.268V378.276C403.268 377.935 403.222 377.675 403.131 377.497C403.044 377.315 402.917 377.189 402.748 377.121C402.584 377.048 402.388 377.012 402.16 377.012C401.923 377.012 401.716 377.06 401.538 377.155C401.36 377.246 401.212 377.374 401.094 377.538C400.975 377.702 400.886 377.894 400.827 378.112C400.768 378.326 400.738 378.561 400.738 378.816ZM408.736 377.025V385.844H406.768V375.604H408.593L408.736 377.025ZM413.419 379.22V379.363C413.419 379.901 413.355 380.4 413.228 380.86C413.104 381.321 412.922 381.722 412.681 382.063C412.439 382.401 412.138 382.665 411.778 382.856C411.423 383.043 411.013 383.137 410.548 383.137C410.097 383.137 409.705 383.046 409.372 382.863C409.039 382.681 408.759 382.426 408.531 382.098C408.308 381.765 408.128 381.38 407.991 380.942C407.854 380.505 407.75 380.035 407.677 379.534V379.158C407.75 378.62 407.854 378.128 407.991 377.682C408.128 377.23 408.308 376.841 408.531 376.513C408.759 376.18 409.037 375.923 409.365 375.74C409.698 375.558 410.088 375.467 410.534 375.467C411.004 375.467 411.416 375.556 411.771 375.733C412.132 375.911 412.432 376.166 412.674 376.499C412.92 376.832 413.104 377.228 413.228 377.688C413.355 378.149 413.419 378.659 413.419 379.22ZM411.443 379.363V379.22C411.443 378.905 411.416 378.616 411.361 378.352C411.311 378.083 411.229 377.848 411.115 377.647C411.006 377.447 410.86 377.292 410.678 377.183C410.5 377.069 410.284 377.012 410.028 377.012C409.759 377.012 409.529 377.055 409.338 377.142C409.151 377.228 408.998 377.354 408.88 377.518C408.761 377.682 408.673 377.878 408.613 378.105C408.554 378.333 408.518 378.591 408.504 378.878V379.828C408.527 380.165 408.59 380.468 408.695 380.737C408.8 381.002 408.962 381.211 409.181 381.366C409.399 381.521 409.687 381.599 410.042 381.599C410.302 381.599 410.521 381.542 410.698 381.428C410.876 381.309 411.02 381.147 411.129 380.942C411.243 380.737 411.323 380.5 411.368 380.231C411.418 379.963 411.443 379.673 411.443 379.363ZM417.151 383H415.169V374.947C415.169 374.387 415.278 373.915 415.497 373.532C415.72 373.145 416.033 372.853 416.434 372.657C416.839 372.457 417.32 372.356 417.876 372.356C418.058 372.356 418.234 372.37 418.402 372.397C418.571 372.42 418.735 372.45 418.895 372.486L418.874 373.97C418.787 373.947 418.696 373.931 418.601 373.922C418.505 373.913 418.393 373.908 418.266 373.908C418.029 373.908 417.826 373.949 417.657 374.031C417.493 374.109 417.368 374.225 417.281 374.38C417.195 374.535 417.151 374.724 417.151 374.947V383ZM418.628 375.604V376.998H414.068V375.604H418.628ZM423.652 381.332V378.037C423.652 377.8 423.614 377.597 423.536 377.429C423.459 377.256 423.338 377.121 423.174 377.025C423.014 376.93 422.807 376.882 422.552 376.882C422.333 376.882 422.144 376.921 421.984 376.998C421.825 377.071 421.702 377.178 421.615 377.319C421.529 377.456 421.485 377.618 421.485 377.805H419.517C419.517 377.49 419.59 377.192 419.735 376.909C419.881 376.627 420.093 376.378 420.371 376.164C420.649 375.945 420.979 375.774 421.362 375.651C421.75 375.528 422.183 375.467 422.661 375.467C423.235 375.467 423.746 375.562 424.192 375.754C424.639 375.945 424.99 376.232 425.245 376.615C425.505 376.998 425.635 377.477 425.635 378.051V381.216C425.635 381.621 425.66 381.954 425.71 382.214C425.76 382.469 425.833 382.692 425.929 382.884V383H423.939C423.844 382.799 423.771 382.549 423.721 382.248C423.675 381.943 423.652 381.637 423.652 381.332ZM423.912 378.495L423.926 379.609H422.825C422.565 379.609 422.34 379.639 422.148 379.698C421.957 379.757 421.8 379.842 421.677 379.951C421.554 380.056 421.463 380.179 421.403 380.32C421.349 380.462 421.321 380.617 421.321 380.785C421.321 380.954 421.36 381.106 421.438 381.243C421.515 381.375 421.627 381.48 421.772 381.558C421.918 381.631 422.089 381.667 422.285 381.667C422.581 381.667 422.839 381.608 423.058 381.489C423.276 381.371 423.445 381.225 423.563 381.052C423.687 380.879 423.75 380.715 423.755 380.56L424.274 381.394C424.201 381.58 424.101 381.774 423.974 381.975C423.851 382.175 423.693 382.364 423.502 382.542C423.311 382.715 423.08 382.859 422.812 382.973C422.543 383.082 422.224 383.137 421.854 383.137C421.385 383.137 420.959 383.043 420.576 382.856C420.198 382.665 419.897 382.403 419.674 382.07C419.455 381.733 419.346 381.35 419.346 380.922C419.346 380.535 419.419 380.19 419.564 379.89C419.71 379.589 419.924 379.336 420.207 379.131C420.494 378.921 420.852 378.764 421.28 378.659C421.709 378.55 422.205 378.495 422.771 378.495H423.912ZM429.08 377.183V383H427.111V375.604H428.957L429.08 377.183ZM428.793 379.042H428.26C428.26 378.495 428.33 378.003 428.472 377.565C428.613 377.123 428.811 376.747 429.066 376.438C429.322 376.123 429.625 375.884 429.976 375.72C430.331 375.551 430.728 375.467 431.165 375.467C431.511 375.467 431.828 375.517 432.115 375.617C432.402 375.717 432.648 375.877 432.854 376.096C433.063 376.314 433.223 376.604 433.332 376.964C433.446 377.324 433.503 377.764 433.503 378.283V383H431.521V378.276C431.521 377.948 431.475 377.693 431.384 377.511C431.293 377.328 431.158 377.201 430.98 377.128C430.807 377.05 430.593 377.012 430.338 377.012C430.074 377.012 429.843 377.064 429.647 377.169C429.456 377.274 429.297 377.42 429.169 377.606C429.046 377.789 428.952 378.003 428.889 378.249C428.825 378.495 428.793 378.759 428.793 379.042ZM439.683 375.604H441.467V382.754C441.467 383.428 441.316 384 441.016 384.47C440.719 384.944 440.305 385.301 439.771 385.543C439.238 385.789 438.618 385.912 437.912 385.912C437.602 385.912 437.274 385.871 436.928 385.789C436.586 385.707 436.258 385.579 435.943 385.406C435.633 385.233 435.374 385.014 435.164 384.75L436.032 383.588C436.26 383.852 436.524 384.057 436.825 384.203C437.126 384.354 437.459 384.429 437.823 384.429C438.179 384.429 438.479 384.363 438.726 384.23C438.972 384.103 439.161 383.914 439.293 383.663C439.425 383.417 439.491 383.118 439.491 382.768V377.312L439.683 375.604ZM434.706 379.391V379.247C434.706 378.682 434.774 378.169 434.911 377.709C435.052 377.244 435.251 376.845 435.506 376.513C435.766 376.18 436.08 375.923 436.449 375.74C436.818 375.558 437.235 375.467 437.7 375.467C438.192 375.467 438.605 375.558 438.938 375.74C439.27 375.923 439.544 376.182 439.758 376.52C439.972 376.852 440.138 377.246 440.257 377.702C440.38 378.153 440.476 378.648 440.544 379.186V379.5C440.476 380.015 440.373 380.493 440.236 380.936C440.1 381.378 439.92 381.765 439.696 382.098C439.473 382.426 439.195 382.681 438.862 382.863C438.534 383.046 438.142 383.137 437.687 383.137C437.231 383.137 436.818 383.043 436.449 382.856C436.085 382.67 435.772 382.408 435.513 382.07C435.253 381.733 435.052 381.337 434.911 380.881C434.774 380.425 434.706 379.928 434.706 379.391ZM436.675 379.247V379.391C436.675 379.696 436.704 379.981 436.764 380.245C436.823 380.509 436.914 380.744 437.037 380.949C437.165 381.15 437.322 381.307 437.509 381.421C437.7 381.53 437.926 381.585 438.186 381.585C438.546 381.585 438.84 381.51 439.067 381.359C439.295 381.204 439.466 380.993 439.58 380.724C439.694 380.455 439.76 380.145 439.778 379.794V378.898C439.769 378.611 439.73 378.354 439.662 378.126C439.594 377.894 439.498 377.695 439.375 377.531C439.252 377.367 439.092 377.24 438.896 377.148C438.701 377.057 438.468 377.012 438.199 377.012C437.939 377.012 437.714 377.071 437.522 377.189C437.336 377.303 437.178 377.461 437.051 377.661C436.928 377.862 436.834 378.099 436.771 378.372C436.707 378.641 436.675 378.933 436.675 379.247Z" fill="black"/>
<path opacity="0.7" d="M329.915 455.944V449.047H331.959V455.944C331.959 456.61 331.813 457.182 331.521 457.66C331.23 458.134 330.831 458.499 330.325 458.754C329.824 459.009 329.259 459.137 328.63 459.137C327.978 459.137 327.402 459.027 326.9 458.809C326.399 458.59 326.005 458.255 325.718 457.804C325.431 457.348 325.287 456.771 325.287 456.074H327.345C327.345 456.439 327.395 456.728 327.495 456.942C327.6 457.157 327.748 457.309 327.939 457.4C328.131 457.492 328.361 457.537 328.63 457.537C328.89 457.537 329.115 457.476 329.307 457.353C329.498 457.229 329.646 457.049 329.751 456.812C329.86 456.576 329.915 456.286 329.915 455.944ZM333.271 455.377V455.233C333.271 454.691 333.349 454.192 333.504 453.736C333.659 453.276 333.884 452.877 334.181 452.54C334.477 452.203 334.841 451.941 335.274 451.754C335.707 451.562 336.204 451.467 336.765 451.467C337.325 451.467 337.824 451.562 338.262 451.754C338.699 451.941 339.066 452.203 339.362 452.54C339.663 452.877 339.891 453.276 340.046 453.736C340.201 454.192 340.278 454.691 340.278 455.233V455.377C340.278 455.915 340.201 456.414 340.046 456.874C339.891 457.33 339.663 457.729 339.362 458.07C339.066 458.408 338.701 458.67 338.269 458.856C337.836 459.043 337.339 459.137 336.778 459.137C336.218 459.137 335.719 459.043 335.281 458.856C334.848 458.67 334.481 458.408 334.181 458.07C333.884 457.729 333.659 457.33 333.504 456.874C333.349 456.414 333.271 455.915 333.271 455.377ZM335.24 455.233V455.377C335.24 455.687 335.268 455.976 335.322 456.245C335.377 456.514 335.464 456.751 335.582 456.956C335.705 457.157 335.865 457.314 336.061 457.428C336.257 457.542 336.496 457.599 336.778 457.599C337.052 457.599 337.286 457.542 337.482 457.428C337.678 457.314 337.836 457.157 337.954 456.956C338.073 456.751 338.159 456.514 338.214 456.245C338.273 455.976 338.303 455.687 338.303 455.377V455.233C338.303 454.933 338.273 454.65 338.214 454.386C338.159 454.117 338.07 453.88 337.947 453.675C337.829 453.465 337.672 453.301 337.476 453.183C337.28 453.064 337.043 453.005 336.765 453.005C336.487 453.005 336.25 453.064 336.054 453.183C335.862 453.301 335.705 453.465 335.582 453.675C335.464 453.88 335.377 454.117 335.322 454.386C335.268 454.65 335.24 454.933 335.24 455.233ZM341.488 448.5H343.457V457.305L343.259 459H341.488V448.5ZM348.14 455.227V455.37C348.14 455.922 348.08 456.427 347.962 456.888C347.848 457.348 347.67 457.747 347.429 458.084C347.187 458.417 346.886 458.676 346.526 458.863C346.171 459.046 345.752 459.137 345.269 459.137C344.817 459.137 344.425 459.046 344.093 458.863C343.765 458.681 343.489 458.424 343.266 458.091C343.042 457.758 342.862 457.368 342.726 456.922C342.589 456.475 342.486 455.988 342.418 455.459V455.145C342.486 454.616 342.589 454.128 342.726 453.682C342.862 453.235 343.042 452.845 343.266 452.513C343.489 452.18 343.765 451.923 344.093 451.74C344.421 451.558 344.808 451.467 345.255 451.467C345.743 451.467 346.166 451.56 346.526 451.747C346.891 451.929 347.192 452.189 347.429 452.526C347.67 452.859 347.848 453.256 347.962 453.716C348.08 454.172 348.14 454.675 348.14 455.227ZM346.171 455.37V455.227C346.171 454.926 346.148 454.643 346.103 454.379C346.062 454.11 345.989 453.875 345.884 453.675C345.779 453.47 345.635 453.308 345.453 453.189C345.275 453.071 345.045 453.012 344.763 453.012C344.494 453.012 344.266 453.057 344.079 453.148C343.892 453.24 343.737 453.367 343.614 453.531C343.496 453.695 343.407 453.891 343.348 454.119C343.288 454.342 343.252 454.589 343.238 454.857V455.753C343.252 456.113 343.311 456.432 343.416 456.71C343.525 456.983 343.689 457.2 343.908 457.359C344.132 457.514 344.421 457.592 344.776 457.592C345.054 457.592 345.285 457.537 345.467 457.428C345.649 457.318 345.79 457.163 345.891 456.963C345.995 456.762 346.068 456.528 346.109 456.259C346.15 455.985 346.171 455.689 346.171 455.37ZM352.419 457.599C352.66 457.599 352.875 457.553 353.062 457.462C353.248 457.366 353.394 457.234 353.499 457.065C353.608 456.892 353.665 456.689 353.67 456.457H355.522C355.518 456.977 355.379 457.439 355.105 457.845C354.832 458.246 354.465 458.562 354.005 458.795C353.545 459.023 353.03 459.137 352.46 459.137C351.886 459.137 351.384 459.041 350.956 458.85C350.532 458.658 350.179 458.394 349.896 458.057C349.614 457.715 349.402 457.318 349.261 456.867C349.119 456.411 349.049 455.924 349.049 455.404V455.206C349.049 454.682 349.119 454.194 349.261 453.743C349.402 453.287 349.614 452.891 349.896 452.554C350.179 452.212 350.532 451.945 350.956 451.754C351.38 451.562 351.877 451.467 352.446 451.467C353.052 451.467 353.583 451.583 354.039 451.815C354.499 452.048 354.859 452.381 355.119 452.813C355.383 453.242 355.518 453.75 355.522 454.338H353.67C353.665 454.092 353.613 453.868 353.513 453.668C353.417 453.467 353.276 453.308 353.089 453.189C352.907 453.066 352.681 453.005 352.412 453.005C352.125 453.005 351.89 453.066 351.708 453.189C351.526 453.308 351.384 453.472 351.284 453.682C351.184 453.887 351.113 454.121 351.072 454.386C351.036 454.646 351.018 454.919 351.018 455.206V455.404C351.018 455.691 351.036 455.967 351.072 456.231C351.109 456.496 351.177 456.73 351.277 456.936C351.382 457.141 351.526 457.302 351.708 457.421C351.89 457.539 352.127 457.599 352.419 457.599ZM356.35 455.377V455.233C356.35 454.691 356.427 454.192 356.582 453.736C356.737 453.276 356.963 452.877 357.259 452.54C357.555 452.203 357.92 451.941 358.353 451.754C358.785 451.562 359.282 451.467 359.843 451.467C360.403 451.467 360.902 451.562 361.34 451.754C361.777 451.941 362.144 452.203 362.44 452.54C362.741 452.877 362.969 453.276 363.124 453.736C363.279 454.192 363.356 454.691 363.356 455.233V455.377C363.356 455.915 363.279 456.414 363.124 456.874C362.969 457.33 362.741 457.729 362.44 458.07C362.144 458.408 361.78 458.67 361.347 458.856C360.914 459.043 360.417 459.137 359.856 459.137C359.296 459.137 358.797 459.043 358.359 458.856C357.926 458.67 357.56 458.408 357.259 458.07C356.963 457.729 356.737 457.33 356.582 456.874C356.427 456.414 356.35 455.915 356.35 455.377ZM358.318 455.233V455.377C358.318 455.687 358.346 455.976 358.4 456.245C358.455 456.514 358.542 456.751 358.66 456.956C358.783 457.157 358.943 457.314 359.139 457.428C359.335 457.542 359.574 457.599 359.856 457.599C360.13 457.599 360.365 457.542 360.561 457.428C360.757 457.314 360.914 457.157 361.032 456.956C361.151 456.751 361.237 456.514 361.292 456.245C361.351 455.976 361.381 455.687 361.381 455.377V455.233C361.381 454.933 361.351 454.65 361.292 454.386C361.237 454.117 361.148 453.88 361.025 453.675C360.907 453.465 360.75 453.301 360.554 453.183C360.358 453.064 360.121 453.005 359.843 453.005C359.565 453.005 359.328 453.064 359.132 453.183C358.94 453.301 358.783 453.465 358.66 453.675C358.542 453.88 358.455 454.117 358.4 454.386C358.346 454.65 358.318 454.933 358.318 455.233ZM368.559 457.332V454.037C368.559 453.8 368.52 453.597 368.442 453.429C368.365 453.256 368.244 453.121 368.08 453.025C367.921 452.93 367.713 452.882 367.458 452.882C367.239 452.882 367.05 452.921 366.891 452.998C366.731 453.071 366.608 453.178 366.521 453.319C366.435 453.456 366.392 453.618 366.392 453.805H364.423C364.423 453.49 364.496 453.192 364.642 452.909C364.787 452.627 364.999 452.378 365.277 452.164C365.555 451.945 365.886 451.774 366.269 451.651C366.656 451.528 367.089 451.467 367.567 451.467C368.142 451.467 368.652 451.562 369.099 451.754C369.545 451.945 369.896 452.232 370.151 452.615C370.411 452.998 370.541 453.477 370.541 454.051V457.216C370.541 457.621 370.566 457.954 370.616 458.214C370.666 458.469 370.739 458.692 370.835 458.884V459H368.846C368.75 458.799 368.677 458.549 368.627 458.248C368.581 457.943 368.559 457.637 368.559 457.332ZM368.818 454.495L368.832 455.609H367.731C367.472 455.609 367.246 455.639 367.055 455.698C366.863 455.757 366.706 455.842 366.583 455.951C366.46 456.056 366.369 456.179 366.31 456.32C366.255 456.462 366.228 456.617 366.228 456.785C366.228 456.954 366.266 457.106 366.344 457.243C366.421 457.375 366.533 457.48 366.679 457.558C366.825 457.631 366.995 457.667 367.191 457.667C367.488 457.667 367.745 457.608 367.964 457.489C368.183 457.371 368.351 457.225 368.47 457.052C368.593 456.879 368.657 456.715 368.661 456.56L369.181 457.394C369.108 457.58 369.007 457.774 368.88 457.975C368.757 458.175 368.6 458.364 368.408 458.542C368.217 458.715 367.987 458.859 367.718 458.973C367.449 459.082 367.13 459.137 366.761 459.137C366.291 459.137 365.865 459.043 365.482 458.856C365.104 458.665 364.803 458.403 364.58 458.07C364.361 457.733 364.252 457.35 364.252 456.922C364.252 456.535 364.325 456.19 364.471 455.89C364.617 455.589 364.831 455.336 365.113 455.131C365.4 454.921 365.758 454.764 366.187 454.659C366.615 454.55 367.112 454.495 367.677 454.495H368.818ZM375.114 457.599C375.356 457.599 375.57 457.553 375.757 457.462C375.944 457.366 376.09 457.234 376.194 457.065C376.304 456.892 376.361 456.689 376.365 456.457H378.218C378.213 456.977 378.074 457.439 377.801 457.845C377.527 458.246 377.16 458.562 376.7 458.795C376.24 459.023 375.725 459.137 375.155 459.137C374.581 459.137 374.08 459.041 373.651 458.85C373.228 458.658 372.874 458.394 372.592 458.057C372.309 457.715 372.097 457.318 371.956 456.867C371.815 456.411 371.744 455.924 371.744 455.404V455.206C371.744 454.682 371.815 454.194 371.956 453.743C372.097 453.287 372.309 452.891 372.592 452.554C372.874 452.212 373.228 451.945 373.651 451.754C374.075 451.562 374.572 451.467 375.142 451.467C375.748 451.467 376.279 451.583 376.734 451.815C377.195 452.048 377.555 452.381 377.814 452.813C378.079 453.242 378.213 453.75 378.218 454.338H376.365C376.361 454.092 376.308 453.868 376.208 453.668C376.112 453.467 375.971 453.308 375.784 453.189C375.602 453.066 375.376 453.005 375.107 453.005C374.82 453.005 374.586 453.066 374.403 453.189C374.221 453.308 374.08 453.472 373.979 453.682C373.879 453.887 373.809 454.121 373.768 454.386C373.731 454.646 373.713 454.919 373.713 455.206V455.404C373.713 455.691 373.731 455.967 373.768 456.231C373.804 456.496 373.872 456.73 373.973 456.936C374.077 457.141 374.221 457.302 374.403 457.421C374.586 457.539 374.823 457.599 375.114 457.599ZM381.28 448.5V459H379.312V448.5H381.28ZM381 455.042H380.46C380.465 454.527 380.533 454.053 380.665 453.62C380.797 453.183 380.986 452.804 381.232 452.485C381.479 452.162 381.772 451.911 382.114 451.733C382.461 451.556 382.843 451.467 383.263 451.467C383.627 451.467 383.958 451.519 384.254 451.624C384.555 451.724 384.812 451.888 385.026 452.116C385.245 452.34 385.414 452.633 385.532 452.998C385.651 453.363 385.71 453.805 385.71 454.324V459H383.728V454.311C383.728 453.982 383.68 453.725 383.584 453.538C383.493 453.347 383.358 453.212 383.181 453.135C383.007 453.053 382.793 453.012 382.538 453.012C382.256 453.012 382.014 453.064 381.813 453.169C381.618 453.274 381.46 453.42 381.342 453.606C381.223 453.789 381.137 454.003 381.082 454.249C381.027 454.495 381 454.759 381 455.042ZM389.285 451.604V459H387.31V451.604H389.285ZM387.187 449.676C387.187 449.389 387.287 449.152 387.487 448.965C387.688 448.778 387.957 448.685 388.294 448.685C388.627 448.685 388.893 448.778 389.094 448.965C389.299 449.152 389.401 449.389 389.401 449.676C389.401 449.963 389.299 450.2 389.094 450.387C388.893 450.574 388.627 450.667 388.294 450.667C387.957 450.667 387.688 450.574 387.487 450.387C387.287 450.2 387.187 449.963 387.187 449.676ZM392.84 453.183V459H390.871V451.604H392.717L392.84 453.183ZM392.553 455.042H392.02C392.02 454.495 392.09 454.003 392.231 453.565C392.373 453.123 392.571 452.747 392.826 452.438C393.081 452.123 393.384 451.884 393.735 451.72C394.091 451.551 394.487 451.467 394.925 451.467C395.271 451.467 395.588 451.517 395.875 451.617C396.162 451.717 396.408 451.877 396.613 452.096C396.823 452.314 396.982 452.604 397.092 452.964C397.206 453.324 397.263 453.764 397.263 454.283V459H395.28V454.276C395.28 453.948 395.235 453.693 395.144 453.511C395.052 453.328 394.918 453.201 394.74 453.128C394.567 453.05 394.353 453.012 394.098 453.012C393.833 453.012 393.603 453.064 393.407 453.169C393.216 453.274 393.056 453.42 392.929 453.606C392.806 453.789 392.712 454.003 392.648 454.249C392.585 454.495 392.553 454.759 392.553 455.042ZM403.442 451.604H405.227V458.754C405.227 459.428 405.076 460 404.775 460.47C404.479 460.944 404.064 461.301 403.531 461.543C402.998 461.789 402.378 461.912 401.672 461.912C401.362 461.912 401.034 461.871 400.688 461.789C400.346 461.707 400.018 461.579 399.703 461.406C399.393 461.233 399.133 461.014 398.924 460.75L399.792 459.588C400.02 459.852 400.284 460.057 400.585 460.203C400.886 460.354 401.218 460.429 401.583 460.429C401.938 460.429 402.239 460.363 402.485 460.23C402.731 460.103 402.921 459.914 403.053 459.663C403.185 459.417 403.251 459.118 403.251 458.768V453.312L403.442 451.604ZM398.466 455.391V455.247C398.466 454.682 398.534 454.169 398.671 453.709C398.812 453.244 399.01 452.845 399.266 452.513C399.525 452.18 399.84 451.923 400.209 451.74C400.578 451.558 400.995 451.467 401.46 451.467C401.952 451.467 402.365 451.558 402.697 451.74C403.03 451.923 403.303 452.182 403.518 452.52C403.732 452.852 403.898 453.246 404.017 453.702C404.14 454.153 404.235 454.648 404.304 455.186V455.5C404.235 456.015 404.133 456.493 403.996 456.936C403.859 457.378 403.679 457.765 403.456 458.098C403.233 458.426 402.955 458.681 402.622 458.863C402.294 459.046 401.902 459.137 401.446 459.137C400.991 459.137 400.578 459.043 400.209 458.856C399.844 458.67 399.532 458.408 399.272 458.07C399.013 457.733 398.812 457.337 398.671 456.881C398.534 456.425 398.466 455.928 398.466 455.391ZM400.435 455.247V455.391C400.435 455.696 400.464 455.981 400.523 456.245C400.583 456.509 400.674 456.744 400.797 456.949C400.924 457.15 401.082 457.307 401.269 457.421C401.46 457.53 401.686 457.585 401.945 457.585C402.305 457.585 402.599 457.51 402.827 457.359C403.055 457.204 403.226 456.993 403.34 456.724C403.454 456.455 403.52 456.145 403.538 455.794V454.898C403.529 454.611 403.49 454.354 403.422 454.126C403.354 453.894 403.258 453.695 403.135 453.531C403.012 453.367 402.852 453.24 402.656 453.148C402.46 453.057 402.228 453.012 401.959 453.012C401.699 453.012 401.474 453.071 401.282 453.189C401.095 453.303 400.938 453.461 400.811 453.661C400.688 453.862 400.594 454.099 400.53 454.372C400.466 454.641 400.435 454.933 400.435 455.247Z" fill="black"/>
<path opacity="0.7" d="M20.915 508.944V502.047H22.959V508.944C22.959 509.61 22.8132 510.182 22.5215 510.66C22.2298 511.134 21.8311 511.499 21.3252 511.754C20.8239 512.009 20.2588 512.137 19.6299 512.137C18.9782 512.137 18.4017 512.027 17.9004 511.809C17.3991 511.59 17.0049 511.255 16.7178 510.804C16.4307 510.348 16.2871 509.771 16.2871 509.074H18.3447C18.3447 509.439 18.3949 509.728 18.4951 509.942C18.5999 510.157 18.748 510.309 18.9395 510.4C19.1309 510.492 19.361 510.537 19.6299 510.537C19.8896 510.537 20.1152 510.476 20.3066 510.353C20.498 510.229 20.6462 510.049 20.751 509.812C20.8604 509.576 20.915 509.286 20.915 508.944ZM24.2715 508.377V508.233C24.2715 507.691 24.349 507.192 24.5039 506.736C24.6589 506.276 24.8844 505.877 25.1807 505.54C25.4769 505.203 25.8415 504.941 26.2744 504.754C26.7074 504.562 27.2041 504.467 27.7646 504.467C28.3252 504.467 28.8242 504.562 29.2617 504.754C29.6992 504.941 30.0661 505.203 30.3623 505.54C30.6631 505.877 30.891 506.276 31.0459 506.736C31.2008 507.192 31.2783 507.691 31.2783 508.233V508.377C31.2783 508.915 31.2008 509.414 31.0459 509.874C30.891 510.33 30.6631 510.729 30.3623 511.07C30.0661 511.408 29.7015 511.67 29.2686 511.856C28.8356 512.043 28.3389 512.137 27.7783 512.137C27.2178 512.137 26.7188 512.043 26.2812 511.856C25.8483 511.67 25.4814 511.408 25.1807 511.07C24.8844 510.729 24.6589 510.33 24.5039 509.874C24.349 509.414 24.2715 508.915 24.2715 508.377ZM26.2402 508.233V508.377C26.2402 508.687 26.2676 508.976 26.3223 509.245C26.377 509.514 26.4635 509.751 26.582 509.956C26.7051 510.157 26.8646 510.314 27.0605 510.428C27.2565 510.542 27.4958 510.599 27.7783 510.599C28.0518 510.599 28.2865 510.542 28.4824 510.428C28.6784 510.314 28.8356 510.157 28.9541 509.956C29.0726 509.751 29.1592 509.514 29.2139 509.245C29.2731 508.976 29.3027 508.687 29.3027 508.377V508.233C29.3027 507.933 29.2731 507.65 29.2139 507.386C29.1592 507.117 29.0703 506.88 28.9473 506.675C28.8288 506.465 28.6715 506.301 28.4756 506.183C28.2796 506.064 28.0426 506.005 27.7646 506.005C27.4867 506.005 27.2497 506.064 27.0537 506.183C26.8623 506.301 26.7051 506.465 26.582 506.675C26.4635 506.88 26.377 507.117 26.3223 507.386C26.2676 507.65 26.2402 507.933 26.2402 508.233ZM32.4883 501.5H34.457V510.305L34.2588 512H32.4883V501.5ZM39.1396 508.227V508.37C39.1396 508.922 39.0804 509.427 38.9619 509.888C38.848 510.348 38.6702 510.747 38.4287 511.084C38.1872 511.417 37.8864 511.676 37.5264 511.863C37.1709 512.046 36.7516 512.137 36.2686 512.137C35.8174 512.137 35.4255 512.046 35.0928 511.863C34.7646 511.681 34.4889 511.424 34.2656 511.091C34.0423 510.758 33.8623 510.368 33.7256 509.922C33.5889 509.475 33.4863 508.988 33.418 508.459V508.145C33.4863 507.616 33.5889 507.128 33.7256 506.682C33.8623 506.235 34.0423 505.845 34.2656 505.513C34.4889 505.18 34.7646 504.923 35.0928 504.74C35.4209 504.558 35.8083 504.467 36.2549 504.467C36.7425 504.467 37.1663 504.56 37.5264 504.747C37.891 504.929 38.1917 505.189 38.4287 505.526C38.6702 505.859 38.848 506.256 38.9619 506.716C39.0804 507.172 39.1396 507.675 39.1396 508.227ZM37.1709 508.37V508.227C37.1709 507.926 37.1481 507.643 37.1025 507.379C37.0615 507.11 36.9886 506.875 36.8838 506.675C36.779 506.47 36.6354 506.308 36.4531 506.189C36.2754 506.071 36.0452 506.012 35.7627 506.012C35.4938 506.012 35.266 506.057 35.0791 506.148C34.8923 506.24 34.7373 506.367 34.6143 506.531C34.4958 506.695 34.4069 506.891 34.3477 507.119C34.2884 507.342 34.252 507.589 34.2383 507.857V508.753C34.252 509.113 34.3112 509.432 34.416 509.71C34.5254 509.983 34.6895 510.2 34.9082 510.359C35.1315 510.514 35.4209 510.592 35.7764 510.592C36.0544 510.592 36.2845 510.537 36.4668 510.428C36.6491 510.318 36.7904 510.163 36.8906 509.963C36.9954 509.762 37.0684 509.528 37.1094 509.259C37.1504 508.985 37.1709 508.689 37.1709 508.37ZM47.8486 508.452H45.3125V506.853H47.8486C48.2406 506.853 48.5596 506.789 48.8057 506.661C49.0518 506.529 49.2318 506.347 49.3457 506.114C49.4596 505.882 49.5166 505.62 49.5166 505.328C49.5166 505.032 49.4596 504.756 49.3457 504.501C49.2318 504.246 49.0518 504.041 48.8057 503.886C48.5596 503.731 48.2406 503.653 47.8486 503.653H46.0234V512H43.9727V502.047H47.8486C48.6279 502.047 49.2956 502.188 49.8516 502.471C50.4121 502.749 50.8405 503.134 51.1367 503.626C51.4329 504.118 51.5811 504.681 51.5811 505.314C51.5811 505.957 51.4329 506.513 51.1367 506.982C50.8405 507.452 50.4121 507.814 49.8516 508.069C49.2956 508.325 48.6279 508.452 47.8486 508.452ZM54.9512 501.5V512H52.9756V501.5H54.9512ZM60.9531 510.229V504.604H62.9219V512H61.0693L60.9531 510.229ZM61.1719 508.712L61.7529 508.698C61.7529 509.19 61.696 509.648 61.582 510.072C61.4681 510.492 61.2972 510.856 61.0693 511.166C60.8415 511.471 60.5544 511.711 60.208 511.884C59.8617 512.052 59.4538 512.137 58.9844 512.137C58.6243 512.137 58.2917 512.087 57.9863 511.986C57.6855 511.882 57.4258 511.72 57.207 511.501C56.9928 511.278 56.8242 510.993 56.7012 510.646C56.5827 510.296 56.5234 509.874 56.5234 509.382V504.604H58.4922V509.396C58.4922 509.614 58.5173 509.799 58.5674 509.949C58.6221 510.1 58.6973 510.223 58.793 510.318C58.8887 510.414 59.0003 510.482 59.1279 510.523C59.2601 510.564 59.4059 510.585 59.5654 510.585C59.971 510.585 60.29 510.503 60.5225 510.339C60.7594 510.175 60.9258 509.951 61.0215 509.669C61.1217 509.382 61.1719 509.063 61.1719 508.712ZM68.4248 509.956C68.4248 509.815 68.3838 509.687 68.3018 509.573C68.2197 509.459 68.0671 509.354 67.8438 509.259C67.625 509.159 67.3083 509.067 66.8936 508.985C66.5199 508.903 66.1712 508.801 65.8477 508.678C65.5286 508.55 65.2507 508.397 65.0137 508.22C64.7812 508.042 64.599 507.832 64.4668 507.591C64.3346 507.345 64.2686 507.064 64.2686 506.75C64.2686 506.44 64.3346 506.148 64.4668 505.875C64.6035 505.602 64.7972 505.36 65.0479 505.15C65.3031 504.936 65.613 504.77 65.9775 504.651C66.3467 504.528 66.7614 504.467 67.2217 504.467C67.8643 504.467 68.4157 504.569 68.876 504.774C69.3408 504.979 69.6963 505.262 69.9424 505.622C70.193 505.978 70.3184 506.383 70.3184 506.839H68.3496C68.3496 506.647 68.3086 506.477 68.2266 506.326C68.1491 506.171 68.026 506.05 67.8574 505.964C67.6934 505.873 67.4792 505.827 67.2148 505.827C66.9961 505.827 66.807 505.866 66.6475 505.943C66.488 506.016 66.3649 506.117 66.2783 506.244C66.1963 506.367 66.1553 506.504 66.1553 506.654C66.1553 506.768 66.1781 506.871 66.2236 506.962C66.2738 507.049 66.3535 507.128 66.4629 507.201C66.5723 507.274 66.7135 507.342 66.8867 507.406C67.0645 507.465 67.2832 507.52 67.543 507.57C68.0762 507.68 68.5524 507.823 68.9717 508.001C69.391 508.174 69.7236 508.411 69.9697 508.712C70.2158 509.008 70.3389 509.398 70.3389 509.881C70.3389 510.209 70.266 510.51 70.1201 510.783C69.9743 511.057 69.7646 511.296 69.4912 511.501C69.2178 511.701 68.8896 511.859 68.5068 511.973C68.1286 512.082 67.7025 512.137 67.2285 512.137C66.5404 512.137 65.957 512.014 65.4785 511.768C65.0046 511.521 64.6445 511.209 64.3984 510.831C64.1569 510.448 64.0361 510.056 64.0361 509.655H65.9023C65.9115 509.924 65.9798 510.141 66.1074 510.305C66.2396 510.469 66.4059 510.587 66.6064 510.66C66.8115 510.733 67.0326 510.77 67.2695 510.77C67.5247 510.77 67.7367 510.735 67.9053 510.667C68.0739 510.594 68.2015 510.498 68.2881 510.38C68.3792 510.257 68.4248 510.116 68.4248 509.956Z" fill="black"/>
<path opacity="0.7" d="M13.5674 299.4V301H8.26953V299.4H13.5674ZM8.93945 291.047V301H6.88867V291.047H8.93945ZM12.877 295.101V296.659H8.26953V295.101H12.877ZM13.5605 291.047V292.653H8.26953V291.047H13.5605ZM16.7188 293.604V301H14.7432V293.604H16.7188ZM14.6201 291.676C14.6201 291.389 14.7204 291.152 14.9209 290.965C15.1214 290.778 15.3903 290.685 15.7275 290.685C16.0602 290.685 16.3268 290.778 16.5273 290.965C16.7324 291.152 16.835 291.389 16.835 291.676C16.835 291.963 16.7324 292.2 16.5273 292.387C16.3268 292.574 16.0602 292.667 15.7275 292.667C15.3903 292.667 15.1214 292.574 14.9209 292.387C14.7204 292.2 14.6201 291.963 14.6201 291.676ZM20.2734 295.183V301H18.3047V293.604H20.1504L20.2734 295.183ZM19.9863 297.042H19.4531C19.4531 296.495 19.5238 296.003 19.665 295.565C19.8063 295.123 20.0046 294.747 20.2598 294.438C20.515 294.123 20.818 293.884 21.1689 293.72C21.5244 293.551 21.9209 293.467 22.3584 293.467C22.7048 293.467 23.0215 293.517 23.3086 293.617C23.5957 293.717 23.8418 293.877 24.0469 294.096C24.2565 294.314 24.416 294.604 24.5254 294.964C24.6393 295.324 24.6963 295.764 24.6963 296.283V301H22.7139V296.276C22.7139 295.948 22.6683 295.693 22.5771 295.511C22.486 295.328 22.3516 295.201 22.1738 295.128C22.0007 295.05 21.7865 295.012 21.5312 295.012C21.2669 295.012 21.0368 295.064 20.8408 295.169C20.6494 295.274 20.4899 295.42 20.3623 295.606C20.2393 295.789 20.1458 296.003 20.082 296.249C20.0182 296.495 19.9863 296.759 19.9863 297.042ZM30.1924 298.956C30.1924 298.815 30.1514 298.687 30.0693 298.573C29.9873 298.459 29.8346 298.354 29.6113 298.259C29.3926 298.159 29.0758 298.067 28.6611 297.985C28.2874 297.903 27.9388 297.801 27.6152 297.678C27.2962 297.55 27.0182 297.397 26.7812 297.22C26.5488 297.042 26.3665 296.832 26.2344 296.591C26.1022 296.345 26.0361 296.064 26.0361 295.75C26.0361 295.44 26.1022 295.148 26.2344 294.875C26.3711 294.602 26.5648 294.36 26.8154 294.15C27.0706 293.936 27.3805 293.77 27.7451 293.651C28.1143 293.528 28.529 293.467 28.9893 293.467C29.6318 293.467 30.1833 293.569 30.6436 293.774C31.1084 293.979 31.4639 294.262 31.71 294.622C31.9606 294.978 32.0859 295.383 32.0859 295.839H30.1172C30.1172 295.647 30.0762 295.477 29.9941 295.326C29.9167 295.171 29.7936 295.05 29.625 294.964C29.4609 294.873 29.2467 294.827 28.9824 294.827C28.7637 294.827 28.5745 294.866 28.415 294.943C28.2555 295.016 28.1325 295.117 28.0459 295.244C27.9639 295.367 27.9229 295.504 27.9229 295.654C27.9229 295.768 27.9456 295.871 27.9912 295.962C28.0413 296.049 28.1211 296.128 28.2305 296.201C28.3398 296.274 28.4811 296.342 28.6543 296.406C28.832 296.465 29.0508 296.52 29.3105 296.57C29.8438 296.68 30.32 296.823 30.7393 297.001C31.1585 297.174 31.4912 297.411 31.7373 297.712C31.9834 298.008 32.1064 298.398 32.1064 298.881C32.1064 299.209 32.0335 299.51 31.8877 299.783C31.7419 300.057 31.5322 300.296 31.2588 300.501C30.9854 300.701 30.6572 300.859 30.2744 300.973C29.8962 301.082 29.4701 301.137 28.9961 301.137C28.3079 301.137 27.7246 301.014 27.2461 300.768C26.7721 300.521 26.4121 300.209 26.166 299.831C25.9245 299.448 25.8037 299.056 25.8037 298.655H27.6699C27.679 298.924 27.7474 299.141 27.875 299.305C28.0072 299.469 28.1735 299.587 28.374 299.66C28.5791 299.733 28.8001 299.77 29.0371 299.77C29.2923 299.77 29.5042 299.735 29.6729 299.667C29.8415 299.594 29.9691 299.498 30.0557 299.38C30.1468 299.257 30.1924 299.116 30.1924 298.956ZM37.377 299.332V296.037C37.377 295.8 37.3382 295.597 37.2607 295.429C37.1833 295.256 37.0625 295.121 36.8984 295.025C36.7389 294.93 36.5316 294.882 36.2764 294.882C36.0576 294.882 35.8685 294.921 35.709 294.998C35.5495 295.071 35.4264 295.178 35.3398 295.319C35.2533 295.456 35.21 295.618 35.21 295.805H33.2412C33.2412 295.49 33.3141 295.192 33.46 294.909C33.6058 294.627 33.8177 294.378 34.0957 294.164C34.3737 293.945 34.7041 293.774 35.0869 293.651C35.4743 293.528 35.9072 293.467 36.3857 293.467C36.96 293.467 37.4704 293.562 37.917 293.754C38.3636 293.945 38.7145 294.232 38.9697 294.615C39.2295 294.998 39.3594 295.477 39.3594 296.051V299.216C39.3594 299.621 39.3844 299.954 39.4346 300.214C39.4847 300.469 39.5576 300.692 39.6533 300.884V301H37.6641C37.5684 300.799 37.4954 300.549 37.4453 300.248C37.3997 299.943 37.377 299.637 37.377 299.332ZM37.6367 296.495L37.6504 297.609H36.5498C36.29 297.609 36.0645 297.639 35.873 297.698C35.6816 297.757 35.5244 297.842 35.4014 297.951C35.2783 298.056 35.1872 298.179 35.1279 298.32C35.0732 298.462 35.0459 298.617 35.0459 298.785C35.0459 298.954 35.0846 299.106 35.1621 299.243C35.2396 299.375 35.3512 299.48 35.4971 299.558C35.6429 299.631 35.8138 299.667 36.0098 299.667C36.306 299.667 36.5635 299.608 36.7822 299.489C37.001 299.371 37.1696 299.225 37.2881 299.052C37.4111 298.879 37.4749 298.715 37.4795 298.56L37.999 299.394C37.9261 299.58 37.8258 299.774 37.6982 299.975C37.5752 300.175 37.418 300.364 37.2266 300.542C37.0352 300.715 36.805 300.859 36.5361 300.973C36.2673 301.082 35.9482 301.137 35.5791 301.137C35.1097 301.137 34.6836 301.043 34.3008 300.856C33.9225 300.665 33.6217 300.403 33.3984 300.07C33.1797 299.733 33.0703 299.35 33.0703 298.922C33.0703 298.535 33.1432 298.19 33.2891 297.89C33.4349 297.589 33.6491 297.336 33.9316 297.131C34.2188 296.921 34.5765 296.764 35.0049 296.659C35.4333 296.55 35.93 296.495 36.4951 296.495H37.6367ZM33.7607 291.655C33.7607 291.418 33.8496 291.218 34.0273 291.054C34.2096 290.885 34.4329 290.801 34.6973 290.801C34.9707 290.801 35.1963 290.885 35.374 291.054C35.5518 291.218 35.6406 291.418 35.6406 291.655C35.6406 291.892 35.5518 292.093 35.374 292.257C35.1963 292.421 34.9707 292.503 34.6973 292.503C34.4329 292.503 34.2096 292.421 34.0273 292.257C33.8496 292.093 33.7607 291.892 33.7607 291.655ZM37.1172 291.662C37.1172 291.421 37.2061 291.218 37.3838 291.054C37.5615 290.89 37.7848 290.808 38.0537 290.808C38.3226 290.808 38.5459 290.89 38.7236 291.054C38.9059 291.218 38.9971 291.421 38.9971 291.662C38.9971 291.899 38.9059 292.1 38.7236 292.264C38.5459 292.423 38.3226 292.503 38.0537 292.503C37.7848 292.503 37.5615 292.423 37.3838 292.264C37.2061 292.1 37.1172 291.899 37.1172 291.662ZM44.5 293.604V294.998H40.1934V293.604H44.5ZM41.2598 291.778H43.2285V298.771C43.2285 298.986 43.2559 299.15 43.3105 299.264C43.3698 299.378 43.4564 299.457 43.5703 299.503C43.6842 299.544 43.8278 299.564 44.001 299.564C44.124 299.564 44.2334 299.56 44.3291 299.551C44.4294 299.537 44.5137 299.523 44.582 299.51L44.5889 300.959C44.4202 301.014 44.238 301.057 44.042 301.089C43.846 301.121 43.6296 301.137 43.3926 301.137C42.9596 301.137 42.5814 301.066 42.2578 300.925C41.9388 300.779 41.6927 300.547 41.5195 300.228C41.3464 299.909 41.2598 299.489 41.2598 298.97V291.778ZM51.5068 299.462V301H45.8877V299.462H51.5068ZM51.3975 294.738L46.6807 301H45.3613V299.831L50.0576 293.604H51.3975V294.738ZM50.7002 293.604V295.148H45.4707V293.604H50.7002ZM56.0391 301.137C55.4648 301.137 54.9499 301.046 54.4941 300.863C54.0384 300.676 53.651 300.419 53.332 300.091C53.0176 299.763 52.776 299.382 52.6074 298.949C52.4388 298.512 52.3545 298.047 52.3545 297.555V297.281C52.3545 296.721 52.4342 296.208 52.5938 295.743C52.7533 295.278 52.9811 294.875 53.2773 294.533C53.5781 294.191 53.9427 293.929 54.3711 293.747C54.7995 293.56 55.2826 293.467 55.8203 293.467C56.3444 293.467 56.8092 293.553 57.2148 293.727C57.6204 293.9 57.96 294.146 58.2334 294.465C58.5114 294.784 58.721 295.167 58.8623 295.613C59.0036 296.055 59.0742 296.548 59.0742 297.09V297.91H53.1953V296.598H57.1396V296.447C57.1396 296.174 57.0895 295.93 56.9893 295.716C56.8936 295.497 56.7477 295.324 56.5518 295.196C56.3558 295.069 56.1051 295.005 55.7998 295.005C55.54 295.005 55.3167 295.062 55.1299 295.176C54.943 295.29 54.7904 295.449 54.6719 295.654C54.5579 295.859 54.4714 296.101 54.4121 296.379C54.3574 296.652 54.3301 296.953 54.3301 297.281V297.555C54.3301 297.851 54.3711 298.124 54.4531 298.375C54.5397 298.626 54.6605 298.842 54.8154 299.024C54.9749 299.207 55.1663 299.348 55.3896 299.448C55.6175 299.549 55.875 299.599 56.1621 299.599C56.5176 299.599 56.848 299.53 57.1533 299.394C57.4632 299.252 57.7298 299.04 57.9531 298.758L58.9102 299.797C58.7552 300.02 58.5433 300.234 58.2744 300.439C58.0101 300.645 57.6911 300.813 57.3174 300.945C56.9437 301.073 56.5176 301.137 56.0391 301.137ZM13.5674 315.4V317H8.26953V315.4H13.5674ZM8.93945 307.047V317H6.88867V307.047H8.93945ZM12.877 311.101V312.659H8.26953V311.101H12.877ZM13.5605 307.047V308.653H8.26953V307.047H13.5605ZM16.6094 311.217V317H14.6406V309.604H16.4932L16.6094 311.217ZM18.8379 309.556L18.8037 311.381C18.708 311.367 18.5918 311.356 18.4551 311.347C18.3229 311.333 18.2021 311.326 18.0928 311.326C17.8148 311.326 17.5732 311.363 17.3682 311.436C17.1676 311.504 16.999 311.606 16.8623 311.743C16.7301 311.88 16.6299 312.046 16.5615 312.242C16.4977 312.438 16.4613 312.661 16.4521 312.912L16.0557 312.789C16.0557 312.311 16.1035 311.871 16.1992 311.47C16.2949 311.064 16.4339 310.711 16.6162 310.41C16.8031 310.109 17.0309 309.877 17.2998 309.713C17.5687 309.549 17.8763 309.467 18.2227 309.467C18.332 309.467 18.4437 309.476 18.5576 309.494C18.6715 309.508 18.765 309.528 18.8379 309.556ZM22.0029 315.086L23.541 309.604H24.792L24.3887 311.757L22.8506 317H21.8047L22.0029 315.086ZM21.2236 309.604L22.3242 315.079L22.4268 317H21.1963L19.3232 309.604H21.2236ZM26.2002 314.99L27.2734 309.604H29.1807L27.3076 317H26.084L26.2002 314.99ZM24.9629 309.604L26.4941 315.045L26.7061 317H25.6533L24.1152 311.764L23.7256 309.604H24.9629ZM34.1641 315.332V312.037C34.1641 311.8 34.1253 311.597 34.0479 311.429C33.9704 311.256 33.8496 311.121 33.6855 311.025C33.526 310.93 33.3187 310.882 33.0635 310.882C32.8447 310.882 32.6556 310.921 32.4961 310.998C32.3366 311.071 32.2135 311.178 32.127 311.319C32.0404 311.456 31.9971 311.618 31.9971 311.805H30.0283C30.0283 311.49 30.1012 311.192 30.2471 310.909C30.3929 310.627 30.6048 310.378 30.8828 310.164C31.1608 309.945 31.4912 309.774 31.874 309.651C32.2614 309.528 32.6943 309.467 33.1729 309.467C33.7471 309.467 34.2575 309.562 34.7041 309.754C35.1507 309.945 35.5016 310.232 35.7568 310.615C36.0166 310.998 36.1465 311.477 36.1465 312.051V315.216C36.1465 315.621 36.1715 315.954 36.2217 316.214C36.2718 316.469 36.3447 316.692 36.4404 316.884V317H34.4512C34.3555 316.799 34.2826 316.549 34.2324 316.248C34.1868 315.943 34.1641 315.637 34.1641 315.332ZM34.4238 312.495L34.4375 313.609H33.3369C33.0771 313.609 32.8516 313.639 32.6602 313.698C32.4688 313.757 32.3115 313.842 32.1885 313.951C32.0654 314.056 31.9743 314.179 31.915 314.32C31.8604 314.462 31.833 314.617 31.833 314.785C31.833 314.954 31.8717 315.106 31.9492 315.243C32.0267 315.375 32.1383 315.48 32.2842 315.558C32.43 315.631 32.6009 315.667 32.7969 315.667C33.0931 315.667 33.3506 315.608 33.5693 315.489C33.7881 315.371 33.9567 315.225 34.0752 315.052C34.1982 314.879 34.262 314.715 34.2666 314.56L34.7861 315.394C34.7132 315.58 34.613 315.774 34.4854 315.975C34.3623 316.175 34.2051 316.364 34.0137 316.542C33.8223 316.715 33.5921 316.859 33.3232 316.973C33.0544 317.082 32.7354 317.137 32.3662 317.137C31.8968 317.137 31.4707 317.043 31.0879 316.856C30.7096 316.665 30.4089 316.403 30.1855 316.07C29.9668 315.733 29.8574 315.35 29.8574 314.922C29.8574 314.535 29.9303 314.19 30.0762 313.89C30.222 313.589 30.4362 313.336 30.7188 313.131C31.0059 312.921 31.3636 312.764 31.792 312.659C32.2204 312.55 32.7171 312.495 33.2822 312.495H34.4238ZM40.7197 315.599C40.9613 315.599 41.1755 315.553 41.3623 315.462C41.5492 315.366 41.695 315.234 41.7998 315.065C41.9092 314.892 41.9661 314.689 41.9707 314.457H43.8232C43.8187 314.977 43.6797 315.439 43.4062 315.845C43.1328 316.246 42.766 316.562 42.3057 316.795C41.8454 317.023 41.3304 317.137 40.7607 317.137C40.1865 317.137 39.6852 317.041 39.2568 316.85C38.833 316.658 38.4798 316.394 38.1973 316.057C37.9147 315.715 37.7028 315.318 37.5615 314.867C37.4202 314.411 37.3496 313.924 37.3496 313.404V313.206C37.3496 312.682 37.4202 312.194 37.5615 311.743C37.7028 311.287 37.9147 310.891 38.1973 310.554C38.4798 310.212 38.833 309.945 39.2568 309.754C39.6807 309.562 40.1774 309.467 40.7471 309.467C41.3532 309.467 41.8841 309.583 42.3398 309.815C42.8001 310.048 43.1602 310.381 43.4199 310.813C43.6842 311.242 43.8187 311.75 43.8232 312.338H41.9707C41.9661 312.092 41.9137 311.868 41.8135 311.668C41.7178 311.467 41.5765 311.308 41.3896 311.189C41.2074 311.066 40.9818 311.005 40.7129 311.005C40.4258 311.005 40.1911 311.066 40.0088 311.189C39.8265 311.308 39.6852 311.472 39.585 311.682C39.4847 311.887 39.4141 312.121 39.373 312.386C39.3366 312.646 39.3184 312.919 39.3184 313.206V313.404C39.3184 313.691 39.3366 313.967 39.373 314.231C39.4095 314.496 39.4779 314.73 39.5781 314.936C39.6829 315.141 39.8265 315.302 40.0088 315.421C40.1911 315.539 40.4281 315.599 40.7197 315.599ZM46.8857 306.5V317H44.917V306.5H46.8857ZM46.6055 313.042H46.0654C46.07 312.527 46.1383 312.053 46.2705 311.62C46.4027 311.183 46.5918 310.804 46.8379 310.485C47.084 310.162 47.3779 309.911 47.7197 309.733C48.0661 309.556 48.4489 309.467 48.8682 309.467C49.2327 309.467 49.5632 309.519 49.8594 309.624C50.1602 309.724 50.4176 309.888 50.6318 310.116C50.8506 310.34 51.0192 310.633 51.1377 310.998C51.2562 311.363 51.3154 311.805 51.3154 312.324V317H49.333V312.311C49.333 311.982 49.2852 311.725 49.1895 311.538C49.0983 311.347 48.9639 311.212 48.7861 311.135C48.613 311.053 48.3988 311.012 48.1436 311.012C47.861 311.012 47.6195 311.064 47.4189 311.169C47.223 311.274 47.0658 311.42 46.9473 311.606C46.8288 311.789 46.7422 312.003 46.6875 312.249C46.6328 312.495 46.6055 312.759 46.6055 313.042ZM56.8115 314.956C56.8115 314.815 56.7705 314.687 56.6885 314.573C56.6064 314.459 56.4538 314.354 56.2305 314.259C56.0117 314.159 55.695 314.067 55.2803 313.985C54.9066 313.903 54.5579 313.801 54.2344 313.678C53.9154 313.55 53.6374 313.397 53.4004 313.22C53.168 313.042 52.9857 312.832 52.8535 312.591C52.7214 312.345 52.6553 312.064 52.6553 311.75C52.6553 311.44 52.7214 311.148 52.8535 310.875C52.9902 310.602 53.1839 310.36 53.4346 310.15C53.6898 309.936 53.9997 309.77 54.3643 309.651C54.7334 309.528 55.1481 309.467 55.6084 309.467C56.251 309.467 56.8024 309.569 57.2627 309.774C57.7275 309.979 58.083 310.262 58.3291 310.622C58.5798 310.978 58.7051 311.383 58.7051 311.839H56.7363C56.7363 311.647 56.6953 311.477 56.6133 311.326C56.5358 311.171 56.4128 311.05 56.2441 310.964C56.0801 310.873 55.8659 310.827 55.6016 310.827C55.3828 310.827 55.1937 310.866 55.0342 310.943C54.8747 311.016 54.7516 311.117 54.665 311.244C54.583 311.367 54.542 311.504 54.542 311.654C54.542 311.768 54.5648 311.871 54.6104 311.962C54.6605 312.049 54.7402 312.128 54.8496 312.201C54.959 312.274 55.1003 312.342 55.2734 312.406C55.4512 312.465 55.6699 312.52 55.9297 312.57C56.4629 312.68 56.9391 312.823 57.3584 313.001C57.7777 313.174 58.1104 313.411 58.3564 313.712C58.6025 314.008 58.7256 314.398 58.7256 314.881C58.7256 315.209 58.6527 315.51 58.5068 315.783C58.361 316.057 58.1514 316.296 57.8779 316.501C57.6045 316.701 57.2764 316.859 56.8936 316.973C56.5153 317.082 56.0892 317.137 55.6152 317.137C54.9271 317.137 54.3438 317.014 53.8652 316.768C53.3913 316.521 53.0312 316.209 52.7852 315.831C52.5436 315.448 52.4229 315.056 52.4229 314.655H54.2891C54.2982 314.924 54.3665 315.141 54.4941 315.305C54.6263 315.469 54.7926 315.587 54.9932 315.66C55.1982 315.733 55.4193 315.77 55.6562 315.77C55.9115 315.77 56.1234 315.735 56.292 315.667C56.4606 315.594 56.5882 315.498 56.6748 315.38C56.766 315.257 56.8115 315.116 56.8115 314.956ZM63.4082 317.137C62.834 317.137 62.319 317.046 61.8633 316.863C61.4076 316.676 61.0202 316.419 60.7012 316.091C60.3867 315.763 60.1452 315.382 59.9766 314.949C59.8079 314.512 59.7236 314.047 59.7236 313.555V313.281C59.7236 312.721 59.8034 312.208 59.9629 311.743C60.1224 311.278 60.3503 310.875 60.6465 310.533C60.9473 310.191 61.3118 309.929 61.7402 309.747C62.1686 309.56 62.6517 309.467 63.1895 309.467C63.7135 309.467 64.1784 309.553 64.584 309.727C64.9896 309.9 65.3291 310.146 65.6025 310.465C65.8805 310.784 66.0902 311.167 66.2314 311.613C66.3727 312.055 66.4434 312.548 66.4434 313.09V313.91H60.5645V312.598H64.5088V312.447C64.5088 312.174 64.4587 311.93 64.3584 311.716C64.2627 311.497 64.1169 311.324 63.9209 311.196C63.7249 311.069 63.4743 311.005 63.1689 311.005C62.9092 311.005 62.6859 311.062 62.499 311.176C62.3122 311.29 62.1595 311.449 62.041 311.654C61.9271 311.859 61.8405 312.101 61.7812 312.379C61.7266 312.652 61.6992 312.953 61.6992 313.281V313.555C61.6992 313.851 61.7402 314.124 61.8223 314.375C61.9089 314.626 62.0296 314.842 62.1846 315.024C62.3441 315.207 62.5355 315.348 62.7588 315.448C62.9867 315.549 63.2441 315.599 63.5312 315.599C63.8867 315.599 64.2171 315.53 64.5225 315.394C64.8324 315.252 65.099 315.04 65.3223 314.758L66.2793 315.797C66.1243 316.02 65.9124 316.234 65.6436 316.439C65.3792 316.645 65.0602 316.813 64.6865 316.945C64.3128 317.073 63.8867 317.137 63.4082 317.137ZM69.4922 311.183V317H67.5234V309.604H69.3691L69.4922 311.183ZM69.2051 313.042H68.6719C68.6719 312.495 68.7425 312.003 68.8838 311.565C69.0251 311.123 69.2233 310.747 69.4785 310.438C69.7337 310.123 70.0368 309.884 70.3877 309.72C70.7432 309.551 71.1396 309.467 71.5771 309.467C71.9235 309.467 72.2402 309.517 72.5273 309.617C72.8145 309.717 73.0605 309.877 73.2656 310.096C73.4753 310.314 73.6348 310.604 73.7441 310.964C73.8581 311.324 73.915 311.764 73.915 312.283V317H71.9326V312.276C71.9326 311.948 71.887 311.693 71.7959 311.511C71.7048 311.328 71.5703 311.201 71.3926 311.128C71.2194 311.05 71.0052 311.012 70.75 311.012C70.4857 311.012 70.2555 311.064 70.0596 311.169C69.8682 311.274 69.7087 311.42 69.5811 311.606C69.458 311.789 69.3646 312.003 69.3008 312.249C69.237 312.495 69.2051 312.759 69.2051 313.042ZM78.8164 317.137C78.2422 317.137 77.7272 317.046 77.2715 316.863C76.8158 316.676 76.4284 316.419 76.1094 316.091C75.7949 315.763 75.5534 315.382 75.3848 314.949C75.2161 314.512 75.1318 314.047 75.1318 313.555V313.281C75.1318 312.721 75.2116 312.208 75.3711 311.743C75.5306 311.278 75.7585 310.875 76.0547 310.533C76.3555 310.191 76.7201 309.929 77.1484 309.747C77.5768 309.56 78.0599 309.467 78.5977 309.467C79.1217 309.467 79.5866 309.553 79.9922 309.727C80.3978 309.9 80.7373 310.146 81.0107 310.465C81.2887 310.784 81.4984 311.167 81.6396 311.613C81.7809 312.055 81.8516 312.548 81.8516 313.09V313.91H75.9727V312.598H79.917V312.447C79.917 312.174 79.8669 311.93 79.7666 311.716C79.6709 311.497 79.5251 311.324 79.3291 311.196C79.1331 311.069 78.8825 311.005 78.5771 311.005C78.3174 311.005 78.0941 311.062 77.9072 311.176C77.7204 311.29 77.5677 311.449 77.4492 311.654C77.3353 311.859 77.2487 312.101 77.1895 312.379C77.1348 312.652 77.1074 312.953 77.1074 313.281V313.555C77.1074 313.851 77.1484 314.124 77.2305 314.375C77.3171 314.626 77.4378 314.842 77.5928 315.024C77.7523 315.207 77.9437 315.348 78.167 315.448C78.3949 315.549 78.6523 315.599 78.9395 315.599C79.2949 315.599 79.6253 315.53 79.9307 315.394C80.2406 315.252 80.5072 315.04 80.7305 314.758L81.6875 315.797C81.5326 316.02 81.3206 316.234 81.0518 316.439C80.7874 316.645 80.4684 316.813 80.0947 316.945C79.721 317.073 79.2949 317.137 78.8164 317.137Z" fill="black"/>
<defs>
<clipPath id="clip0_812_876">
<rect width="386" height="618" fill="white" transform="translate(60 16)"/>
</clipPath>
</defs>
</svg>
