<svg width="60" height="60" viewBox="0 0 60 60" fill="none" xmlns="http://www.w3.org/2000/svg">
<path fill-rule="evenodd" clip-rule="evenodd" d="M30 60C46.5685 60 60 46.5685 60 30C60 13.4315 46.5685 0 30 0C13.4315 0 0 13.4315 0 30C0 46.5685 13.4315 60 30 60ZM30 55C43.8071 55 55 43.8071 55 30C55 16.1929 43.8071 5 30 5C16.1929 5 5 16.1929 5 30C5 43.8071 16.1929 55 30 55Z" fill="#d2d2d2"/>
<path d="M29.8145 18.8528C30.2832 17.8529 29.8582 16.6593 28.8583 16.1906C27.8584 15.7219 26.6648 16.1468 26.1961 17.1467L18.1908 34.1511C17.897 34.7698 17.947 35.4947 18.3095 36.0759C18.672 36.6571 19.3156 37.0008 20.0031 37.0008H34.0015V42.0002C34.0015 43.1063 34.8952 44 36.0013 44C37.1074 44 38.0011 43.1063 38.0011 42.0002V37.0008H40.0009C41.107 37.0008 42.0006 36.1071 42.0006 35.001C42.0006 33.8949 41.107 33.0012 40.0009 33.0012H38.0011V24.0022C38.0011 22.8961 37.1074 22.0024 36.0013 22.0024C34.8952 22.0024 34.0015 22.8961 34.0015 24.0022V33.0012H23.1527L29.8145 18.8528Z" fill="black"/>
</svg>
