<svg width="60" height="60" viewBox="0 0 60 60" fill="none" xmlns="http://www.w3.org/2000/svg">
<path fill-rule="evenodd" clip-rule="evenodd" d="M30 60C46.5685 60 60 46.5685 60 30C60 13.4315 46.5685 0 30 0C13.4315 0 0 13.4315 0 30C0 46.5685 13.4315 60 30 60ZM30 55C43.8071 55 55 43.8071 55 30C55 16.1929 43.8071 5 30 5C16.1929 5 5 16.1929 5 30C5 43.8071 16.1929 55 30 55Z" fill="#d2d2d2"/>
<path d="M28.7735 20C27.4541 20 26.1839 20.5313 25.2512 21.4875L23.3551 23.4125C22.588 24.1938 21.3423 24.1938 20.5753 23.4125C19.8082 22.6313 19.8082 21.3625 20.5753 20.5813L22.4714 18.6562C24.1466 16.9562 26.411 16 28.7735 16C33.6887 16 37.6773 20.0625 37.6773 25.0688C37.6773 27.475 36.7385 29.7813 35.0694 31.4813L26.7116 40H37.6773C38.7635 40 39.641 40.8937 39.641 42C39.641 43.1063 38.7635 44 37.6773 44H21.9682C21.1766 44 20.4587 43.5125 20.1519 42.7625C19.8451 42.0125 20.0169 41.1562 20.5753 40.5812L32.2896 28.6562C33.2223 27.7063 33.7501 26.4125 33.7501 25.0688C33.7501 22.2688 31.5226 20 28.7735 20Z" fill="black"/>
</svg>
