<svg width="60" height="60" viewBox="0 0 60 60" fill="none" xmlns="http://www.w3.org/2000/svg">
<path fill-rule="evenodd" clip-rule="evenodd" d="M30 60C46.5685 60 60 46.5685 60 30C60 13.4315 46.5685 0 30 0C13.4315 0 0 13.4315 0 30C0 46.5685 13.4315 60 30 60ZM30 55C43.8071 55 55 43.8071 55 30C55 16.1929 43.8071 5 30 5C16.1929 5 5 16.1929 5 30C5 43.8071 16.1929 55 30 55Z" fill="#d2d2d2"/>
<path d="M20 18C20 16.8937 20.91 16 22.0364 16H37.3091C38.1491 16 38.9 16.5063 39.2055 17.275C39.5109 18.0438 39.3009 18.9187 38.6836 19.475L30.3282 27H31.7091C36.4882 27 40.3636 30.8063 40.3636 35.5C40.3636 40.1937 36.4882 44 31.7091 44H26.7073C24.0091 44 21.54 42.5 20.3373 40.1313L20.2164 39.8937C19.7136 38.9062 20.1209 37.7062 21.1264 37.2125C22.1318 36.7187 23.3536 37.1188 23.8564 38.1063L23.9773 38.3438C24.4927 39.3625 25.5555 40 26.7073 40H31.7091C34.2418 40 36.2909 37.9875 36.2909 35.5C36.2909 33.0125 34.2418 31 31.7091 31H25.0909C24.2509 31 23.5 30.4938 23.1945 29.725C22.8891 28.9563 23.0991 28.0812 23.7164 27.525L32.0718 20H22.0364C20.91 20 20 19.1063 20 18Z" fill="black"/>
</svg>
