<svg width="60" height="60" viewBox="0 0 60 60" fill="none" xmlns="http://www.w3.org/2000/svg">
<path fill-rule="evenodd" clip-rule="evenodd" d="M30 60C46.5685 60 60 46.5685 60 30C60 13.4315 46.5685 0 30 0C13.4315 0 0 13.4315 0 30C0 46.5685 13.4315 60 30 60ZM30 55C43.8071 55 55 43.8071 55 30C55 16.1929 43.8071 5 30 5C16.1929 5 5 16.1929 5 30C5 43.8071 16.1929 55 30 55Z" fill="#d2d2d2"/>
<path d="M31.8438 18.0007C31.8438 17.2632 31.4438 16.5882 30.804 16.2383C30.1642 15.8883 29.389 15.9258 28.786 16.3383L22.8798 20.3381C21.9692 20.9506 21.7293 22.1881 22.3322 23.1131C22.9352 24.038 24.1595 24.2818 25.0639 23.6693L27.9062 21.7381V40.0001H23.9688C22.8798 40.0001 22 40.8938 22 42.0001C22 43.1063 22.8798 44 23.9688 44H29.875H35.7812C36.8702 44 37.75 43.1063 37.75 42.0001C37.75 40.8938 36.8702 40.0001 35.7812 40.0001H31.8438V18.0007Z" fill="black"/>
</svg>
