<svg width="60" height="60" viewBox="0 0 60 60" fill="none" xmlns="http://www.w3.org/2000/svg">
<path fill-rule="evenodd" clip-rule="evenodd" d="M30 60C46.5685 60 60 46.5685 60 30C60 13.4315 46.5685 0 30 0C13.4315 0 0 13.4315 0 30C0 46.5685 13.4315 60 30 60ZM30 55C43.8071 55 55 43.8071 55 30C55 16.1929 43.8071 5 30 5C16.1929 5 5 16.1929 5 30C5 43.8071 16.1929 55 30 55Z" fill="#d2d2d2"/>
<path d="M21.9956 17.6437C22.1674 16.6937 22.9774 16 23.9286 16H35.7104C36.7965 16 37.674 16.8937 37.674 18C37.674 19.1063 36.7965 20 35.7104 20H25.567L24.3152 27H31.2922C35.9006 27 39.6377 30.8063 39.6377 35.5C39.6377 40.1937 35.9006 44 31.2922 44H26.1683C23.7506 44 21.5415 42.6063 20.4615 40.4062L20.2099 39.8937C19.7252 38.9062 20.1179 37.7062 21.0874 37.2125C22.057 36.7187 23.2352 37.1188 23.7199 38.1063L23.9715 38.6187C24.3888 39.4687 25.2356 40 26.1683 40H31.2922C33.7345 40 35.7104 37.9875 35.7104 35.5C35.7104 33.0125 33.7345 31 31.2922 31H21.9649C21.382 31 20.8297 30.7375 20.4554 30.2812C20.0811 29.825 19.9277 29.225 20.032 28.6438L21.9956 17.6437Z" fill="black"/>
</svg>
